<svg xmlns="http://www.w3.org/2000/svg" width="17" height="17" viewBox="0 0 17 17" fill="none">
  <path fill-rule="evenodd" clip-rule="evenodd" d="M4.61006 1.95553V0.500977H5.81006V1.95553H12.0039V0.500977H13.2039V1.95553H14.0645C15.6712 1.95553 16.9736 3.25797 16.9736 4.86462V13.5919C16.9736 15.1985 15.6712 16.501 14.0645 16.501H3.88272C2.27608 16.501 0.973633 15.1985 0.973633 13.5919V4.86462C0.973633 3.25797 2.27608 1.95553 3.88272 1.95553H4.61006ZM4.61006 3.04644H3.88272C2.87857 3.04644 2.06454 3.86046 2.06454 4.86462V6.68279H15.8827V4.86462C15.8827 3.86047 15.0687 3.04644 14.0645 3.04644H13.2039V4.86461H12.0039V3.04644H5.81006V4.86461H4.61006V3.04644ZM15.8827 13.5919V7.7737H2.06454V13.5919C2.06454 14.596 2.87857 15.4101 3.88272 15.4101H14.0645C15.0687 15.4101 15.8827 14.596 15.8827 13.5919Z" fill="#848484"/>
</svg>