<svg width="22" height="20" viewBox="0 0 22 20" fill="none" xmlns="http://www.w3.org/2000/svg">
<path fillRule="evenodd" clipRule="evenodd" d="M3.88322 0.0120195C3.83676 0.0213662 3.69434 0.0493525 3.56662 0.0742051C2.59791 0.262599 1.72315 1.09149 1.36565 2.15977L1.26678 2.45525L1.25441 6.16277L1.24209 9.8703L1.03906 10.1142C0.607052 10.6333 0.313629 11.2063 0.0976276 11.9526L0 12.2899V15.5189V18.7479L0.123993 19.0012C0.983516 20.7561 3.44004 20.0483 3.44004 18.0457V17.756H10.7844H18.1287V18.0457C18.1287 20.0483 20.5852 20.7561 21.4447 19.0012L21.5687 18.7479V15.54C21.5687 12.3642 21.5678 12.3287 21.4755 11.9826C21.2753 11.2322 20.8991 10.5161 20.4372 10.006L20.2419 9.79018L20.2291 6.14381C20.2148 2.06604 20.2336 2.32547 19.9038 1.65327C19.5436 0.918978 18.9175 0.392157 18.0654 0.106243L17.77 0.00710302L10.8688 0.00105192C7.07317 -0.00229778 3.92963 0.00261872 3.88322 0.0120195ZM17.8932 0.988674C18.5944 1.25573 19.0898 1.79925 19.2683 2.49728C19.3491 2.81296 19.3528 2.96516 19.3528 5.95585V9.0842L18.9534 8.89316L18.5541 8.70217L18.5524 7.82795C18.5502 6.60521 18.4179 6.21118 17.8258 5.66297C17.1985 5.08223 17.0338 5.05256 14.4354 5.05246C11.8576 5.05229 11.6447 5.09368 11.0229 5.71548L10.7844 5.95401L10.5458 5.71548C9.92517 5.09476 9.70895 5.05251 7.15161 5.0517C4.57142 5.05094 4.36401 5.08784 3.74967 5.6567C3.1505 6.21156 3.01878 6.60115 3.01576 7.82795L3.01354 8.70217L2.57106 8.91785L2.12863 9.13353L2.141 5.85768L2.15337 2.58189L2.24814 2.33201C2.51573 1.62668 3.16514 1.05183 3.84141 0.921626C3.9715 0.896611 6.65062 0.883482 10.8477 0.887318L17.6433 0.893531L17.8932 0.988674ZM9.48506 6.05056C10.1042 6.33658 10.3236 6.76361 10.3532 7.73978L10.3741 8.42782H7.33504C5.66354 8.42782 4.20631 8.44009 4.09669 8.45511L3.89743 8.48244L3.91153 7.70591C3.9272 6.84093 3.95151 6.75221 4.26898 6.40082C4.68067 5.94515 4.71357 5.94007 7.19662 5.95012C9.24512 5.95844 9.28986 5.96039 9.48506 6.05056ZM16.871 6.07676C17.4758 6.37381 17.6644 6.77885 17.6644 7.7809V8.48147L17.4686 8.45467C17.3609 8.43987 15.9052 8.42782 14.2337 8.42782H11.1946L11.2156 7.73789C11.2393 6.95466 11.3145 6.70375 11.6202 6.38856C12.0571 5.93807 12.046 5.93975 14.5199 5.94991L16.6303 5.9586L16.871 6.07676ZM17.8764 9.42857C19.8202 9.99662 20.7436 11.4101 20.7453 13.82L20.7457 14.3371H18.5515H16.3573L16.2194 14.4602C16.0309 14.6287 16.0216 14.9083 16.1986 15.0853L16.3156 15.2023L18.5307 15.214L20.7457 15.2256V16.0476V16.8696H10.7844H0.823054V16.0465V15.2234H6.60777C12.8962 15.2234 12.5646 15.2361 12.6755 14.9925C12.7375 14.8565 12.7406 14.6544 12.6825 14.5458C12.5658 14.3276 12.8404 14.3371 6.60777 14.3371H0.823054L0.823432 13.82C0.825215 11.2295 1.97773 9.68137 4.15757 9.34126C4.2156 9.33219 7.25464 9.32727 10.911 9.3303L17.5589 9.33581L17.8764 9.42857ZM14.109 14.4602C13.8409 14.6998 13.9632 15.1403 14.3162 15.2065C14.7975 15.2968 15.0566 14.6234 14.6262 14.4008C14.434 14.3014 14.265 14.3208 14.109 14.4602ZM2.55339 18.0198C2.55215 19.4211 0.934135 19.508 0.835643 18.112L0.81052 17.756H1.68209H2.55361L2.55339 18.0198ZM20.7331 18.112C20.6346 19.508 19.0166 19.4211 19.0153 18.0198L19.0151 17.756H19.8866H20.7582L20.7331 18.112Z" fill="#E6B022"/>
</svg>
