<svg width="21" height="13" viewBox="0 0 21 13" fill="none" xmlns="http://www.w3.org/2000/svg">
<path d="M3.97852 2.60059H17.9785C18.2437 2.60059 18.4981 2.49523 18.6856 2.30769C18.8732 2.12016 18.9785 1.8658 18.9785 1.60059C18.9785 1.33537 18.8732 1.08102 18.6856 0.893479C18.4981 0.705943 18.2437 0.600586 17.9785 0.600586H3.97852C3.7133 0.600586 3.45895 0.705943 3.27141 0.893479C3.08387 1.08102 2.97852 1.33537 2.97852 1.60059C2.97852 1.8658 3.08387 2.12016 3.27141 2.30769C3.45895 2.49523 3.7133 2.60059 3.97852 2.60059ZM19.9785 5.60059H1.97852C1.7133 5.60059 1.45895 5.70594 1.27141 5.89348C1.08387 6.08102 0.978516 6.33537 0.978516 6.60059C0.978516 6.8658 1.08387 7.12016 1.27141 7.30769C1.45895 7.49523 1.7133 7.60059 1.97852 7.60059H19.9785C20.2437 7.60059 20.4981 7.49523 20.6856 7.30769C20.8732 7.12016 20.9785 6.8658 20.9785 6.60059C20.9785 6.33537 20.8732 6.08102 20.6856 5.89348C20.4981 5.70594 20.2437 5.60059 19.9785 5.60059ZM17.9785 10.6006H3.97852C3.7133 10.6006 3.45895 10.7059 3.27141 10.8935C3.08387 11.081 2.97852 11.3354 2.97852 11.6006C2.97852 11.8658 3.08387 12.1202 3.27141 12.3077C3.45895 12.4952 3.7133 12.6006 3.97852 12.6006H17.9785C18.2437 12.6006 18.4981 12.4952 18.6856 12.3077C18.8732 12.1202 18.9785 11.8658 18.9785 11.6006C18.9785 11.3354 18.8732 11.081 18.6856 10.8935C18.4981 10.7059 18.2437 10.6006 17.9785 10.6006Z" fill="#525252"/>
</svg>
