<svg width="26" height="26" viewBox="0 0 26 26" fill="none" xmlns="http://www.w3.org/2000/svg">
<path d="M20.3955 25.3176H6.33263C3.35779 25.3176 0.923828 22.8836 0.923828 19.9088V19.7285L1.46471 5.30502C1.55486 2.33018 3.98882 0.0765076 6.87351 0.0765076H19.8546C22.7393 0.0765076 25.1733 2.33018 25.2634 5.30502L25.8043 19.7285C25.8945 21.1708 25.3536 22.523 24.362 23.6048C23.3704 24.6866 22.0182 25.3176 20.5758 25.3176C20.5758 25.3176 20.4857 25.3176 20.3955 25.3176ZM6.87351 1.87944C4.89029 1.87944 3.35779 3.41194 3.26764 5.30502L2.72676 19.9088C2.72676 21.892 4.3494 23.5147 6.33263 23.5147H20.5758C21.5674 23.5147 22.4689 23.0639 23.0999 22.3428C23.731 21.6216 24.0915 20.7201 24.0915 19.7285L23.5507 5.30502C23.4605 3.32179 21.928 1.87944 19.9448 1.87944H6.87351Z" fill="white"/>
<path d="M13.364 10.8941C9.84826 10.8941 7.05371 8.09958 7.05371 4.58386C7.05371 4.04298 7.4143 3.68239 7.95518 3.68239C8.49606 3.68239 8.85665 4.04298 8.85665 4.58386C8.85665 7.10796 10.8399 9.09119 13.364 9.09119C15.8881 9.09119 17.8713 7.10796 17.8713 4.58386C17.8713 4.04298 18.2319 3.68239 18.7728 3.68239C19.3137 3.68239 19.6743 4.04298 19.6743 4.58386C19.6743 8.09958 16.8797 10.8941 13.364 10.8941Z" fill="white"/>
</svg>
