<svg xmlns="http://www.w3.org/2000/svg" width="18" height="18" viewBox="0 0 18 18" fill="none">
  <path d="M8.51956 1.50995H3.22193C2.75359 1.50995 2.30443 1.696 1.97327 2.02716C1.6421 2.35833 1.45605 2.80749 1.45605 3.27583V15.637C1.45605 16.1053 1.6421 16.5545 1.97327 16.8856C2.30443 17.2168 2.75359 17.4028 3.22193 17.4028H15.5831C16.0514 17.4028 16.5006 17.2168 16.8317 16.8856C17.1629 16.5545 17.3489 16.1053 17.3489 15.637V10.3393M7.19515 9.01492L14.2587 1.95142C14.6099 1.60016 15.0863 1.40283 15.5831 1.40283C15.829 1.40283 16.0726 1.45128 16.2998 1.54541C16.5271 1.63953 16.7335 1.7775 16.9075 1.95142C17.0814 2.12534 17.2194 2.33182 17.3135 2.55906C17.4076 2.7863 17.4561 3.02986 17.4561 3.27583C17.4561 3.52179 17.4076 3.76535 17.3135 3.99259C17.2194 4.21983 17.0814 4.42631 16.9075 4.60023L9.84396 11.6637L5.87074 12.9881L7.19515 9.01492Z" stroke="#AA8453" stroke-linecap="round" stroke-linejoin="round"/>
</svg>