<svg width="147" height="44" viewBox="0 0 147 44" fill="none" xmlns="http://www.w3.org/2000/svg">
<path fill-rule="evenodd" clip-rule="evenodd" d="M67.2926 25.1015C67.0904 24.5509 66.7828 24.045 66.387 23.6122C65.9952 23.197 65.5466 22.8393 65.0547 22.5495C64.5212 22.2335 63.9682 21.9516 63.3989 21.7058C62.7645 21.4266 62.0984 21.1602 61.4179 20.9127C60.7375 20.6653 60 20.3576 59.2799 20.0119C58.4993 19.6641 57.8211 19.1218 57.3101 18.4369C56.8485 17.7866 56.6138 16.9651 56.6138 15.9944C56.6087 15.531 56.7043 15.072 56.8941 14.6491C57.0839 14.2263 57.3633 13.8498 57.7129 13.5456C58.4259 12.8935 59.3622 12.5403 60.3283 12.559C61.163 12.5355 61.9899 12.7249 62.7312 13.1094C63.38 13.4708 63.9436 13.9673 64.3838 14.5654C64.8433 15.1986 65.2126 15.8925 65.4814 16.6272C65.724 17.2823 65.9461 17.9674 66.1443 18.6685H66.6994L66.5948 12.4702H65.9715L65.2879 13.6042L64.9818 13.4139C64.3422 13.0201 63.6673 12.6867 62.9659 12.4179C62.1832 12.1297 61.3541 11.9883 60.5202 12.0008C59.7362 11.9988 58.9583 12.1379 58.2236 12.4115C57.5241 12.664 56.8784 13.046 56.3204 13.5376C55.7787 14.0193 55.3387 14.6044 55.0262 15.2585C54.7242 15.9036 54.5703 16.6081 54.5757 17.3203C54.5757 18.613 54.8786 19.6677 55.4782 20.456C56.0777 21.2442 56.9643 21.923 58.0761 22.4227C58.6677 22.6923 59.3751 22.9825 60.1824 23.2839C60.9897 23.5852 61.7383 23.8723 62.3759 24.1261C63.2968 24.4665 64.0882 25.0866 64.6392 25.8993C65.1364 26.6468 65.4013 27.5248 65.4005 28.4227C65.4093 28.973 65.3257 29.521 65.153 30.0436C64.988 30.5387 64.7081 30.9876 64.3362 31.3537C63.9643 31.7198 63.5111 31.9926 63.0135 32.1499C62.4058 32.3499 61.7689 32.4464 61.1293 32.4354C60.255 32.4518 59.389 32.2627 58.6011 31.8834C57.883 31.5223 57.2412 31.0264 56.7105 30.4227C56.1629 29.7992 55.7073 29.1006 55.3576 28.3481C55.0359 27.6437 54.7671 26.9164 54.5535 26.1721H54L54.184 32.5892H54.8089L55.5194 31.3822L55.8366 31.571C56.5675 32.0018 57.3484 32.3416 58.1618 32.5829C59.0297 32.8559 59.9339 32.9965 60.8438 33C62.7597 33 64.3838 32.4274 65.6701 31.2982C66.9564 30.1689 67.5876 28.7605 67.5876 27.0158C67.5994 26.3693 67.5002 25.7255 67.2942 25.1126" fill="#F4F4F4"/>
<path fill-rule="evenodd" clip-rule="evenodd" d="M88.753 27.1398C88.4961 27.7943 88.2006 28.433 87.868 29.0525C87.3525 30.047 86.8704 30.7718 86.393 31.273C86.111 31.5359 85.761 31.7145 85.3827 31.7885C84.9877 31.8931 84.5852 31.9674 84.1789 32.0105C83.723 32.0553 83.265 32.0754 82.8069 32.0708H81.5302C80.8889 32.0796 80.2476 32.0521 79.6095 31.9883C79.1769 31.9523 78.7608 31.806 78.4009 31.5632C78.0673 31.3126 77.8367 30.9489 77.7522 30.5403C77.6453 30.0267 77.5979 29.5024 77.6111 28.978V22.3832H80.3073C80.8594 22.3669 81.4108 22.4315 81.9441 22.5751C82.4263 22.7331 82.8481 23.0354 83.1527 23.4411C83.4203 23.8206 83.622 24.2426 83.749 24.6893C83.883 25.0945 83.9812 25.5105 84.0425 25.9328H84.4707V18.4879H84.033C83.9691 18.8591 83.879 19.2253 83.7633 19.5838C83.6349 20.0261 83.4334 20.4437 83.167 20.8194C82.8903 21.1833 82.5235 21.4686 82.1027 21.6473C81.7094 21.8059 81.1242 21.8852 80.3169 21.8852H77.6206V12.905H81.2463C81.7908 12.905 82.2751 12.9145 82.6991 12.9336C83.1289 12.9542 83.5032 12.9843 83.8093 13.024C84.5008 13.1175 85.1844 13.6092 85.9013 14.5307C86.4431 15.1977 86.8669 15.9524 87.1543 16.7623H87.6301V12.4562H72.2344V12.8257C72.458 12.8574 72.7102 12.905 73.0274 12.9716C73.4205 13.0492 73.8036 13.171 74.1693 13.3348C74.5405 13.4846 74.8425 13.7673 75.0163 14.1279C75.1467 14.4452 75.2115 14.7856 75.2066 15.1286V30.0898C75.2176 30.4552 75.1409 30.818 74.983 31.1477C74.7987 31.4753 74.5108 31.7325 74.1646 31.8789C74.0409 31.936 73.8077 32.0153 73.1067 32.1073C72.7747 32.1496 72.4866 32.1823 72.2423 32.2056V32.5561H88.8339L89.1844 27.135L88.753 27.1398Z" fill="#F4F4F4"/>
<path fill-rule="evenodd" clip-rule="evenodd" d="M101.506 23.2667C102.672 24.7639 103.772 26.2437 104.776 27.6648C105.752 29.0463 106.851 30.6926 108.045 32.5609H113.1V32.2041C112.902 32.1835 112.68 32.1501 112.437 32.1073C112.074 32.0485 111.721 31.9391 111.389 31.7822C110.999 31.5784 110.632 31.3361 110.291 31.059C109.824 30.6581 109.411 30.1992 109.06 29.6933C108.074 28.3642 107.24 27.235 106.559 26.3056C105.878 25.3761 105.026 24.2347 104.002 22.8813L103.685 22.4689L104.182 22.3262C104.863 22.1324 105.525 21.8776 106.161 21.5649C106.708 21.2963 107.212 20.949 107.658 20.5339C108.096 20.1217 108.438 19.6181 108.659 19.0589C108.897 18.4213 109.013 17.7443 109 17.0637C109.022 16.3314 108.851 15.6062 108.505 14.9606C108.179 14.3894 107.721 13.9051 107.168 13.549C106.558 13.1625 105.886 12.8831 105.182 12.7227C104.395 12.5447 103.591 12.4569 102.784 12.461H93.5312V12.8258C93.7438 12.8511 93.9801 12.8892 94.2386 12.9368C94.5811 12.9956 94.9184 13.0815 95.2473 13.1937C95.712 13.3714 96.015 13.6442 96.1498 14.0074C96.2659 14.339 96.3228 14.6885 96.3179 15.0399V30.0899C96.3313 30.4742 96.2484 30.8559 96.0768 31.2001C95.8974 31.5244 95.6118 31.777 95.268 31.9154C94.9349 32.0351 94.5869 32.1082 94.2339 32.1327C93.9611 32.1628 93.7263 32.1882 93.5312 32.2072V32.5562H101.62V32.2057C101.379 32.1882 101.108 32.1581 100.813 32.1184C100.471 32.0856 100.134 32.0149 99.8072 31.9075C99.6122 31.8442 99.4326 31.741 99.2797 31.6045C99.1267 31.4679 99.0039 31.3011 98.919 31.1145C98.7883 30.784 98.7241 30.4309 98.7303 30.0756V23.1192H101.406L101.506 23.2667ZM98.7382 22.5783V12.9479H101.593C103.006 12.9479 104.131 13.3555 104.913 14.1596C105.695 14.9638 106.101 16.0534 106.101 17.4047C106.101 18.9812 105.609 20.2596 104.641 21.1826C103.674 22.1057 102.459 22.5783 101.022 22.5783H98.7382Z" fill="#F4F4F4"/>
<path fill-rule="evenodd" clip-rule="evenodd" d="M117.485 29.4396C117.314 29.8888 117.088 30.315 116.811 30.7085C116.532 31.0655 116.195 31.3737 115.815 31.6205C115.49 31.8186 115.134 31.9617 114.762 32.0439C114.511 32.1058 114.286 32.1534 114.08 32.1835V32.5562H121.208V32.2025C120.579 32.1531 119.959 32.0258 119.362 31.8235C118.591 31.5554 118.201 31.1367 118.201 30.5784C118.205 30.3397 118.232 30.1018 118.28 29.8679C118.353 29.5087 118.444 29.1535 118.553 28.8036C118.692 28.3659 118.848 27.8948 119.021 27.3857C119.194 26.8766 119.412 26.2755 119.695 25.5776L119.785 25.354H127.576L129.385 30.2501C129.436 30.3809 129.471 30.5172 129.49 30.6561C129.511 30.7809 129.522 30.9071 129.523 31.0336C129.523 31.6236 128.762 31.8457 128.513 31.917C127.975 32.0642 127.424 32.1588 126.868 32.1994V32.5562H134.811V32.193C134.598 32.1597 134.386 32.1152 134.177 32.0598C133.834 31.9803 133.505 31.8504 133.2 31.6744C132.871 31.4636 132.578 31.203 132.329 30.902C132.095 30.5926 131.909 30.2499 131.777 29.8853L124.927 12.1597H124.24C123.273 14.6466 122.178 17.4698 120.956 20.6292C119.701 23.8663 118.535 26.829 117.49 29.4349M127.324 24.7592H120.028L123.65 15.3413L127.324 24.7592Z" fill="#F4F4F4"/>
<path fill-rule="evenodd" clip-rule="evenodd" d="M137.498 12.824C137.734 12.8557 138.004 12.908 138.316 12.9826C138.711 13.0703 139.098 13.1858 139.476 13.3283C139.966 13.5202 140.278 13.7693 140.427 14.0865C140.565 14.405 140.632 14.7498 140.623 15.0968V30.1769C140.64 30.5663 140.543 30.9523 140.343 31.2871C140.127 31.5894 139.823 31.8176 139.473 31.9406C139.097 32.0579 138.708 32.1251 138.315 32.1404L137.498 32.2039V32.556H146.161V32.2023C145.895 32.1753 145.595 32.1309 145.265 32.0643C144.905 32.0001 144.55 31.9089 144.204 31.7915C143.826 31.6486 143.506 31.3841 143.295 31.0397C143.119 30.7244 143.03 30.3681 143.037 30.0072V14.9398C143.033 14.583 143.11 14.2301 143.262 13.9072C143.36 13.7204 143.496 13.5562 143.661 13.4256C143.827 13.2949 144.018 13.2007 144.223 13.1491C144.6 13.0362 144.986 12.9514 145.376 12.8953C145.661 12.8525 145.923 12.8208 146.169 12.8018V12.4497H137.506L137.498 12.824Z" fill="#F4F4F4"/>
<path d="M20.2165 2.50579L20.2031 2.34349L20.2165 2.50579Z" fill="#0668A3"/>
<path d="M38.0316 15.7676C37.7862 15.4563 37.6316 15.0833 37.5849 14.6897C37.5704 14.2865 37.6243 13.8837 37.7442 13.4985C37.9125 12.8747 37.9884 12.3848 37.9006 11.9173C37.7948 11.4036 37.4807 10.9748 36.9045 10.5773C36.8705 10.5541 36.8322 10.538 36.7918 10.53C36.7515 10.5219 36.7099 10.5221 36.6697 10.5304C36.6294 10.5388 36.5912 10.5551 36.5573 10.5785C36.5235 10.6019 36.4947 10.6319 36.4727 10.6666C36.432 10.7387 36.4196 10.8234 36.438 10.9041C36.4565 10.9848 36.5044 11.0557 36.5725 11.1029C37.436 11.6865 37.4286 12.1898 37.1516 13.3362C37.0135 13.7964 36.9551 14.2768 36.9789 14.7567C37.0347 15.2526 37.2292 15.7227 37.5403 16.113C37.5631 16.1454 37.5921 16.173 37.6257 16.194C37.6593 16.215 37.6967 16.2291 37.7358 16.2355C37.7749 16.2419 37.8149 16.2404 37.8534 16.2311C37.8919 16.2219 37.9282 16.205 37.9601 16.1815C38.0243 16.136 38.0679 16.0669 38.0813 15.9893C38.0946 15.9118 38.0768 15.8321 38.0316 15.7676Z" fill="#F4F4F4"/>
<path d="M3.68545 18.5964C3.7672 18.5795 3.83902 18.5311 3.88552 18.4618C3.93202 18.3925 3.94947 18.3077 3.93409 18.2256C3.7852 17.1983 4.15146 16.8588 5.1922 16.29C5.71928 15.9923 6.08555 15.7555 6.35207 15.4548C6.67907 15.0783 6.89549 14.6186 6.9774 14.1267C6.99015 14.0478 6.97271 13.9671 6.92855 13.9006C6.88439 13.8341 6.81678 13.7867 6.7392 13.7678C6.70076 13.7588 6.6609 13.7576 6.62197 13.7641C6.58304 13.7706 6.5458 13.7849 6.51241 13.8059C6.47902 13.827 6.45013 13.8545 6.42746 13.8868C6.40479 13.9191 6.38878 13.9556 6.38035 13.9942C6.28059 14.4408 6.14807 14.7848 5.88751 15.0543C5.60502 15.3438 5.27136 15.5786 4.90337 15.7466C4.34056 16.0444 3.90877 16.3183 3.6363 16.704C3.32512 17.1268 3.22685 17.6524 3.33107 18.3418C3.3362 18.3824 3.34965 18.4215 3.37058 18.4567C3.39152 18.4919 3.41952 18.5224 3.45277 18.5463C3.48603 18.5702 3.52386 18.587 3.5639 18.5956C3.60393 18.6042 3.64531 18.6045 3.68545 18.5964Z" fill="#F4F4F4"/>
<path d="M3.40777 21.6651C3.48564 21.6353 3.5489 21.5764 3.58417 21.5008C3.61945 21.4253 3.62399 21.339 3.59686 21.2601C3.27526 20.27 3.59684 19.8784 4.50656 19.1384L4.72546 18.9642C5.03039 18.7247 5.29697 18.44 5.51604 18.12C5.77518 17.6934 5.91077 17.2032 5.90765 16.7041C5.90809 16.6237 5.87728 16.5463 5.82171 16.4882C5.76615 16.4302 5.69018 16.396 5.60986 16.3929C5.57015 16.3896 5.53019 16.3944 5.49234 16.4069C5.4545 16.4194 5.41954 16.4393 5.38955 16.4656C5.35956 16.4918 5.33515 16.5238 5.31775 16.5597C5.30035 16.5955 5.2903 16.6345 5.28824 16.6743C5.29876 17.0717 5.19544 17.4638 4.99046 17.8044C4.75576 18.1328 4.46674 18.4188 4.13583 18.6501L3.90955 18.8287C3.55484 19.0899 3.25949 19.4233 3.04299 19.8069C2.81966 20.276 2.79134 20.8075 3.01915 21.473C3.03101 21.5118 3.0507 21.5478 3.07698 21.5788C3.10326 21.6097 3.1356 21.635 3.172 21.653C3.20839 21.6709 3.24807 21.6813 3.28861 21.6834C3.32915 21.6855 3.36972 21.6793 3.40777 21.6651Z" fill="#F4F4F4"/>
<path d="M4.45058 15.6931C4.5329 15.6875 4.61012 15.6512 4.66693 15.5913C4.72374 15.5315 4.756 15.4525 4.7573 15.37C4.77963 14.3278 5.20397 14.0568 6.31469 13.6622L6.57078 13.5669C6.94 13.4459 7.28629 13.2637 7.59516 13.0279C7.98139 12.7106 8.26906 12.2896 8.42446 11.8145C8.4388 11.7777 8.44571 11.7385 8.44478 11.6991C8.44384 11.6597 8.43511 11.6208 8.41904 11.5848C8.40297 11.5488 8.37989 11.5163 8.35118 11.4893C8.32246 11.4623 8.28868 11.4412 8.25176 11.4274C8.2157 11.4108 8.17658 11.4018 8.13689 11.4011C8.0972 11.4003 8.0578 11.4078 8.02115 11.4231C7.9845 11.4383 7.9514 11.461 7.92395 11.4897C7.8965 11.5183 7.87528 11.5524 7.86165 11.5897C7.73721 11.9672 7.51043 12.3027 7.20654 12.5589C6.8769 12.7938 6.5092 12.9701 6.11963 13.08L5.8457 13.1724C5.38116 13.354 4.99403 13.5342 4.71263 13.8171C4.3404 14.1848 4.15427 14.6836 4.14087 15.3834C4.13919 15.4245 4.14608 15.4655 4.16105 15.5039C4.17602 15.5422 4.19876 15.577 4.22786 15.6061C4.25696 15.6352 4.29178 15.658 4.33011 15.6729C4.36845 15.6879 4.40946 15.6948 4.45058 15.6931Z" fill="#F4F4F4"/>
<path d="M5.71408 12.8834C5.79687 12.8934 5.88031 12.8711 5.94712 12.8212C6.01393 12.7713 6.05896 12.6976 6.07289 12.6154C6.26794 11.5925 6.72507 11.396 7.89237 11.192C8.36862 11.1334 8.83136 10.994 9.26066 10.7796C9.69131 10.528 10.045 10.1635 10.2835 9.72546C10.3214 9.65518 10.3311 9.57312 10.3106 9.49597C10.2901 9.41881 10.241 9.35234 10.1733 9.31005C10.14 9.28879 10.1028 9.27439 10.0638 9.26767C10.0249 9.26095 9.98494 9.26205 9.94641 9.27092C9.90788 9.27979 9.8715 9.29624 9.8394 9.31932C9.80729 9.3424 9.78011 9.37165 9.75943 9.40535C9.57637 9.75789 9.29639 10.0508 8.95245 10.2495C8.67254 10.4163 8.30775 10.4997 7.79855 10.5845C7.15981 10.6828 6.67444 10.8049 6.28583 11.0759C5.86001 11.3737 5.58158 11.8337 5.46395 12.5246C5.45515 12.5647 5.45474 12.6062 5.46275 12.6465C5.47077 12.6868 5.48702 12.725 5.51052 12.7587C5.53401 12.7924 5.56422 12.8209 5.59925 12.8424C5.63428 12.8638 5.67338 12.8778 5.71408 12.8834Z" fill="#F4F4F4"/>
<path d="M9.48847 8.13985C9.56352 8.17618 9.64963 8.18239 9.72911 8.15719C9.80859 8.13199 9.87537 8.07729 9.91577 8.00436C10.4265 7.09761 10.9282 7.06188 12.0955 7.24204C12.5666 7.34361 13.0518 7.36225 13.5293 7.29713C14.0171 7.19741 14.4685 6.96683 14.8351 6.6301C14.8936 6.5765 14.9294 6.50271 14.9355 6.42365C14.9416 6.34459 14.9174 6.26618 14.8679 6.20427C14.8434 6.1727 14.8128 6.14639 14.7779 6.1269C14.743 6.10742 14.7045 6.09515 14.6647 6.09084C14.625 6.08654 14.5848 6.09028 14.5466 6.10184C14.5083 6.1134 14.4728 6.13252 14.4421 6.15811C14.153 6.43359 13.7915 6.62105 13.3998 6.69858C13.0812 6.76112 12.709 6.72538 12.1983 6.64051C11.561 6.52438 11.0667 6.49163 10.6066 6.61521C10.1079 6.7641 9.70137 7.10654 9.3619 7.71997C9.34089 7.75544 9.32747 7.79488 9.3225 7.8358C9.31752 7.87672 9.32107 7.91823 9.33297 7.9577C9.34486 7.99717 9.36484 8.03374 9.3916 8.0651C9.41836 8.09645 9.45136 8.12191 9.48847 8.13985Z" fill="#F4F4F4"/>
<path d="M7.38105 10.3867C7.46061 10.409 7.54571 10.3999 7.61882 10.3614C7.69193 10.323 7.74751 10.2579 7.77414 10.1797C8.14041 9.21042 8.61238 9.07791 9.80201 9.07047H10.0745C10.4627 9.07398 10.8488 9.01207 11.2165 8.88734C11.6847 8.71337 12.0937 8.40971 12.3957 8.01186C12.4459 7.94938 12.4697 7.86982 12.4622 7.79005C12.4547 7.71028 12.4164 7.63657 12.3555 7.58454C12.3265 7.55755 12.2922 7.53681 12.2549 7.52362C12.2175 7.51043 12.1779 7.50505 12.1384 7.50784C12.0988 7.51064 12.0603 7.52153 12.0252 7.53985C11.99 7.55817 11.9591 7.58351 11.9341 7.61431C11.6948 7.93098 11.3721 8.17482 11.0021 8.31856C10.6146 8.43931 10.2087 8.48974 9.8035 8.46745H9.51764C9.01588 8.48532 8.59004 8.52701 8.23568 8.70866C7.7637 8.93348 7.42572 9.34443 7.19345 10.0025C7.17991 10.04 7.17406 10.0799 7.17622 10.1197C7.17837 10.1595 7.18849 10.1985 7.20599 10.2343C7.22348 10.2701 7.24799 10.302 7.27807 10.3282C7.30814 10.3544 7.34315 10.3743 7.38105 10.3867Z" fill="#F4F4F4"/>
<path d="M6.50642 30.3379L6.56597 30.0714C6.66359 29.6956 6.69979 29.3064 6.67316 28.919C6.61621 28.4231 6.42121 27.9531 6.11035 27.5626C6.06259 27.4993 5.99219 27.457 5.91392 27.4446C5.83564 27.4321 5.75559 27.4504 5.69051 27.4956C5.65771 27.5176 5.6296 27.5459 5.60785 27.5788C5.58609 27.6118 5.57113 27.6487 5.56379 27.6875C5.55645 27.7263 5.55689 27.7662 5.5651 27.8048C5.57331 27.8434 5.5891 27.88 5.61159 27.9125C5.85996 28.2224 6.01767 28.595 6.0672 28.989C6.08553 29.3916 6.03518 29.7944 5.91831 30.1801L5.84387 30.4615C5.73816 30.9499 5.68157 31.3712 5.76644 31.7613C5.87067 32.275 6.18631 32.7038 6.764 33.1013C6.79766 33.1257 6.83604 33.1428 6.87669 33.1515C6.91734 33.1601 6.95935 33.1602 7.00002 33.1516C7.04069 33.1431 7.0791 33.1261 7.11282 33.1018C7.14653 33.0775 7.17479 33.0464 7.19577 33.0105C7.23565 32.9381 7.24707 32.8534 7.22779 32.773C7.20852 32.6925 7.15994 32.6222 7.09155 32.5758C6.2265 31.9966 6.23693 31.4903 6.50642 30.3379Z" fill="#F4F4F4"/>
<path d="M11.3795 36.7729C10.373 36.5019 10.2197 36.0285 10.1035 34.8493L10.0767 34.5738C10.0455 34.1865 9.95301 33.8066 9.80277 33.4482C9.5879 32.9978 9.25107 32.6166 8.83051 32.3479C8.76471 32.3033 8.68419 32.2859 8.60586 32.2995C8.52754 32.3132 8.45755 32.3566 8.41066 32.4208C8.38619 32.4522 8.36823 32.4882 8.35788 32.5266C8.34754 32.565 8.34502 32.6051 8.35043 32.6445C8.35584 32.6839 8.36908 32.7219 8.3894 32.7561C8.40972 32.7903 8.43669 32.8201 8.46871 32.8437C8.80766 33.0519 9.07953 33.3532 9.25188 33.7117C9.39813 34.0889 9.47969 34.4881 9.4931 34.8924L9.51691 35.1813C9.54237 35.6201 9.65954 36.0487 9.86086 36.4394C10.1274 36.8861 10.5621 37.1943 11.2381 37.3774C11.2775 37.3892 11.319 37.3927 11.3598 37.3877C11.4006 37.3827 11.44 37.3693 11.4754 37.3483C11.5108 37.3273 11.5414 37.2992 11.5654 37.2658C11.5894 37.2324 11.6062 37.1943 11.6148 37.1541C11.6309 37.0726 11.6156 36.988 11.572 36.9173C11.5284 36.8466 11.4596 36.795 11.3795 36.7729Z" fill="#F4F4F4"/>
<path d="M5.29761 27.6683C5.50872 27.2362 5.64562 26.7716 5.70259 26.2941C5.7266 25.7969 5.61438 25.3027 5.37802 24.8647C5.34191 24.7938 5.2795 24.7398 5.20412 24.7142C5.12874 24.6886 5.04637 24.6935 4.97453 24.7277C4.93844 24.7438 4.9059 24.7669 4.87882 24.7957C4.85174 24.8245 4.83066 24.8583 4.81681 24.8953C4.80295 24.9323 4.79661 24.9717 4.79812 25.0112C4.79964 25.0507 4.80899 25.0894 4.82564 25.1253C5.02097 25.4718 5.11246 25.8672 5.08918 26.2643C5.07727 26.5889 4.94027 26.9417 4.73778 27.4152C4.47127 28.0108 4.30897 28.4753 4.32535 28.9503C4.34471 29.4714 4.57551 29.9523 5.08918 30.4288C5.11796 30.4579 5.15245 30.4808 5.19049 30.496C5.22852 30.5112 5.26928 30.5184 5.31023 30.5172C5.35117 30.5159 5.39141 30.5062 5.42844 30.4887C5.46547 30.4712 5.49848 30.4462 5.52542 30.4154C5.57947 30.3518 5.60686 30.2699 5.60186 30.1866C5.59687 30.1034 5.55988 30.0253 5.49863 29.9687C4.74673 29.2481 4.8301 28.7552 5.29761 27.6683Z" fill="#F4F4F4"/>
<path d="M5.28183 19.3588C5.26931 19.2799 5.22691 19.2088 5.16344 19.1603C5.09997 19.1118 5.02028 19.0896 4.94087 19.0982C4.9012 19.101 4.86253 19.1121 4.82731 19.1305C4.79209 19.149 4.76106 19.1746 4.73618 19.2056C4.7113 19.2366 4.6931 19.2725 4.68271 19.3109C4.67232 19.3493 4.67 19.3894 4.67584 19.4287C4.74448 19.8194 4.70536 20.2214 4.56268 20.5916C4.38477 20.9571 4.14557 21.2895 3.85545 21.5742C3.40878 22.0433 3.111 22.4363 2.96211 22.8904C2.81322 23.3892 2.8802 23.9178 3.20478 24.5372C3.22252 24.5737 3.24757 24.6063 3.27835 24.6328C3.30913 24.6593 3.345 24.6792 3.38377 24.6914C3.42254 24.7035 3.46339 24.7076 3.5038 24.7033C3.5442 24.6991 3.58329 24.6866 3.6187 24.6667C3.69004 24.624 3.74268 24.5561 3.76614 24.4763C3.78959 24.3966 3.78215 24.3109 3.74527 24.2364C3.26436 23.3088 3.513 22.8726 4.30212 21.9941C4.64392 21.6559 4.92363 21.2603 5.12847 20.8253C5.31762 20.3609 5.37081 19.8523 5.28183 19.3588Z" fill="#F4F4F4"/>
<path d="M9.02995 34.8255C8.09194 34.3789 8.00558 33.8965 8.0964 32.7128C8.14255 32.1172 8.13512 31.6705 8.02792 31.2834C7.8926 30.8036 7.6254 30.3713 7.25667 30.0357C7.19841 29.981 7.12146 29.9505 7.04151 29.9505C6.96157 29.9505 6.88462 29.981 6.82636 30.0357C6.79845 30.0634 6.7763 30.0963 6.76118 30.1326C6.74606 30.1689 6.73828 30.2078 6.73828 30.2471C6.73828 30.2865 6.74606 30.3254 6.76118 30.3617C6.7763 30.3979 6.79845 30.4309 6.82636 30.4586C7.14945 30.7876 7.3609 31.0839 7.44428 31.4502C7.5343 31.8449 7.54842 32.2532 7.48593 32.6532C7.43382 33.289 7.42492 33.7967 7.59466 34.2359C7.77928 34.7288 8.16191 35.0995 8.79916 35.3883C8.83549 35.4067 8.87522 35.4173 8.91584 35.4197C8.95647 35.4221 8.99713 35.4162 9.03536 35.4022C9.07359 35.3883 9.10858 35.3666 9.13812 35.3386C9.16766 35.3106 9.19113 35.2769 9.20712 35.2394C9.23844 35.1611 9.23739 35.0734 9.20417 34.9958C9.17095 34.9182 9.10829 34.857 9.02995 34.8255Z" fill="#F4F4F4"/>
<path d="M12.3119 6.24884C12.97 5.44781 13.4628 5.47908 14.5914 5.85726L14.852 5.94214C15.2184 6.0693 15.6031 6.13617 15.991 6.14016C16.4906 6.12561 16.9761 5.97082 17.392 5.69348C17.458 5.64855 17.5048 5.58046 17.523 5.5027C17.5412 5.42494 17.5295 5.34319 17.4903 5.27362C17.4705 5.23987 17.4442 5.21036 17.413 5.18678C17.3817 5.1632 17.3461 5.146 17.3082 5.13618C17.2703 5.12636 17.2309 5.12412 17.1921 5.12957C17.1534 5.13501 17.1161 5.14804 17.0823 5.16791C16.6818 5.40018 16.3379 5.52971 15.9701 5.52673C15.5651 5.51494 15.1657 5.42811 14.7924 5.27064L14.5214 5.18131C14.0375 5.03242 13.6281 4.94011 13.2305 4.99371C12.7079 5.05028 12.2553 5.33318 11.8205 5.88705C11.7941 5.91831 11.7743 5.95469 11.7626 5.99392C11.7508 6.03315 11.7472 6.07437 11.7521 6.11504C11.757 6.1557 11.7703 6.19493 11.791 6.23025C11.8117 6.26557 11.8395 6.29624 11.8727 6.32033C11.9407 6.36807 12.0247 6.38731 12.1068 6.37396C12.1889 6.36061 12.2625 6.31571 12.3119 6.24884Z" fill="#F4F4F4"/>
<path d="M37.2958 28.1537C36.9707 28.5307 36.7563 28.9904 36.6764 29.4818C36.6629 29.5605 36.6798 29.6414 36.7238 29.7081C36.7678 29.7747 36.8355 29.8221 36.9132 29.8406C36.9516 29.8496 36.9914 29.8509 37.0304 29.8444C37.0693 29.8379 37.1065 29.8236 37.1399 29.8026C37.1733 29.7815 37.2022 29.754 37.2249 29.7217C37.2475 29.6894 37.2635 29.6529 37.272 29.6143C37.3747 29.1677 37.5013 28.8222 37.7633 28.5527C37.9733 28.3056 38.2859 28.1061 38.7445 27.8589L38.9961 27.719C39.3909 27.5229 39.7376 27.2423 40.0116 26.8971C40.3228 26.4742 40.4195 25.9486 40.3094 25.2593C40.3045 25.2184 40.2911 25.1789 40.2701 25.1434C40.2492 25.1079 40.2211 25.0772 40.1876 25.0531C40.1542 25.029 40.1161 25.0122 40.0758 25.0036C40.0355 24.995 39.9939 24.9949 39.9535 25.0032C39.872 25.0204 39.8005 25.0689 39.7543 25.1382C39.7081 25.2075 39.6909 25.2921 39.7064 25.3739C39.8552 26.4028 39.4919 26.7422 38.4527 27.3095L38.2115 27.445L36.9385 27.0073L38.2115 27.4539C37.8723 27.639 37.5635 27.875 37.2958 28.1537Z" fill="#F4F4F4"/>
<path d="M39.2907 14.6523C39.2699 14.1297 39.0376 13.6488 38.521 13.1738C38.4921 13.145 38.4576 13.1224 38.4197 13.1075C38.3817 13.0925 38.3411 13.0855 38.3004 13.0869C38.2596 13.0883 38.2196 13.0981 38.1827 13.1156C38.1459 13.1331 38.113 13.158 38.0862 13.1887C38.0325 13.2526 38.0057 13.3348 38.0112 13.418C38.0168 13.5013 38.0543 13.5792 38.116 13.6354C38.8694 14.353 38.7845 14.8459 38.323 15.9357L38.2128 16.1903C38.0588 16.5463 37.9584 16.9231 37.915 17.3085C37.8921 17.8064 38.0054 18.301 38.2425 18.7393C38.28 18.8097 38.3431 18.863 38.4188 18.8882C38.4944 18.9134 38.5768 18.9086 38.649 18.8748C38.6853 18.8588 38.718 18.8356 38.7452 18.8067C38.7724 18.7779 38.7936 18.7438 38.8074 18.7067C38.8213 18.6695 38.8276 18.6299 38.826 18.5903C38.8243 18.5506 38.8148 18.5117 38.7979 18.4758C38.6007 18.1304 38.5071 17.7355 38.5284 17.3383C38.5418 17.0137 38.6773 16.6593 38.8783 16.1874L38.9915 15.9223L40.2972 15.4757L38.99 15.9223C39.1834 15.5266 39.2861 15.0927 39.2907 14.6523Z" fill="#F4F4F4"/>
<path d="M36.0149 9.36525C35.8287 8.8754 35.4491 8.5002 34.8088 8.21582C34.772 8.19798 34.7319 8.18791 34.6911 8.18626C34.6502 8.18461 34.6094 8.19141 34.5712 8.20622C34.5331 8.22103 34.4984 8.24353 34.4694 8.27234C34.4403 8.30114 34.4175 8.33562 34.4024 8.37363C34.3725 8.45117 34.3738 8.53728 34.406 8.61389C34.4382 8.69049 34.4988 8.75166 34.5751 8.78457C35.5161 9.22231 35.6009 9.71216 35.5131 10.8944L35.4952 11.1713C35.4653 11.5577 35.4955 11.9465 35.5846 12.3237C35.7217 12.803 35.9898 13.2346 36.3588 13.5699C36.4175 13.6244 36.4946 13.6547 36.5747 13.6547C36.6548 13.6547 36.7319 13.6244 36.7906 13.5699C36.8187 13.5422 36.841 13.5092 36.8563 13.4728C36.8715 13.4363 36.8794 13.3972 36.8794 13.3577C36.8794 13.3183 36.8715 13.2792 36.8563 13.2427C36.841 13.2063 36.8187 13.1733 36.7906 13.1456C36.4675 12.815 36.2531 12.5217 36.1697 12.1555C36.0789 11.8428 36.0789 11.4721 36.1235 10.9524L36.1459 10.6665L37.2357 9.81788L36.1429 10.668C36.1986 10.2297 36.1548 9.78439 36.0149 9.36525Z" fill="#F4F4F4"/>
<path d="M15.0444 4.88508C15.8216 4.18976 16.3099 4.32375 17.3537 4.87465C17.7667 5.12394 18.2202 5.29882 18.6937 5.39131C19.1874 5.46122 19.6908 5.38944 20.1454 5.18435C20.1824 5.17022 20.2162 5.14884 20.2449 5.12147C20.2735 5.0941 20.2964 5.06129 20.3122 5.02496C20.328 4.98863 20.3364 4.94953 20.3369 4.90991C20.3374 4.87029 20.33 4.83098 20.3151 4.79426C20.302 4.75703 20.2816 4.72278 20.2551 4.69352C20.2286 4.66425 20.1965 4.64053 20.1607 4.62376C20.125 4.607 20.0863 4.59752 20.0468 4.59586C20.0074 4.5942 19.968 4.60039 19.931 4.61409C19.5694 4.77801 19.1694 4.83832 18.7756 4.7883C18.3804 4.70348 18.0023 4.55246 17.6574 4.34163C17.0901 4.01854 16.6375 3.8354 16.1685 3.79817C15.6444 3.77882 15.1471 3.97238 14.6275 4.43841C14.5963 4.4647 14.5708 4.49714 14.5526 4.5337C14.5344 4.57026 14.524 4.61016 14.5219 4.65093C14.5198 4.6917 14.5261 4.73248 14.5404 4.77071C14.5547 4.80894 14.5768 4.8438 14.6052 4.87316C14.6642 4.92862 14.7415 4.96048 14.8225 4.96267C14.9035 4.96487 14.9824 4.93726 15.0444 4.88508Z" fill="#F4F4F4"/>
<path d="M19.1589 3.12067C18.6497 3.01347 18.1271 3.12066 17.539 3.49884C17.5034 3.51947 17.4725 3.54726 17.4482 3.58045C17.4239 3.61363 17.4067 3.65148 17.3978 3.69162C17.3888 3.73177 17.3883 3.77334 17.3962 3.8137C17.4041 3.85407 17.4203 3.89236 17.4437 3.92615C17.4927 3.9955 17.5668 4.04291 17.6503 4.05821C17.7338 4.07352 17.82 4.05552 17.8904 4.00805C18.7748 3.45716 19.2304 3.65964 20.1714 4.37581L20.3918 4.54554C20.6991 4.78181 21.0404 4.97006 21.4042 5.10388C21.8811 5.25064 22.3893 5.26198 22.8723 5.13664C22.9501 5.11848 23.0177 5.07067 23.0609 5.00338C23.104 4.93608 23.1191 4.85462 23.1031 4.77633C23.0964 4.73707 23.082 4.69953 23.0607 4.66594C23.0393 4.63234 23.0114 4.60338 22.9786 4.58075C22.9459 4.55812 22.9089 4.54229 22.8699 4.5342C22.831 4.52611 22.7907 4.52592 22.7517 4.53364C22.3694 4.64196 21.964 4.63729 21.5844 4.52023C21.2717 4.42345 20.9605 4.21352 20.551 3.89638L20.3248 3.72068L20.2235 2.50871L20.3248 3.72366C19.9853 3.43924 19.5872 3.23335 19.1589 3.12067Z" fill="#F4F4F4"/>
<path d="M3.4069 26.0127C3.33246 26.5309 3.49771 27.0401 3.9161 27.5984C3.93995 27.6322 3.9706 27.6607 4.00606 27.682C4.04153 27.7033 4.08105 27.717 4.12209 27.7222C4.16314 27.7273 4.2048 27.7239 4.24445 27.7121C4.28409 27.7003 4.32086 27.6803 4.35237 27.6535C4.41637 27.5992 4.45632 27.5218 4.46357 27.4381C4.47082 27.3545 4.44478 27.2714 4.39108 27.2068C3.78063 26.3701 3.92952 25.9011 4.5772 24.902L4.72609 24.6698C4.93865 24.3456 5.09845 23.9898 5.19955 23.6156C5.30889 23.1285 5.28 22.6206 5.11616 22.149C5.08991 22.0728 5.0355 22.0095 4.96407 21.9721C4.89265 21.9348 4.8096 21.9261 4.73201 21.948C4.69434 21.9588 4.65918 21.9769 4.62852 22.0014C4.59787 22.0258 4.57234 22.056 4.55339 22.0903C4.53444 22.1246 4.52244 22.1623 4.51809 22.2013C4.51375 22.2402 4.51713 22.2796 4.52805 22.3173C4.65461 22.7639 4.70077 23.1243 4.6025 23.4846C4.49198 23.875 4.30913 24.2411 4.0635 24.564L3.91461 24.8052L2.55078 25.0301L3.9161 24.8052C3.63767 25.237 3.44561 25.6152 3.4069 26.0127Z" fill="#F4F4F4"/>
<path d="M39.1761 27.9841C39.0935 27.9893 39.0158 28.0251 38.9582 28.0846C38.9006 28.1441 38.8674 28.2229 38.8649 28.3057C38.8441 29.3479 38.4182 29.6159 37.3075 30.0105C36.8462 30.1464 36.4116 30.3604 36.0226 30.6433C35.6368 30.9598 35.3482 31.3789 35.1903 31.8523C35.1632 31.927 35.1661 32.0093 35.1983 32.082C35.2305 32.1547 35.2895 32.2122 35.363 32.2424C35.3995 32.2579 35.4386 32.2661 35.4782 32.2663C35.5178 32.2665 35.557 32.2589 35.5936 32.2438C35.6302 32.2287 35.6635 32.2064 35.6914 32.1783C35.7193 32.1502 35.7413 32.1168 35.7561 32.0801C35.8791 31.7027 36.1055 31.3673 36.4097 31.1123C36.7409 30.8788 37.1095 30.7036 37.4996 30.5941C38.1115 30.3916 38.5671 30.1907 38.9096 29.8616C39.2848 29.4938 39.4709 28.9936 39.4858 28.2968C39.4866 28.2557 39.4792 28.215 39.4639 28.1769C39.4487 28.1388 39.4259 28.1041 39.397 28.075C39.3682 28.0458 39.3338 28.0227 39.2958 28.0071C39.2579 27.9915 39.2171 27.9837 39.1761 27.9841Z" fill="#F4F4F4"/>
<path d="M31.2063 35.6533C31.1555 35.715 31.1309 35.7942 31.1379 35.8738C31.1448 35.9534 31.1828 36.0272 31.2435 36.0791C31.273 36.1053 31.3074 36.1253 31.3447 36.1381C31.382 36.1508 31.4215 36.156 31.4608 36.1534C31.5002 36.1507 31.5386 36.1403 31.5739 36.1227C31.6091 36.1051 31.6406 36.0807 31.6663 36.0508C31.9068 35.7344 32.2305 35.4911 32.6014 35.3481C32.9872 35.2322 33.3904 35.1854 33.7925 35.2096C34.4312 35.2096 34.9404 35.1798 35.3633 34.9714C35.8382 34.7466 36.1762 34.3356 36.413 33.679C36.4286 33.6407 36.4361 33.5995 36.435 33.558C36.4338 33.5166 36.424 33.4759 36.4062 33.4385C36.3884 33.4011 36.363 33.3678 36.3316 33.3408C36.3002 33.3137 36.2635 33.2935 36.2239 33.2815C36.1437 33.2594 36.0582 33.2684 35.9844 33.3068C35.9107 33.3452 35.8542 33.4101 35.8263 33.4884C35.4616 34.4592 34.9896 34.5902 33.7985 34.5932C33.2029 34.5932 32.7562 34.6379 32.381 34.7793C31.9142 34.9529 31.5067 35.2561 31.2063 35.6533Z" fill="#F4F4F4"/>
<path d="M31.2886 37.4119C30.6261 38.2069 30.1362 38.1786 29.0091 37.7975C28.4403 37.6084 28.0101 37.4997 27.6095 37.5131C27.1101 37.5263 26.6247 37.6812 26.2099 37.9598C26.1426 38.0036 26.0945 38.0714 26.0755 38.1494C26.0564 38.2274 26.0677 38.3097 26.1072 38.3796C26.1269 38.4137 26.1532 38.4436 26.1845 38.4674C26.2158 38.4913 26.2515 38.5087 26.2896 38.5186C26.3277 38.5286 26.3673 38.5309 26.4063 38.5255C26.4453 38.52 26.4828 38.5069 26.5167 38.4868C26.8462 38.2661 27.231 38.1423 27.6274 38.1295C28.033 38.1427 28.4328 38.2305 28.8066 38.3886C29.4022 38.5896 29.9025 38.731 30.3685 38.6685C30.8911 38.6119 31.3437 38.3305 31.78 37.7841C31.8067 37.7528 31.8266 37.7163 31.8385 37.6769C31.8504 37.6376 31.8541 37.5961 31.8492 37.5553C31.8443 37.5144 31.8309 37.475 31.8101 37.4396C31.7892 37.4041 31.7612 37.3734 31.7278 37.3493C31.6609 37.3006 31.5776 37.2799 31.4956 37.2916C31.4136 37.3033 31.3394 37.3464 31.2886 37.4119Z" fill="#F4F4F4"/>
<path d="M34.4067 9.96072C34.2611 9.5835 34.1811 9.18419 34.1699 8.78001C34.1297 8.13085 34.0374 7.64995 33.8066 7.23008C33.5371 6.7834 33.1068 6.4737 32.4294 6.29057C32.3901 6.27875 32.3487 6.2752 32.308 6.28012C32.2672 6.28504 32.2279 6.29832 32.1926 6.31916C32.1572 6.33999 32.1265 6.36791 32.1024 6.40116C32.0783 6.43442 32.0614 6.4723 32.0527 6.51241C32.0372 6.59384 32.0528 6.67811 32.0964 6.74864C32.1399 6.81917 32.2082 6.87087 32.2879 6.89358C33.293 7.16605 33.4463 7.64846 33.5595 8.82916C33.577 9.31036 33.6777 9.78489 33.8573 10.2317C34.0717 10.6823 34.4073 11.0643 34.8265 11.335C34.8929 11.3792 34.9736 11.3961 35.0521 11.3822C35.1306 11.3684 35.2007 11.3248 35.2479 11.2605C35.2721 11.2291 35.2897 11.1932 35.2998 11.1549C35.3099 11.1165 35.3122 11.0766 35.3067 11.0373C35.3011 10.9981 35.2878 10.9604 35.2675 10.9263C35.2472 10.8923 35.2202 10.8627 35.1883 10.8392C34.8494 10.6268 34.5782 10.322 34.4067 9.96072Z" fill="#F4F4F4"/>
<path d="M34.1782 35.4762C34.1037 35.4389 34.0176 35.4319 33.9379 35.4565C33.8583 35.4812 33.7913 35.5358 33.7509 35.6087C33.2417 36.517 32.7384 36.5512 31.5726 36.377L31.2972 36.3323C30.9143 36.2699 30.5241 36.2669 30.1403 36.3234C29.652 36.423 29.2003 36.6548 28.8345 36.9934C28.7751 37.0471 28.7387 37.1218 28.7332 37.2018C28.7276 37.2818 28.7533 37.3608 28.8048 37.4222C28.8295 37.4529 28.86 37.4784 28.8946 37.4972C28.9293 37.516 28.9673 37.5278 29.0064 37.5318C29.0456 37.5358 29.0852 37.532 29.123 37.5206C29.1607 37.5092 29.1957 37.4904 29.2261 37.4654C29.5149 37.1892 29.8764 37.0012 30.2683 36.9234C30.5885 36.8609 30.9592 36.8936 31.4699 36.9785L31.7543 37.0247C32.1862 37.1106 32.6315 37.1024 33.06 37.0009C33.5588 36.852 33.9653 36.5065 34.3048 35.8916C34.3251 35.8563 34.3379 35.8173 34.3424 35.7768C34.347 35.7364 34.3433 35.6955 34.3314 35.6565C34.3196 35.6176 34.2998 35.5815 34.2735 35.5505C34.2471 35.5195 34.2147 35.4942 34.1782 35.4762Z" fill="#F4F4F4"/>
<path d="M38.9069 21.7231C38.9447 21.7125 38.9801 21.6945 39.0109 21.6701C39.0417 21.6458 39.0674 21.6156 39.0865 21.5813C39.1056 21.547 39.1178 21.5092 39.1222 21.4702C39.1266 21.4312 39.1233 21.3916 39.1124 21.3539C38.9859 20.9072 38.9442 20.5484 39.041 20.1866C39.1545 19.7977 39.3382 19.4329 39.5829 19.1101C39.9239 18.5786 40.1889 18.1334 40.2395 17.6674C40.3139 17.1448 40.1517 16.637 39.7333 16.0787C39.7095 16.045 39.6791 16.0166 39.6438 15.9953C39.6085 15.974 39.5692 15.9603 39.5283 15.955C39.4875 15.9497 39.4459 15.9529 39.4064 15.9644C39.3668 15.976 39.3301 15.9956 39.2985 16.0221C39.235 16.0765 39.1949 16.1533 39.1865 16.2365C39.1782 16.3197 39.2023 16.4029 39.2539 16.4688C39.8673 17.307 39.7169 17.7746 39.0663 18.7721C38.7447 19.2769 38.5288 19.6655 38.4484 20.0585C38.3343 20.5448 38.3611 21.0536 38.5258 21.5251C38.5523 21.6003 38.6065 21.6627 38.6772 21.6994C38.748 21.7362 38.8301 21.7447 38.9069 21.7231Z" fill="#F4F4F4"/>
<path d="M13.9428 38.2753C12.914 38.1562 12.6713 37.7304 12.3765 36.5765C12.2276 35.9973 12.0787 35.5774 11.8494 35.2484C11.5669 34.8364 11.1736 34.5127 10.7149 34.3148C10.6411 34.2832 10.5581 34.2811 10.4828 34.3087C10.4075 34.3364 10.3456 34.3919 10.3099 34.4637C10.292 34.4988 10.2812 34.537 10.2782 34.5763C10.2752 34.6155 10.28 34.655 10.2923 34.6924C10.3046 34.7297 10.3242 34.7643 10.35 34.7941C10.3758 34.8238 10.4072 34.8482 10.4424 34.8657C10.8077 35.0203 11.1216 35.2753 11.3477 35.6012C11.5601 35.9467 11.7055 36.3291 11.7765 36.7283C11.9343 37.3433 12.0847 37.8331 12.3929 38.189C12.7264 38.5954 13.2088 38.8217 13.9056 38.8917C13.9463 38.8967 13.9875 38.8932 14.0268 38.8815C14.066 38.8698 14.1024 38.8501 14.1337 38.8237C14.165 38.7973 14.1905 38.7647 14.2087 38.728C14.2268 38.6913 14.2372 38.6512 14.2391 38.6103C14.2436 38.5268 14.2151 38.4448 14.1596 38.3821C14.1042 38.3194 14.0263 38.2811 13.9428 38.2753Z" fill="#F4F4F4"/>
<path d="M40.6206 22.207C40.6089 22.1677 40.5893 22.1312 40.5628 22.0998C40.5364 22.0685 40.5038 22.0429 40.4671 22.0247C40.4303 22.0066 40.3902 21.9962 40.3492 21.9942C40.3083 21.9923 40.2673 21.9988 40.229 22.0134C40.1519 22.0441 40.0895 22.1032 40.0546 22.1786C40.0197 22.2539 40.0149 22.3397 40.0414 22.4184C40.36 23.41 40.0488 23.8016 39.1272 24.5386C38.734 24.8162 38.3924 25.1603 38.1177 25.5555C37.8579 25.9808 37.7217 26.4701 37.7247 26.9685C37.7238 27.0491 37.7545 27.1269 37.8101 27.1853C37.8657 27.2437 37.9419 27.2781 38.0224 27.2812C38.0622 27.2844 38.1021 27.2797 38.14 27.2672C38.1778 27.2547 38.2128 27.2347 38.2428 27.2085C38.2727 27.1823 38.2971 27.1502 38.3145 27.1144C38.3319 27.0785 38.342 27.0396 38.344 26.9998C38.3341 26.6034 38.4374 26.2124 38.6418 25.8727C38.8778 25.5443 39.1678 25.2583 39.4994 25.027C40.0176 24.6354 40.3749 24.2959 40.5953 23.8731C40.8171 23.4041 40.8454 22.8725 40.6206 22.207Z" fill="#F4F4F4"/>
<path d="M38.7037 24.506C38.7427 24.5015 38.7805 24.4894 38.8149 24.4703C38.8493 24.4512 38.8795 24.4254 38.9039 24.3946C38.9282 24.3637 38.9462 24.3283 38.9568 24.2904C38.9675 24.2526 38.9705 24.213 38.9657 24.1739C38.896 23.7829 38.9346 23.3803 39.0774 23.0096C39.2548 22.6459 39.4935 22.3155 39.7831 22.0329L39.9826 21.82C40.3057 21.4403 40.5588 21.0979 40.6735 20.7152C40.8224 20.2149 40.7553 19.6879 40.4308 19.067C40.4128 19.0303 40.3874 18.9977 40.3563 18.9712C40.3252 18.9447 40.289 18.9249 40.2499 18.913C40.2107 18.9012 40.1696 18.8975 40.129 18.9022C40.0884 18.9069 40.0493 18.9199 40.0139 18.9404C39.943 18.9839 39.8909 19.0523 39.868 19.1323C39.8451 19.2122 39.8531 19.2978 39.8903 19.3722C40.3712 20.2968 40.1271 20.7346 39.3364 21.6145L39.1548 21.82C38.8871 22.1027 38.6696 22.429 38.5116 22.7848C38.3254 23.2479 38.2738 23.7542 38.3627 24.2454C38.3762 24.3238 38.4188 24.3942 38.4821 24.4425C38.5453 24.4909 38.6244 24.5135 38.7037 24.506Z" fill="#F4F4F4"/>
<path d="M40.6907 15.3416C39.6129 12.205 37.771 9.38616 35.3312 7.1395C32.8914 4.89284 29.9306 3.28909 26.7159 2.473C24.5793 1.93655 22.3691 1.75497 20.1736 1.93551C17.9745 2.11271 15.8206 2.65674 13.8011 3.54503C11.783 4.4316 9.92554 5.64608 8.30405 7.13925C6.68603 8.63543 5.32226 10.3849 4.26616 12.3191C2.69155 15.238 1.86719 18.5026 1.86719 21.8191C1.86719 25.1356 2.69155 28.4002 4.26616 31.3191C5.32177 33.2536 6.6856 35.0032 8.30405 36.499C9.92621 37.992 11.7841 39.2065 13.8026 40.0932C15.8209 40.9817 17.974 41.5252 20.1722 41.7012C23.4765 41.9778 26.7977 41.4252 29.8344 40.0935C32.8712 38.7618 35.5275 36.6931 37.5625 34.075C38.9205 32.3378 39.9774 30.385 40.6892 28.2981C42.1299 24.1004 42.1299 19.5423 40.6892 15.3446L40.6907 15.3416ZM40.3036 28.1671C38.8872 32.2772 36.1448 35.8 32.5077 38.1814C28.8677 40.5618 24.5373 41.6593 20.2029 41.3001C15.8685 40.9408 11.778 39.1454 8.57951 36.1982C6.99371 34.7332 5.65748 33.0193 4.62348 31.124C3.08042 28.265 2.27253 25.0672 2.27253 21.8184C2.27253 18.5695 3.08042 15.3717 4.62348 12.5127C5.65774 10.6185 6.99339 8.90517 8.57802 7.43999C10.1669 5.97752 11.9865 4.78774 13.9634 3.91874C15.9407 3.04864 18.05 2.51616 20.2034 2.34347C22.3548 2.16501 24.5208 2.34208 26.6147 2.86757L26.2752 4.20758C25.9863 3.80111 25.7183 3.46314 25.3729 3.2666C24.9262 2.99413 24.3947 2.94053 23.7142 3.09836C23.6743 3.10806 23.6367 3.12567 23.6037 3.15014C23.5706 3.1746 23.5428 3.20543 23.5218 3.24081C23.5009 3.27619 23.4872 3.31539 23.4817 3.35613C23.4761 3.39687 23.4787 3.43831 23.4894 3.47802C23.5155 3.55647 23.57 3.62231 23.6422 3.66255C23.7144 3.70279 23.7991 3.71452 23.8795 3.69541C24.892 3.46165 25.2612 3.79218 25.9193 4.7823L26.0682 5.00862C26.2771 5.33582 26.5399 5.62529 26.8454 5.86474C27.2465 6.1624 27.7244 6.33909 28.2226 6.37395C28.302 6.38083 28.3809 6.35702 28.4433 6.30745C28.5056 6.25787 28.5465 6.18628 28.5576 6.10743C28.5633 6.06838 28.5612 6.0286 28.5513 5.9904C28.5415 5.95219 28.5241 5.91632 28.5003 5.88487C28.4765 5.85343 28.4467 5.82703 28.4125 5.80721C28.3784 5.7874 28.3407 5.77456 28.3016 5.76944C27.9062 5.74162 27.5263 5.6045 27.2043 5.37339C26.8939 5.11258 26.6315 4.7997 26.4285 4.44879L26.2796 4.20609L26.6161 2.86608C29.2361 3.53069 31.6899 4.73128 33.8225 6.39205C35.9551 8.05282 37.7202 10.1377 39.0064 12.515C40.2926 14.8924 41.0719 17.5106 41.2952 20.2044C41.5185 22.8981 41.1809 25.6089 40.3036 28.1656V28.1671Z" fill="#F4F4F4"/>
<path d="M37.3754 32.5281C37.7982 32.2303 38.0737 31.7703 38.1928 31.0764C38.2009 31.0365 38.2008 30.9954 38.1923 30.9555C38.1839 30.9157 38.1674 30.878 38.1438 30.8447C38.1202 30.8115 38.0901 30.7835 38.0552 30.7624C38.0204 30.7413 37.9815 30.7276 37.9412 30.7221C37.8586 30.7121 37.7753 30.7342 37.7086 30.7838C37.6418 30.8333 37.5966 30.9067 37.5824 30.9886C37.3918 32.013 36.9317 32.2095 35.7689 32.418L35.4949 32.4671C35.1129 32.5335 34.7429 32.657 34.3976 32.8334C33.9687 33.0876 33.6164 33.4528 33.3777 33.8905C33.341 33.9614 33.332 34.0434 33.3527 34.1206C33.3734 34.1977 33.4221 34.2643 33.4894 34.3074C33.5229 34.3285 33.5603 34.3427 33.5994 34.3492C33.6384 34.3557 33.6784 34.3544 33.717 34.3452C33.7555 34.3361 33.7918 34.3193 33.8238 34.296C33.8558 34.2726 33.8828 34.243 33.9033 34.2091C34.086 33.8561 34.3654 33.5622 34.7088 33.3619C34.9887 33.1952 35.355 33.1118 35.8627 33.0254L36.147 32.9748L37.2354 33.825L36.147 32.9733C36.5842 32.9168 37.0035 32.7648 37.3754 32.5281Z" fill="#F4F4F4"/>
<path d="M25.7108 39.6391C24.8279 40.187 24.3708 39.986 23.4313 39.2639C23.0655 38.9514 22.6484 38.7046 22.1985 38.5343C21.7218 38.3871 21.2137 38.3748 20.7304 38.4986C20.6532 38.5178 20.5862 38.5658 20.5433 38.6328C20.5003 38.6998 20.4847 38.7807 20.4997 38.8589C20.5063 38.8982 20.5207 38.9357 20.542 38.9693C20.5634 39.0029 20.5913 39.0319 20.6241 39.0545C20.6568 39.0771 20.6938 39.0929 20.7328 39.101C20.7717 39.1091 20.812 39.1093 20.851 39.1016C21.2337 38.9952 21.639 39.0014 22.0183 39.1195C22.331 39.2133 22.6422 39.4292 23.0486 39.7433C23.5519 40.1468 23.9688 40.4208 24.4333 40.522C24.9425 40.6322 25.4681 40.522 26.0563 40.1483C26.0917 40.1275 26.1225 40.0997 26.1467 40.0664C26.1708 40.0332 26.1878 39.9953 26.1966 39.9552C26.2055 39.915 26.2059 39.8735 26.1978 39.8332C26.1898 39.7929 26.1735 39.7547 26.15 39.721C26.1015 39.6534 26.0287 39.6071 25.9469 39.5919C25.8651 39.5766 25.7805 39.5935 25.7108 39.6391Z" fill="#F4F4F4"/>
<path d="M27.5167 39.8312C28.0408 39.8521 28.5336 39.6556 29.0562 39.188C29.0876 39.1616 29.1131 39.129 29.1313 39.0923C29.1495 39.0555 29.1599 39.0154 29.1618 38.9745C29.1638 38.9335 29.1573 38.8926 29.1427 38.8543C29.1281 38.816 29.1057 38.7811 29.077 38.7518C29.0172 38.6948 28.9383 38.6621 28.8557 38.6602C28.7731 38.6583 28.6928 38.6872 28.6304 38.7414C27.8546 39.4352 27.3678 39.3027 26.3211 38.7563L26.0769 38.6297L25.7479 37.3254L26.0769 38.6312C25.7369 38.4426 25.3682 38.3113 24.9855 38.2426C24.491 38.1747 23.9874 38.2475 23.5323 38.4525C23.4578 38.4824 23.398 38.5403 23.3658 38.6138C23.3335 38.6873 23.3313 38.7705 23.3596 38.8456C23.3731 38.8827 23.3938 38.9168 23.4205 38.9459C23.4472 38.975 23.4795 38.9984 23.5154 39.0149C23.5513 39.0314 23.5901 39.0406 23.6295 39.042C23.669 39.0433 23.7084 39.0368 23.7453 39.0228C24.1064 38.859 24.5058 38.7987 24.8992 38.8486C25.2958 38.9318 25.6751 39.0829 26.0203 39.2952L26.2749 39.4337C26.6571 39.6502 27.0798 39.7856 27.5167 39.8312Z" fill="#F4F4F4"/>
<path d="M19.7161 39.9355C18.7022 40.1707 18.3359 39.8327 17.6793 38.8441C17.3458 38.3423 17.0703 37.9984 16.7473 37.7602C16.3466 37.4635 15.8701 37.2865 15.373 37.2495C15.2938 37.2418 15.2146 37.2648 15.152 37.3139C15.0893 37.363 15.048 37.4343 15.0365 37.513C15.0306 37.5522 15.0326 37.5921 15.0424 37.6305C15.0521 37.6689 15.0694 37.7049 15.0932 37.7365C15.1171 37.7681 15.147 37.7947 15.1812 37.8146C15.2155 37.8345 15.2533 37.8474 15.2926 37.8525C15.6883 37.8832 16.0682 38.0211 16.3914 38.2515C16.6996 38.5128 16.9601 38.8256 17.1612 39.1761C17.5081 39.7151 17.8148 40.1156 18.2198 40.3673C18.6664 40.6397 19.1965 40.6963 19.8769 40.5385C19.9176 40.5305 19.9561 40.514 19.99 40.4903C20.024 40.4665 20.0526 40.4359 20.074 40.4004C20.0955 40.365 20.1093 40.3255 20.1146 40.2844C20.1198 40.2433 20.1165 40.2015 20.1047 40.1618C20.0795 40.0826 20.0259 40.0156 19.954 39.9737C19.8822 39.9319 19.7974 39.9183 19.7161 39.9355Z" fill="#F4F4F4"/>
<path d="M16.7991 39.3564C15.7568 39.4248 15.4591 39.0228 14.9662 37.9508L14.8531 37.6977C14.6951 37.3429 14.4843 37.0141 14.2277 36.7225C13.8792 36.3667 13.4384 36.1151 12.9548 35.9959C12.8776 35.9749 12.7953 35.9845 12.7251 36.0228C12.6548 36.0611 12.6022 36.1251 12.5781 36.2014C12.5654 36.2391 12.5604 36.2789 12.5633 36.3186C12.5663 36.3583 12.5772 36.397 12.5954 36.4324C12.6136 36.4678 12.6387 36.4992 12.6692 36.5247C12.6997 36.5502 12.735 36.5694 12.7731 36.581C13.1597 36.6718 13.5127 36.87 13.7915 37.1528C14.0193 37.388 14.1935 37.7156 14.402 38.195L14.5211 38.4585C14.6854 38.867 14.9346 39.236 15.2521 39.541C15.6541 39.8745 16.1633 40.0293 16.8631 39.9742C16.9036 39.9722 16.9432 39.962 16.9796 39.9441C17.016 39.9263 17.0484 39.9012 17.0747 39.8704C17.1011 39.8396 17.1209 39.8037 17.1329 39.765C17.1449 39.7263 17.1488 39.6855 17.1445 39.6452C17.1358 39.5616 17.0949 39.4846 17.0304 39.4307C16.9659 39.3768 16.8829 39.3501 16.7991 39.3564Z" fill="#F4F4F4"/>
<path d="M22.7637 40.0367C21.8034 40.4223 21.388 40.1618 20.5736 39.2923L20.3845 39.0913C20.1205 38.8071 19.8141 38.5655 19.4762 38.3751C19.0301 38.1531 18.5314 38.0583 18.035 38.1011C17.9552 38.1079 17.881 38.1447 17.8274 38.2042C17.7738 38.2636 17.7447 38.3412 17.7461 38.4212C17.7461 38.4614 17.7542 38.5011 17.7699 38.538C17.7856 38.575 17.8086 38.6083 17.8375 38.6361C17.8665 38.6639 17.9007 38.6856 17.9382 38.6999C17.9757 38.7141 18.0157 38.7206 18.0558 38.719C18.5159 38.7027 18.8777 38.7473 19.2038 38.9334C19.5016 39.0823 19.7696 39.3265 20.1209 39.7121L20.316 39.9206C20.6689 40.2898 20.9875 40.5578 21.3582 40.7022C21.8451 40.9018 22.3766 40.8645 23.0183 40.595C23.0569 40.5804 23.0921 40.5578 23.1215 40.5289C23.1509 40.4999 23.174 40.4651 23.1892 40.4268C23.2045 40.3884 23.2116 40.3473 23.2101 40.306C23.2087 40.2648 23.1986 40.2243 23.1807 40.1871C23.144 40.1131 23.0801 40.0561 23.0024 40.0281C22.9247 40.0001 22.8392 40.0032 22.7637 40.0367Z" fill="#F4F4F4"/>
<path d="M25.6154 4.93133C25.1539 4.94324 24.7906 4.90454 24.4675 4.71694C24.1697 4.56805 23.9032 4.32386 23.5518 3.93228C23.1185 3.46625 22.7523 3.1104 22.313 2.94216C21.8262 2.74264 21.2946 2.77839 20.6529 3.0449C20.6143 3.05957 20.5792 3.08211 20.5498 3.11108C20.5203 3.14004 20.4973 3.1748 20.482 3.21316C20.4668 3.25153 20.4596 3.29266 20.4611 3.33392C20.4626 3.37518 20.4726 3.41569 20.4906 3.45286C20.5275 3.52697 20.5918 3.58387 20.6698 3.61164C20.7478 3.6394 20.8335 3.63586 20.909 3.60175C21.8708 3.21612 22.2862 3.47966 23.0947 4.3462C23.5071 4.79287 23.8392 5.07873 24.1935 5.26186C24.6385 5.48605 25.1369 5.58245 25.6333 5.54031C25.7131 5.53352 25.7873 5.49667 25.8409 5.43724C25.8945 5.3778 25.9236 5.30023 25.9221 5.22019C25.921 5.18108 25.9121 5.14257 25.8961 5.10688C25.88 5.0712 25.8571 5.03902 25.8286 5.01219C25.8002 4.98537 25.7667 4.96442 25.7301 4.95054C25.6935 4.93667 25.6545 4.93014 25.6154 4.93133Z" fill="#F4F4F4"/>
<path d="M33.1643 8.75177C32.7474 8.5463 32.454 8.3304 32.256 8.01624C32.0431 7.67072 31.8967 7.28847 31.8242 6.88915L31.7498 6.6152C31.6143 6.12683 31.4639 5.73525 31.2033 5.42407C30.8713 5.0176 30.3874 4.79276 29.6906 4.72427C29.6497 4.71909 29.6082 4.72246 29.5687 4.73414C29.5292 4.74583 29.4925 4.76559 29.461 4.79218C29.4295 4.81877 29.4039 4.85161 29.3858 4.88861C29.3676 4.92562 29.3574 4.96599 29.3556 5.00717C29.3531 5.09002 29.3827 5.17065 29.4381 5.23223C29.4936 5.29382 29.5707 5.3316 29.6534 5.3377C30.6852 5.45384 30.9264 5.88264 31.2257 7.03357L31.2972 7.2986C31.3921 7.67453 31.5463 8.0329 31.7542 8.36019C32.0383 8.77064 32.4319 9.09307 32.8903 9.29076C32.9643 9.32169 33.0473 9.32354 33.1227 9.29594C33.198 9.26833 33.2602 9.21331 33.2967 9.14187C33.3292 9.0723 33.3335 8.99289 33.3089 8.9202C33.2842 8.84752 33.2324 8.78718 33.1643 8.75177Z" fill="#F4F4F4"/>
<path d="M30.8906 7.07823C30.5039 6.9879 30.1511 6.78903 29.8737 6.505C29.6459 6.26975 29.4731 5.93922 29.2662 5.46277C29.016 4.8672 28.7748 4.43244 28.419 4.12275C28.0185 3.78924 27.5093 3.62991 26.8095 3.685C26.7687 3.68661 26.7288 3.69658 26.692 3.71427C26.6553 3.73195 26.6226 3.75699 26.5959 3.78784C26.5693 3.81869 26.5492 3.85469 26.537 3.8936C26.5249 3.93251 26.5208 3.97352 26.5251 4.01406C26.5356 4.09713 26.5776 4.17297 26.6424 4.22591C26.7073 4.27885 26.79 4.30482 26.8735 4.29843C27.9158 4.23143 28.2135 4.63343 28.7004 5.70842C28.8734 6.15695 29.1223 6.57243 29.4359 6.93677C29.7845 7.29344 30.2252 7.54649 30.7089 7.66783C30.7859 7.6888 30.868 7.6791 30.938 7.64078C31.008 7.60246 31.0603 7.53851 31.0841 7.46236C31.0975 7.42447 31.1032 7.38428 31.1006 7.34416C31.0981 7.30405 31.0874 7.26486 31.0694 7.22897C31.0513 7.19308 31.0261 7.16122 30.9954 7.13531C30.9647 7.10941 30.929 7.08999 30.8906 7.07823Z" fill="#F4F4F4"/>
<path d="M7.18072 19.3721C6.63862 22.6293 7.19374 25.9743 8.75894 28.8817C9.5461 30.3211 10.5619 31.6229 11.7665 32.7365C12.9717 33.8506 14.354 34.7563 15.8566 35.4165C17.3556 36.077 18.9553 36.4797 20.5883 36.6077C22.2239 36.7449 23.871 36.6111 25.463 36.2116C27.8526 35.6035 30.0534 34.4105 31.8671 32.74C33.6808 31.0695 35.0504 28.9741 35.8526 26.6424C36.9246 23.5188 36.9246 20.1269 35.8526 17.0033C35.3229 15.4524 34.5368 14.0014 33.5269 12.7107C32.0159 10.7598 30.0403 9.21837 27.7805 8.22721C25.5206 7.23604 23.0485 6.82668 20.5898 7.03652C18.9566 7.16622 17.3567 7.56884 15.8566 8.22764C14.3554 8.88962 12.9739 9.79517 11.768 10.9077C10.5632 12.0217 9.54746 13.3241 8.76043 14.7639C7.98444 16.2029 7.45074 17.7597 7.18072 19.3721ZM21.8181 8.0996C24.5319 8.0993 27.1848 8.90377 29.4413 10.4113C31.6978 11.9187 33.4566 14.0615 34.4952 16.5687C35.5339 19.0758 35.8057 21.8346 35.2763 24.4962C34.747 27.1578 33.4402 29.6027 31.5213 31.5216C29.6024 33.4405 27.1576 34.7472 24.4959 35.2766C21.8343 35.8059 19.0755 35.5341 16.5684 34.4955C14.0613 33.4568 11.9185 31.698 10.411 29.4415C8.90354 27.185 8.09907 24.5321 8.09937 21.8184C8.1037 18.1813 9.55045 14.6943 12.1223 12.1225C14.6941 9.55068 18.181 8.10393 21.8181 8.0996Z" fill="#F4F4F4"/>
<path d="M10.9892 10.0532C9.6909 11.2531 8.59708 12.6567 7.7508 14.2088C6.48882 16.5472 5.82812 19.1628 5.82812 21.82C5.82812 24.4773 6.48882 27.0929 7.7508 29.4313C8.59739 30.9828 9.69119 32.3858 10.9892 33.5854C13.6034 35.9971 16.9494 37.4647 20.4944 37.7543C22.2565 37.8993 24.0305 37.7544 25.7457 37.3255C29.1939 36.4483 32.2517 34.4476 34.4365 31.6394C35.5259 30.2487 36.373 28.6842 36.9423 27.0119C38.0996 23.6474 38.0996 19.9927 36.9423 16.6282C36.3727 14.956 35.5256 13.3916 34.4365 12.0007C32.8078 9.89929 30.6791 8.23889 28.2444 7.17082C25.8098 6.10275 23.1465 5.66098 20.4973 5.88577C18.737 6.02618 17.0127 6.46102 15.3963 7.17219C13.7788 7.8835 12.2897 8.85693 10.9892 10.0532ZM20.5301 6.29224C22.2473 6.14984 23.9762 6.2912 25.6475 6.71063C28.1567 7.34997 30.4677 8.6032 32.3722 10.3576C34.2768 12.1119 35.7153 14.3123 36.5581 16.7607C37.6847 20.0416 37.6847 23.6045 36.5581 26.8853C36.0016 28.5142 35.1757 30.0381 34.1149 31.3937C32.5277 33.4416 30.4531 35.0595 28.0802 36.0998C25.7073 37.1401 23.1116 37.5697 20.5301 37.3493C18.8145 37.2136 17.1339 36.7903 15.5586 36.0972C13.9832 35.4027 12.5325 34.454 11.2646 33.2891C10.0002 32.1195 8.93412 30.7522 8.10816 29.2407C7.29063 27.7271 6.72962 26.0885 6.44801 24.3914C6.01659 21.8362 6.23162 19.2136 7.07345 16.7627C7.91527 14.3119 9.35714 12.1108 11.2676 10.3599C12.5333 9.19292 13.9838 8.244 15.5601 7.55185C17.1348 6.8559 18.8155 6.43008 20.5316 6.29224H20.5301Z" fill="#F4F4F4"/>
<path d="M21.8184 0C9.78804 0 0 9.78807 0 21.8184C0 33.8488 9.78804 43.6383 21.8184 43.6383C33.8488 43.6383 43.6383 33.8503 43.6383 21.8184C43.6383 9.78658 33.8502 0 21.8184 0ZM38.1353 34.5277C36.3797 36.7858 34.1745 38.655 31.6592 40.017C29.144 41.379 26.3734 42.2041 23.5229 42.4402C20.6723 42.6763 17.8038 42.3182 15.0987 41.3886C12.3937 40.4589 9.91105 38.978 7.80781 37.0395C6.13091 35.4923 4.71772 33.6818 3.62397 31.6795C1.99112 28.6537 1.13624 25.2693 1.13624 21.8311C1.13624 18.3928 1.99112 15.0085 3.62397 11.9827C4.71834 9.98033 6.13203 8.16987 7.8093 6.62265C11.1937 3.50155 15.525 1.60264 20.1136 1.22835C22.3893 1.0399 24.6806 1.22701 26.8956 1.78222C30.2284 2.62571 33.2984 4.28683 35.8277 6.61527C38.3571 8.94372 40.266 11.866 41.3818 15.1178C42.4976 18.3696 42.7851 21.8483 42.2182 25.2392C41.6514 28.63 40.2481 31.8261 38.1353 34.5381V34.5277Z" fill="#F4F4F4"/>
<path d="M16.7108 30.6074L17.3197 29.5786L17.5818 29.7379C18.2062 30.1054 18.8733 30.3954 19.568 30.6015C20.3089 30.8351 21.081 30.9551 21.8579 30.9573C23.4957 30.9573 24.8789 30.469 25.9777 29.5056C27.0765 28.5423 27.6155 27.3422 27.6155 25.8519C27.6267 25.2955 27.5416 24.7414 27.3639 24.2141C27.1915 23.744 26.929 23.312 26.5911 22.9425C26.2567 22.5881 25.8737 22.2828 25.4536 22.0358C24.9987 21.7653 24.5267 21.5245 24.0406 21.3152C23.4987 21.0754 22.9299 20.8491 22.3477 20.6392C21.7656 20.4293 21.1388 20.1642 20.5238 19.8709C19.8585 19.5748 19.2798 19.1135 18.8429 18.5309C18.4483 17.9756 18.2473 17.2728 18.2473 16.4464C18.2437 16.0517 18.3259 15.6609 18.4881 15.301C18.6503 14.9411 18.8887 14.6207 19.1868 14.362C19.7951 13.804 20.5949 13.5017 21.4202 13.5178C22.1326 13.4976 22.8384 13.6601 23.4704 13.9898C24.0242 14.298 24.5055 14.7214 24.8819 15.2315C25.2734 15.7701 25.5886 16.3604 25.8184 16.9854C26.0253 17.5438 26.2144 18.1289 26.3842 18.7289H26.8591L26.7698 13.4374H26.2368L25.6516 14.4051L25.3911 14.2414C24.8457 13.9038 24.2694 13.6191 23.6699 13.3912C23.003 13.145 22.2963 13.0244 21.5854 13.0354C20.916 13.0341 20.2518 13.1531 19.6245 13.3867C19.0294 13.602 18.4803 13.9279 18.0061 14.3471C17.5428 14.7586 17.1666 15.2588 16.8999 15.8181C16.6427 16.3684 16.5115 16.9691 16.5157 17.5765C16.5157 18.6813 16.7748 19.5821 17.287 20.2565C17.8736 20.9935 18.6367 21.5706 19.5054 21.9345C20.0102 22.1653 20.6132 22.4125 21.3025 22.6701C21.9919 22.9276 22.6306 23.1718 23.1756 23.3877C23.9632 23.6784 24.6401 24.2085 25.1112 24.9034C25.5358 25.5411 25.7621 26.2902 25.7618 27.0564C25.769 27.5265 25.6976 27.9945 25.5504 28.4411C25.4095 28.8638 25.1705 29.2472 24.853 29.5598C24.5355 29.8725 24.1484 30.1054 23.7235 30.2397C23.2045 30.411 22.6604 30.4935 22.114 30.4838C21.3673 30.4982 20.6277 30.3365 19.9551 30.0119C19.3422 29.7037 18.7948 29.28 18.3426 28.7642C17.8741 28.2326 17.4845 27.6364 17.1857 26.9938C16.9112 26.3925 16.6822 25.7714 16.5008 25.1357H16.0273L16.1852 30.6149L16.7108 30.6074Z" fill="#F4F4F4"/>
</svg>
