<svg width="30" height="30" viewBox="0 0 30 30" fill="none" xmlns="http://www.w3.org/2000/svg">
<rect x="0.5" y="0.5" width="29" height="29" rx="9.5" stroke="#E6B022"/>
<path fillRule="evenodd" clipRule="evenodd" d="M18.7699 10.9087C18.7627 10.9087 18.7569 10.8795 18.7569 10.8437C18.7569 10.8079 18.751 10.7787 18.7439 10.7787C18.7367 10.7787 18.7309 10.7673 18.7309 10.7539C18.7309 10.7273 18.6788 10.619 18.6626 10.6115C18.6592 10.6088 18.6566 10.6053 18.6549 10.6014C18.6532 10.5974 18.6525 10.5931 18.6528 10.5888C18.6528 10.5787 18.647 10.5706 18.6398 10.5706C18.6327 10.5706 18.6268 10.5618 18.6268 10.5511C18.6268 10.5403 18.621 10.5315 18.6138 10.5315C18.6101 10.5312 18.6067 10.5295 18.6043 10.5267C18.6019 10.5239 18.6006 10.5203 18.6008 10.5166C18.5949 10.4999 18.5843 10.4852 18.5702 10.4743C18.487 10.3992 18.4568 10.3768 18.4447 10.3768C18.4413 10.3768 18.438 10.3754 18.4355 10.373C18.4331 10.3705 18.4317 10.3672 18.4317 10.3638C18.4317 10.3566 18.423 10.3508 18.4122 10.3508C18.4015 10.3508 18.3927 10.3449 18.3927 10.3378C18.3927 10.3306 18.3839 10.3248 18.3732 10.3248C18.3625 10.3248 18.3537 10.3189 18.3537 10.3117C18.3537 10.3046 18.3423 10.2987 18.3283 10.2987C18.3223 10.2989 18.3163 10.2979 18.3107 10.2956C18.3051 10.2934 18.3 10.29 18.2958 10.2857C18.2904 10.281 18.2841 10.2775 18.2773 10.2752C18.2705 10.273 18.2633 10.2722 18.2562 10.2727C18.2386 10.2727 18.2236 10.2669 18.2236 10.2597C18.2236 10.2526 18.1944 10.2467 18.1586 10.2467C18.1228 10.2467 18.0936 10.2409 18.0936 10.2337C18.0936 10.2266 18.0461 10.2207 17.9775 10.2207C17.9089 10.2207 17.8575 10.2266 17.853 10.2337C17.8354 10.2443 17.8148 10.2488 17.7944 10.2467C17.774 10.2447 17.7535 10.2492 17.7359 10.2597C17.7305 10.2644 17.7242 10.268 17.7174 10.2702C17.7106 10.2724 17.7034 10.2733 17.6962 10.2727C17.6787 10.2727 17.6637 10.2786 17.6637 10.2857C17.6632 10.2897 17.6611 10.2932 17.6579 10.2957C17.6548 10.2981 17.6508 10.2992 17.6468 10.2987C17.6231 10.2987 17.56 10.3293 17.5597 10.341C17.5597 10.3462 17.5509 10.3508 17.5402 10.3508C17.5328 10.3523 17.5258 10.3555 17.5197 10.3599C17.5135 10.3644 17.5085 10.3702 17.5047 10.3768C17.4956 10.3911 17.4823 10.4028 17.4745 10.4028C17.442 10.4028 17.3064 10.5563 17.2726 10.6336C17.2625 10.6567 17.2498 10.6759 17.2443 10.6759C17.2388 10.6759 17.2345 10.6847 17.2345 10.6954C17.2335 10.7101 17.2296 10.7245 17.2232 10.7377C17.1972 10.7926 17.1834 10.8525 17.1825 10.9133C17.1828 10.9447 17.1786 10.976 17.1702 11.0063C17.162 11.0274 17.162 11.0417 17.1702 11.0469C17.1811 11.0758 17.1853 11.1068 17.1825 11.1376C17.1797 11.1686 17.1841 11.1997 17.1955 11.2287C17.2056 11.2418 17.2102 11.2583 17.2085 11.2748C17.2085 11.296 17.2144 11.3132 17.2215 11.3132C17.2287 11.3132 17.2345 11.3243 17.2345 11.3379C17.2345 11.3675 17.2869 11.468 17.3022 11.468C17.3052 11.4684 17.308 11.47 17.31 11.4724C17.3119 11.4748 17.3129 11.4779 17.3126 11.481C17.3126 11.4982 17.5031 11.6891 17.5207 11.6891C17.5241 11.6891 17.5274 11.6904 17.5299 11.6929C17.5323 11.6953 17.5337 11.6986 17.5337 11.7021C17.5337 11.7092 17.5425 11.7151 17.5532 11.7151C17.5639 11.7151 17.5727 11.7209 17.5727 11.7281C17.5727 11.7352 17.5844 11.7411 17.5987 11.7411C17.613 11.7411 17.6247 11.7469 17.6247 11.7541C17.6247 11.7613 17.6361 11.7671 17.6501 11.7671C17.6561 11.7669 17.6621 11.7679 17.6677 11.7702C17.6733 11.7724 17.6784 11.7758 17.6826 11.7801C17.696 11.79 17.7125 11.7946 17.7291 11.7931C17.7499 11.7931 17.7671 11.799 17.7671 11.8061C17.7671 11.8133 17.8058 11.8191 17.8575 11.8191C17.8907 11.8161 17.9241 11.8209 17.9551 11.8331C17.9616 11.8435 17.9677 11.8435 17.9781 11.8331C18.0107 11.8214 18.0454 11.8166 18.0799 11.8191C18.1124 11.8221 18.145 11.8176 18.1755 11.8061C18.1798 11.8018 18.1848 11.7985 18.1904 11.7962C18.196 11.794 18.202 11.7929 18.208 11.7931C18.2258 11.7921 18.2433 11.7877 18.2594 11.7801L18.3111 11.7541C18.3253 11.7469 18.3408 11.7425 18.3566 11.7411C18.3674 11.7411 18.3761 11.7352 18.3761 11.7281C18.3766 11.7242 18.3786 11.7207 18.3816 11.7182C18.3846 11.7157 18.3885 11.7145 18.3924 11.7148C18.422 11.7148 18.5972 11.5597 18.5972 11.534C18.5969 11.5307 18.5978 11.5274 18.5998 11.5248C18.6018 11.5222 18.6047 11.5205 18.608 11.52C18.6141 11.52 18.6271 11.5037 18.6372 11.4842C18.6444 11.4695 18.6528 11.4554 18.6623 11.442C18.682 11.4174 18.6954 11.3884 18.7013 11.3574C18.7013 11.3467 18.7071 11.3379 18.7143 11.3379C18.7214 11.3379 18.7273 11.3236 18.7273 11.3054C18.7267 11.2982 18.7275 11.2911 18.7297 11.2842C18.732 11.2774 18.7356 11.2711 18.7403 11.2657C18.7508 11.2481 18.7554 11.2276 18.7533 11.2072C18.7512 11.1868 18.7557 11.1662 18.7663 11.1487C18.7735 11.1441 18.7793 11.0882 18.7793 11.0241C18.7793 10.9601 18.7777 10.9087 18.7699 10.9087Z" fill="#191919"/>
<path fillRule="evenodd" clipRule="evenodd" d="M20.9815 17.3265L20.9838 17.3233C20.9968 17.3103 21.0001 16.724 21.0001 14.4795C21.0001 12.235 20.9968 11.6485 20.9838 11.6358C20.9708 11.6231 20.9676 11.5753 20.9676 11.4862C20.9676 11.4114 20.962 11.3497 20.9546 11.3451C20.9431 11.314 20.9386 11.2806 20.9415 11.2476C20.9445 11.2145 20.9401 11.1812 20.9285 11.15C20.9174 11.1256 20.9129 11.0987 20.9155 11.072C20.9182 11.0453 20.9137 11.0183 20.9025 10.9939C20.8918 10.9741 20.8873 10.9514 20.8895 10.9289C20.8919 10.9064 20.8873 10.8837 20.8765 10.8639C20.8659 10.846 20.8614 10.8251 20.8635 10.8044C20.8635 10.7764 20.8577 10.7533 20.8505 10.7533C20.8434 10.7533 20.8375 10.7299 20.8375 10.7013C20.8375 10.6727 20.8316 10.6493 20.8245 10.6493C20.8173 10.6493 20.8115 10.6291 20.8115 10.6044C20.8134 10.5859 20.8088 10.5673 20.7985 10.5517C20.7938 10.5464 20.7903 10.5402 20.7881 10.5335C20.7858 10.5268 20.785 10.5198 20.7855 10.5127C20.7861 10.5057 20.7852 10.4986 20.783 10.4919C20.7808 10.4852 20.7772 10.479 20.7725 10.4737C20.763 10.4626 20.7583 10.4482 20.7595 10.4337C20.7595 10.4165 20.7543 10.4012 20.7481 10.4012C20.7419 10.4012 20.7335 10.3752 20.7292 10.343C20.7219 10.3017 20.7099 10.2613 20.6935 10.2227C20.6782 10.1902 20.6609 10.1489 20.6557 10.1346C20.6082 10.0263 20.555 9.9206 20.4964 9.81789C20.4909 9.81562 20.4863 9.80261 20.4863 9.78863C20.4863 9.77465 20.4805 9.76392 20.4733 9.76392C20.4662 9.76392 20.4603 9.75611 20.4603 9.74668C20.456 9.72958 20.447 9.71403 20.4343 9.70181C20.4211 9.6887 20.412 9.67195 20.4083 9.65369C20.4083 9.64296 20.4025 9.63386 20.3953 9.63386C20.3881 9.63386 20.3823 9.62508 20.3823 9.61435C20.3823 9.60362 20.3764 9.59484 20.3693 9.59484C20.3621 9.59484 20.3563 9.58606 20.3563 9.57533C20.3563 9.5646 20.3517 9.55582 20.3465 9.55582C20.3289 9.54168 20.3145 9.52394 20.3043 9.5038C20.2942 9.48363 20.2799 9.46588 20.2623 9.45178C20.2568 9.45178 20.2522 9.44332 20.2522 9.43324C20.2526 9.42894 20.2519 9.4246 20.2502 9.42063C20.2485 9.41665 20.2459 9.41317 20.2425 9.41048C20.2005 9.36776 20.1625 9.32141 20.1287 9.27197C19.9981 9.13016 19.8602 8.99515 19.7157 8.86749C19.692 8.85288 19.6711 8.83416 19.654 8.81221C19.6536 8.80914 19.6521 8.80631 19.6498 8.80431C19.6474 8.80231 19.6444 8.8013 19.6413 8.80148C19.6086 8.78757 19.5795 8.76645 19.5561 8.7397C19.5473 8.73088 19.5359 8.72516 19.5236 8.72345C19.5218 8.72353 19.52 8.72326 19.5184 8.72265C19.5167 8.72204 19.5151 8.7211 19.5138 8.71989C19.5125 8.71868 19.5115 8.71722 19.5108 8.7156C19.51 8.71397 19.5096 8.71222 19.5096 8.71044C19.5096 8.70869 19.5092 8.70696 19.5085 8.70536C19.5078 8.70376 19.5067 8.70232 19.5055 8.70111C19.5042 8.6999 19.5027 8.69895 19.5011 8.69832C19.4994 8.69769 19.4977 8.69739 19.4959 8.69743C19.4802 8.6924 19.466 8.68345 19.4546 8.67142C19.4424 8.65877 19.4269 8.64977 19.4098 8.64541C19.4003 8.64541 19.3925 8.63956 19.3925 8.63241C19.392 8.62846 19.3899 8.62489 19.3867 8.62246C19.3836 8.62003 19.3796 8.61894 19.3756 8.6194C19.3585 8.61499 19.3429 8.606 19.3304 8.59339C19.3174 8.58018 19.3008 8.57112 19.2826 8.56738C19.2716 8.56738 19.2625 8.56282 19.2625 8.55762C19.2437 8.53966 19.2216 8.52553 19.1975 8.516C19.173 8.50669 19.1509 8.49228 19.1324 8.47373C19.1324 8.46788 19.1207 8.46333 19.1064 8.46333C19.0921 8.46333 19.0804 8.45748 19.0804 8.45032C19.0804 8.44317 19.0716 8.43732 19.0609 8.43732C19.0462 8.43631 19.0318 8.43233 19.0186 8.42561L18.9568 8.39635C18.9408 8.38974 18.9256 8.38145 18.9113 8.37164C18.8906 8.36082 18.8688 8.35231 18.8463 8.34628C18.8236 8.34025 18.8018 8.3314 18.7813 8.31994C18.7252 8.29396 18.6656 8.27653 18.6044 8.26824C18.5872 8.26824 18.5719 8.26239 18.5719 8.25523C18.5719 8.24808 18.5543 8.24223 18.5329 8.24223C18.5114 8.24223 18.4938 8.23638 18.4938 8.22922C18.4938 8.22207 18.4763 8.21622 18.4548 8.21622C18.4334 8.21622 18.4158 8.21036 18.4158 8.20321C18.4158 8.19606 18.3953 8.19021 18.3703 8.19021C18.3452 8.19021 18.3248 8.18435 18.3248 8.1772C18.3248 8.17005 18.3014 8.16419 18.2727 8.16419C18.2441 8.16419 18.2207 8.15834 18.2207 8.15119C18.2207 8.14403 18.1973 8.13818 18.1687 8.13818C18.1401 8.13818 18.1167 8.13233 18.1167 8.12518C18.1167 8.11802 18.0842 8.11217 18.0451 8.11217C18.0061 8.11217 17.9736 8.10632 17.9736 8.09916C17.9736 8.09201 17.9411 8.08616 17.9027 8.08616C17.8758 8.08876 17.8487 8.08427 17.824 8.07315C17.7929 8.06176 17.7596 8.05732 17.7265 8.06015C17.6748 8.06015 17.6361 8.05462 17.6361 8.04714C17.6361 8.03966 17.5851 8.03413 17.5086 8.03413C17.4241 8.03413 17.3757 8.02861 17.3649 8.01788C17.3542 8.00715 12.715 7.99187 11.9229 8.0052C11.8314 8.00361 11.7399 8.00915 11.6492 8.02178C11.603 8.03316 11.5555 8.03798 11.5081 8.03609C11.4632 8.03383 11.4183 8.03832 11.3747 8.04942C11.3527 8.05949 11.3283 8.06353 11.3042 8.06112C11.2804 8.05869 11.2563 8.06239 11.2343 8.07185C11.2301 8.07547 11.2248 8.07774 11.2193 8.07835C11.2411 8.0712 11.2395 8.06112 11.2089 8.06112C11.1897 8.06112 11.1741 8.06697 11.1741 8.0738C11.1741 8.08063 11.1803 8.08258 11.1894 8.08323C11.164 8.08648 11.127 8.08908 11.0785 8.09136C11.0785 8.08973 11.0704 8.08973 11.0538 8.09136C11.0372 8.09299 11.0181 8.09786 11.0181 8.10339C11.0181 8.10892 11.022 8.11315 11.0307 8.11184C11.0167 8.11567 11.002 8.1171 10.9875 8.11607C10.9876 8.11542 10.9876 8.11477 10.9875 8.11412L10.9846 8.11607H10.9748C10.9501 8.11184 10.9147 8.1307 10.9228 8.14403C10.9267 8.15054 10.9228 8.15346 10.9163 8.15281C10.9221 8.15281 10.9244 8.14696 10.9215 8.14208C10.9186 8.13721 10.9215 8.12713 10.9306 8.12355C10.9397 8.11997 10.94 8.11672 10.9264 8.11607C10.916 8.11519 10.9057 8.11782 10.8971 8.12355C10.8873 8.1333 10.8864 8.14306 10.8922 8.14891C10.8844 8.14891 10.8805 8.14891 10.8825 8.15444C10.8717 8.13656 10.7882 8.13786 10.7823 8.15444C10.7797 8.16224 10.756 8.16875 10.7293 8.16875C10.7027 8.16875 10.6809 8.17395 10.6809 8.18045C10.6809 8.18695 10.6604 8.19216 10.6354 8.19216C10.6103 8.19216 10.5898 8.19801 10.5898 8.20516C10.5898 8.21232 10.5694 8.21817 10.5443 8.21817C10.5193 8.21817 10.4988 8.22402 10.4988 8.23117C10.4988 8.23833 10.4842 8.24418 10.4663 8.24418C10.4484 8.24418 10.4338 8.25003 10.4338 8.25719C10.4338 8.26434 10.4162 8.27019 10.3948 8.27019C10.3733 8.27019 10.3557 8.27669 10.3557 8.2845C10.3557 8.2923 10.3466 8.29523 10.3352 8.291C10.3186 8.28764 10.3013 8.29041 10.2865 8.2988C10.2731 8.30708 10.2577 8.31137 10.2419 8.31116C10.2332 8.30953 10.2257 8.31409 10.2257 8.32156C10.2257 8.32904 10.2114 8.33522 10.1932 8.33522C10.1787 8.33413 10.1645 8.33881 10.1535 8.34823C10.1493 8.35253 10.1442 8.3559 10.1386 8.35814C10.133 8.36038 10.127 8.36143 10.121 8.36123C10.107 8.36123 10.0956 8.36709 10.0956 8.37424C10.0956 8.38139 10.0842 8.38724 10.0703 8.38724C10.0642 8.38705 10.0582 8.3881 10.0526 8.39034C10.047 8.39258 10.042 8.39595 10.0377 8.40025C10.0335 8.40457 10.0285 8.40795 10.0229 8.41019C10.0173 8.41243 10.0113 8.41348 10.0052 8.41326C9.99124 8.41326 9.97986 8.41911 9.97986 8.42626C9.97986 8.43342 9.96816 8.43927 9.95385 8.43927C9.93954 8.43927 9.92784 8.44512 9.92784 8.45227C9.92784 8.45943 9.91613 8.46528 9.90183 8.46528C9.88752 8.46528 9.87582 8.47113 9.87582 8.47829C9.87582 8.48544 9.86541 8.49129 9.85273 8.49129C9.84434 8.49257 9.8363 8.49553 9.82909 8.5C9.82188 8.50447 9.81566 8.51036 9.81079 8.5173C9.80592 8.52425 9.79969 8.53014 9.79248 8.53461C9.78527 8.53908 9.77723 8.54204 9.76884 8.54332C9.75616 8.54332 9.74576 8.54917 9.74576 8.55632C9.74576 8.56347 9.73405 8.56933 9.71975 8.56933C9.70544 8.56933 9.69373 8.57518 9.69373 8.58233C9.69317 8.58628 9.69108 8.58984 9.68792 8.59227C9.68477 8.5947 9.68078 8.5958 9.67683 8.59534C9.65962 8.5996 9.64396 8.60862 9.63163 8.62135C9.61941 8.63406 9.60386 8.64307 9.58676 8.64736C9.57186 8.65113 9.55896 8.66043 9.55067 8.67337C9.54228 8.6865 9.52909 8.69583 9.51393 8.69939C9.49266 8.70729 9.4739 8.72076 9.45963 8.7384C9.44696 8.75383 9.43179 8.76702 9.41476 8.77742C9.4058 8.77974 9.39754 8.7842 9.3907 8.79043C9.33119 8.84082 9.31136 8.85546 9.30226 8.85546C9.29315 8.85546 8.85908 9.2814 8.85908 9.29506C8.85908 9.30871 8.84477 9.32432 8.79405 9.38382C8.78764 9.39058 8.78305 9.39886 8.78072 9.40788C8.77032 9.42492 8.75713 9.44009 8.7417 9.45275C8.72399 9.46696 8.7105 9.48573 8.70269 9.50705C8.69903 9.52218 8.68973 9.53532 8.67667 9.54379C8.66371 9.5519 8.65438 9.56472 8.65066 9.57956C8.6464 9.59676 8.63738 9.61242 8.62465 9.62475C8.61194 9.63697 8.60293 9.65252 8.59864 9.66962C8.59864 9.67905 8.59279 9.68686 8.58563 9.68686C8.57848 9.68686 8.57263 9.69856 8.57263 9.71287C8.57263 9.72718 8.56677 9.73888 8.55962 9.73888C8.55568 9.73945 8.55211 9.74153 8.54968 9.74469C8.54725 9.74785 8.54615 9.75183 8.54661 9.75579C8.54221 9.77294 8.53321 9.78856 8.5206 9.80098C8.50739 9.81399 8.49834 9.83062 8.49459 9.84878C8.49459 9.85984 8.48874 9.86894 8.48159 9.86894C8.47443 9.86894 8.46858 9.88064 8.46858 9.89495C8.46858 9.90926 8.46273 9.92096 8.45557 9.92096C8.44842 9.92096 8.44257 9.93267 8.44257 9.94697C8.44257 9.96128 8.43671 9.97299 8.42956 9.97299C8.42241 9.97299 8.41656 9.98437 8.41656 9.99802C8.41674 10.004 8.41567 10.01 8.41344 10.0156C8.4112 10.0212 8.40783 10.0263 8.40355 10.0305C8.3992 10.0347 8.39579 10.0398 8.39355 10.0454C8.39131 10.051 8.39028 10.057 8.39054 10.0631C8.39054 10.077 8.38469 10.0884 8.37754 10.0884C8.37038 10.0884 8.36453 10.0972 8.36453 10.1079C8.36341 10.1227 8.35932 10.1371 8.3525 10.1502C8.3384 10.1784 8.32676 10.2078 8.31771 10.238C8.31576 10.2451 8.30503 10.2744 8.2943 10.303C8.2836 10.3312 8.27681 10.3608 8.27414 10.3908C8.27414 10.4103 8.26764 10.4266 8.26049 10.4266C8.25333 10.4266 8.24748 10.4445 8.24748 10.4662C8.24748 10.488 8.24195 10.5027 8.23447 10.4987C8.227 10.4948 8.22147 10.5069 8.22147 10.5296C8.22304 10.5464 8.21841 10.5632 8.20846 10.5768C8.1979 10.5926 8.19329 10.6116 8.19546 10.6304C8.19546 10.6551 8.1896 10.6753 8.18245 10.6753C8.1753 10.6753 8.16944 10.6987 8.16944 10.7273C8.16944 10.7559 8.16359 10.7794 8.15644 10.7794C8.14929 10.7794 8.14343 10.8028 8.14343 10.8314C8.14343 10.86 8.13758 10.8834 8.13043 10.8834C8.12327 10.8834 8.11742 10.9127 8.11742 10.9484C8.11742 10.9842 8.11254 11.0135 8.10669 11.0135C8.10084 11.0135 8.09466 11.044 8.09303 11.0817C8.09372 11.1094 8.08851 11.1369 8.07775 11.1624C8.06709 11.1971 8.0629 11.2335 8.0654 11.2697C8.0654 11.3243 8.05987 11.3646 8.05239 11.3646C8.04491 11.3646 8.03939 11.4134 8.03939 11.4856C8.04225 11.5305 8.03786 11.5756 8.02638 11.6192C8.00102 11.6449 7.99386 13.1003 8.01793 13.0905C8.03093 13.0853 8.03939 13.0885 8.03939 13.0983C8.04391 13.112 8.05328 13.1235 8.06572 13.1308C8.05306 13.123 8.0429 13.1117 8.03646 13.0983C8.03418 13.0879 8.02638 13.0856 8.01532 13.0928C7.99029 13.1084 7.99809 17.3743 8.02313 17.3828C8.03451 17.3863 8.03939 17.4237 8.03939 17.5079C8.03677 17.5524 8.04082 17.597 8.05142 17.6403C8.06333 17.6715 8.06981 17.7045 8.0706 17.7378C8.08816 17.9414 8.09434 17.9849 8.10572 17.9849C8.1171 17.9849 8.11742 18.0142 8.11742 18.05C8.11742 18.0857 8.12327 18.115 8.13043 18.115C8.13758 18.115 8.14343 18.1384 8.14343 18.167C8.14343 18.1956 8.14929 18.219 8.15644 18.219C8.16359 18.219 8.16944 18.2425 8.16944 18.2711C8.16944 18.2997 8.1753 18.3231 8.18245 18.3231C8.1896 18.3231 8.19546 18.3432 8.19546 18.3676C8.19361 18.3863 8.1982 18.405 8.20846 18.4206C8.21852 18.4338 8.22317 18.4503 8.22147 18.4668C8.22147 18.4879 8.22732 18.5052 8.23447 18.5052C8.24163 18.5052 8.24748 18.5198 8.24748 18.5377C8.24748 18.5556 8.25333 18.5702 8.26049 18.5702C8.26764 18.5702 8.27349 18.5845 8.27349 18.6027C8.27349 18.6463 8.31381 18.7698 8.35315 18.8469C8.35959 18.8601 8.36345 18.8745 8.36453 18.8892C8.36453 18.9002 8.37038 18.909 8.37754 18.909C8.38469 18.909 8.39054 18.9204 8.39054 18.934C8.39036 18.9401 8.39143 18.9461 8.39366 18.9517C8.3959 18.9572 8.39927 18.9623 8.40355 18.9666C8.4079 18.9707 8.41131 18.9758 8.41355 18.9814C8.41579 18.987 8.41682 18.993 8.41656 18.9991C8.41656 19.0131 8.42241 19.0244 8.42956 19.0244C8.43671 19.0244 8.44257 19.0361 8.44257 19.0504C8.44257 19.0647 8.44712 19.0765 8.45232 19.0765C8.4624 19.0765 8.49459 19.1382 8.49459 19.1574C8.50011 19.1723 8.50901 19.1856 8.5206 19.1964C8.53331 19.2087 8.54233 19.2242 8.54661 19.2413C8.54661 19.2507 8.55247 19.2585 8.55962 19.2585C8.56677 19.2585 8.57263 19.2702 8.57263 19.2845C8.57263 19.2989 8.57848 19.3106 8.58563 19.3106C8.58958 19.3111 8.59314 19.3132 8.59557 19.3164C8.598 19.3195 8.5991 19.3235 8.59864 19.3275C8.60305 19.3446 8.61204 19.3602 8.62465 19.3727C8.63736 19.3849 8.64637 19.4004 8.65066 19.4175C8.65443 19.4324 8.66373 19.4453 8.67667 19.4536C8.68962 19.4616 8.69895 19.4743 8.70269 19.4891C8.70231 19.493 8.70345 19.4969 8.70587 19.5C8.70829 19.503 8.71181 19.5051 8.71569 19.5056C8.71957 19.5062 8.72309 19.5083 8.72551 19.5113C8.72793 19.5144 8.72907 19.5183 8.7287 19.5222C8.73261 19.5369 8.7419 19.5495 8.75471 19.5577C8.76766 19.5657 8.77698 19.5784 8.78072 19.5931C8.78035 19.597 8.78149 19.6009 8.78391 19.604C8.78633 19.6071 8.78984 19.6091 8.79373 19.6097C8.80088 19.6097 8.80673 19.6185 8.80673 19.6292C8.80673 19.6399 8.81258 19.6487 8.81941 19.6487C8.82624 19.6487 8.8412 19.6663 8.85193 19.6881C8.87274 19.7284 9.28015 20.1433 9.299 20.1433C9.30811 20.1433 9.32794 20.1579 9.38744 20.2083C9.39406 20.2144 9.40194 20.2189 9.41053 20.2216C9.42814 20.2324 9.44422 20.2455 9.45833 20.2606C9.47319 20.2769 9.49108 20.2902 9.511 20.2997C9.52597 20.3051 9.53944 20.314 9.55034 20.3257C9.56277 20.3383 9.57839 20.3473 9.59554 20.3517C9.59948 20.3513 9.60342 20.3524 9.60656 20.3548C9.6097 20.3573 9.61181 20.3608 9.61245 20.3647C9.61245 20.3718 9.62025 20.3777 9.62968 20.3777C9.64675 20.382 9.66229 20.3911 9.67455 20.4037C9.6876 20.4169 9.70422 20.4259 9.72235 20.4297C9.7334 20.4297 9.74251 20.4356 9.74251 20.4427C9.74251 20.4499 9.75421 20.4557 9.76852 20.4557C9.78282 20.4557 9.79453 20.4606 9.79453 20.4665C9.81155 20.4852 9.83271 20.4996 9.85631 20.5087C9.87991 20.5192 9.90183 20.5331 9.92134 20.55C9.92394 20.5532 9.92727 20.5558 9.93106 20.5575C9.93485 20.5592 9.93898 20.56 9.94312 20.5598C9.96762 20.5652 9.99125 20.5739 10.0134 20.5858L10.12 20.6378C10.1444 20.6507 10.1708 20.6594 10.198 20.6638C10.2117 20.6638 10.2227 20.6684 10.2227 20.6739C10.2227 20.6863 10.3622 20.7289 10.4022 20.7289C10.4182 20.7289 10.4308 20.7347 10.4308 20.7419C10.4308 20.749 10.4455 20.7549 10.4634 20.7549C10.4812 20.7549 10.4959 20.7607 10.4959 20.7679C10.4959 20.775 10.5164 20.7809 10.5414 20.7809C10.5664 20.7809 10.5869 20.7867 10.5869 20.7939C10.5869 20.801 10.6074 20.8069 10.6324 20.8069C10.6575 20.8069 10.678 20.8127 10.678 20.8199C10.678 20.827 10.7014 20.8329 10.73 20.8329C10.7586 20.8329 10.782 20.8388 10.782 20.8459C10.782 20.8531 10.8051 20.8589 10.8334 20.8589C10.854 20.8569 10.8747 20.8614 10.8926 20.8719C10.9125 20.8825 10.9351 20.887 10.9576 20.8849C10.9901 20.8849 11.0151 20.8908 11.0151 20.8979C11.0151 20.9051 11.0499 20.9109 11.0932 20.9109C11.1364 20.9109 11.1712 20.9168 11.1712 20.9239C11.1712 20.9311 11.2125 20.9369 11.2687 20.9369C11.325 20.9369 11.3663 20.9425 11.3663 20.95C11.3663 20.9574 11.4154 20.963 11.4872 20.963C11.5666 20.963 11.6137 20.9685 11.6245 20.9792C11.6352 20.9899 12.092 20.9961 13.7893 20.999C15.2629 21.0016 15.9317 20.999 15.9183 20.9896C15.905 20.9802 15.9044 20.9769 15.9086 20.9763C15.9087 20.9772 15.9087 20.978 15.9086 20.9789C15.892 21.0085 17.35 21.0052 17.3796 20.9756C17.4232 20.9644 17.4683 20.9601 17.5132 20.963C17.5851 20.963 17.6341 20.9578 17.6341 20.95C17.6341 20.9421 17.6754 20.9369 17.7317 20.9369C17.7879 20.9369 17.8292 20.9314 17.8292 20.9239C17.8292 20.9165 17.864 20.9109 17.9073 20.9109C17.9505 20.9109 17.9853 20.9051 17.9853 20.8979C17.9853 20.8908 18.0146 20.8849 18.0503 20.8849C18.0861 20.8849 18.1154 20.8791 18.1154 20.8719C18.1154 20.8648 18.1388 20.8589 18.1674 20.8589C18.196 20.8589 18.2194 20.8531 18.2194 20.8459C18.2194 20.8388 18.2428 20.8329 18.2714 20.8329C18.3001 20.8329 18.3235 20.827 18.3235 20.8199C18.3235 20.8127 18.3436 20.8069 18.3683 20.8069C18.3869 20.8088 18.4055 20.8042 18.421 20.7939C18.4344 20.784 18.4509 20.7793 18.4675 20.7809C18.4883 20.7809 18.5055 20.775 18.5055 20.7679C18.5055 20.7607 18.5202 20.7549 18.5381 20.7549C18.5559 20.7549 18.5706 20.749 18.5706 20.7419C18.5706 20.7347 18.5852 20.7289 18.6031 20.7289C18.6463 20.7289 18.7699 20.6885 18.8473 20.6492C18.8605 20.6427 18.8749 20.6388 18.8895 20.6378C18.9003 20.6378 18.9091 20.632 18.9091 20.6248C18.9091 20.6177 18.9204 20.6118 18.9344 20.6118C18.9404 20.612 18.9464 20.611 18.952 20.6087C18.9576 20.6065 18.9627 20.6031 18.9669 20.5988C18.9712 20.5945 18.9762 20.5911 18.9818 20.5889C18.9874 20.5867 18.9934 20.5856 18.9994 20.5858C19.0131 20.5858 19.0245 20.5799 19.0245 20.5728C19.0245 20.5656 19.0362 20.5598 19.0505 20.5598C19.0648 20.5598 19.0765 20.5539 19.0765 20.5468C19.0765 20.5396 19.0882 20.5338 19.1025 20.5338C19.1168 20.5338 19.1285 20.5279 19.1285 20.5208C19.1285 20.5136 19.1376 20.5078 19.1487 20.5078C19.1668 20.504 19.1835 20.495 19.1965 20.4817C19.2089 20.4691 19.2245 20.4601 19.2417 20.4557C19.2456 20.4562 19.2496 20.4551 19.2528 20.4527C19.2559 20.4502 19.258 20.4467 19.2586 20.4427C19.2586 20.4356 19.2703 20.4297 19.2846 20.4297C19.2989 20.4297 19.3106 20.4239 19.3106 20.4167C19.3106 20.4096 19.3184 20.4037 19.3278 20.4037C19.3449 20.3994 19.3604 20.3903 19.3727 20.3777C19.385 20.3649 19.4007 20.3559 19.4179 20.3517C19.4327 20.3479 19.4455 20.3386 19.4537 20.3257C19.4621 20.3126 19.4753 20.3033 19.4904 20.2997C19.5117 20.2918 19.5304 20.2783 19.5447 20.2606C19.5579 20.2443 19.5744 20.231 19.5932 20.2216C19.6139 20.2121 19.6327 20.1989 19.6488 20.1826C19.6644 20.1668 19.6825 20.1536 19.7024 20.1436C19.718 20.1436 20.1105 19.7498 20.1378 19.7069C20.1486 19.6886 20.1623 19.6723 20.1784 19.6585C20.1832 19.6551 20.1872 19.6508 20.19 19.6457C20.1929 19.6407 20.1946 19.635 20.195 19.6292C20.195 19.6188 20.2009 19.6103 20.208 19.6103C20.2098 19.6103 20.2116 19.6098 20.2132 19.6091C20.2148 19.6083 20.2163 19.6072 20.2175 19.6059C20.2187 19.6046 20.2196 19.603 20.2202 19.6013C20.2208 19.5996 20.2211 19.5978 20.221 19.596C20.2297 19.5762 20.2431 19.5588 20.26 19.5453C20.2777 19.531 20.2912 19.5123 20.2991 19.491C20.3025 19.4758 20.3119 19.4626 20.3251 19.4543C20.338 19.446 20.3473 19.4331 20.3511 19.4182C20.3554 19.4011 20.3644 19.3855 20.3771 19.3733C20.3897 19.3609 20.3987 19.3453 20.4031 19.3281C20.4026 19.3242 20.4037 19.3202 20.4062 19.317C20.4086 19.3139 20.4122 19.3118 20.4161 19.3112C20.4233 19.3112 20.4291 19.2995 20.4291 19.2852C20.4291 19.2709 20.435 19.2592 20.4421 19.2592C20.4493 19.2592 20.4551 19.2488 20.4551 19.2361C20.4563 19.2277 20.4593 19.2196 20.4637 19.2124C20.4682 19.2052 20.4741 19.199 20.4811 19.1942C20.4881 19.1893 20.494 19.1831 20.4984 19.1758C20.5029 19.1686 20.5059 19.1606 20.5071 19.1522C20.5071 19.1395 20.513 19.1291 20.5202 19.1291C20.5273 19.1291 20.5332 19.1174 20.5332 19.1031C20.5332 19.0888 20.539 19.0771 20.5462 19.0771C20.5533 19.0771 20.5592 19.0654 20.5592 19.0511C20.5592 19.0368 20.565 19.0251 20.5722 19.0251C20.5793 19.0251 20.5852 19.0137 20.5852 18.9997C20.5849 18.9937 20.5859 18.9877 20.5882 18.9821C20.5904 18.9765 20.5938 18.9714 20.5982 18.9672C20.6025 18.963 20.6058 18.9579 20.6081 18.9523C20.6103 18.9467 20.6114 18.9407 20.6112 18.9347C20.6112 18.921 20.617 18.9097 20.6242 18.9097C20.6314 18.9097 20.6372 18.8983 20.6372 18.8843C20.6369 18.8783 20.638 18.8722 20.6402 18.8666C20.6425 18.861 20.6459 18.856 20.6502 18.8518C20.6597 18.8407 20.6644 18.8263 20.6632 18.8118C20.6632 18.7946 20.6678 18.7793 20.6733 18.7793C20.6857 18.7793 20.7282 18.6398 20.7282 18.5998C20.7282 18.5839 20.7341 18.5712 20.7413 18.5712C20.7484 18.5712 20.7543 18.5565 20.7543 18.5387C20.7543 18.5208 20.7601 18.5061 20.7673 18.5061C20.7744 18.5061 20.7803 18.4889 20.7803 18.4678C20.7786 18.4513 20.7832 18.4348 20.7933 18.4216C20.8035 18.4059 20.8081 18.3872 20.8063 18.3686C20.8063 18.3442 20.8121 18.3241 20.8193 18.3241C20.8264 18.3241 20.8323 18.3007 20.8323 18.272C20.8323 18.2434 20.8372 18.22 20.8427 18.22C20.8482 18.22 20.8538 18.1989 20.8544 18.1732C20.8557 18.151 20.8632 18.1295 20.8762 18.1114C20.8973 18.0903 20.8954 18.0301 20.8742 18.0464L20.8772 18.0435C20.8889 18.0295 20.8876 18.0207 20.8716 18.0044L20.869 18.0018C20.8872 18.0178 20.9233 17.9693 20.9136 17.9391C20.911 17.9323 20.9061 17.9371 20.9012 17.9485C20.9077 17.9243 20.9115 17.8994 20.9126 17.8744C20.9133 17.8476 20.9187 17.8212 20.9285 17.7964C20.9384 17.7648 20.9431 17.7319 20.9425 17.6988C20.9404 17.6684 20.9454 17.6379 20.9572 17.6097C20.964 17.6074 20.9695 17.5447 20.9695 17.4725C20.9695 17.4351 20.9695 17.4052 20.9724 17.3818C20.9747 17.3844 20.9783 17.3818 20.9838 17.3776C20.9879 17.3725 20.991 17.3667 20.9926 17.3604C20.9943 17.3541 20.9946 17.3476 20.9936 17.3411C20.9897 17.3311 20.9858 17.3265 20.9815 17.3265ZM12.0172 9.20206C12.0172 9.20206 12.0159 9.20239 12.0166 9.20239L12.0172 9.20206ZM12.015 9.20531C12.0146 9.20681 12.0146 9.20838 12.015 9.20987C12.0143 9.20843 12.0141 9.20686 12.0143 9.20531H12.015ZM11.9756 9.18841C11.9734 9.18794 11.971 9.18794 11.9688 9.18841C11.9707 9.18826 11.9727 9.18826 11.9746 9.18841C11.9909 9.19491 11.9964 9.19361 11.986 9.1793C11.9958 9.19296 11.9909 9.19426 11.975 9.18841H11.9756ZM11.9675 9.18841C11.963 9.18887 11.9588 9.19095 11.9558 9.19426C11.9567 9.19201 11.9583 9.19009 11.9603 9.18876C11.9623 9.18742 11.9647 9.18673 11.9672 9.18678L11.9675 9.18841ZM10.9475 8.15346C10.9436 8.14729 10.9475 8.13883 10.9589 8.13461C10.9495 8.14338 10.9449 8.15249 10.9488 8.15672C10.9527 8.16094 10.9423 8.16517 10.9234 8.16517C10.9403 8.16484 10.9514 8.15964 10.9475 8.15346ZM9.16504 14.2422C9.16797 14.2422 9.17057 14.2269 9.17187 14.2054C9.17415 14.1547 9.17447 14.1544 9.18423 14.1924C9.1878 14.2061 9.19073 14.2158 9.19301 14.2149L9.18813 14.2314L9.18163 14.1924C9.17577 14.157 9.1748 14.1583 9.1722 14.2054C9.1709 14.2279 9.16797 14.2422 9.16504 14.2422ZM9.17968 14.2991C9.17806 14.3011 9.177 14.3035 9.1766 14.3061C9.1762 14.3086 9.17648 14.3113 9.1774 14.3137C9.16895 14.3072 9.1709 14.3046 9.17968 14.3V14.2991ZM15.7915 20.8498C15.7294 20.7893 15.6325 20.6941 15.56 20.6222C15.6322 20.6941 15.7281 20.788 15.7893 20.8469C15.8276 20.8839 15.8614 20.9181 15.8839 20.9428C15.8618 20.9187 15.8293 20.8856 15.7915 20.8492V20.8498ZM19.7736 17.1122C19.7762 17.2098 19.7736 17.2664 19.7645 17.2651C19.7554 17.2638 19.7502 17.3125 19.7479 17.3844C19.7485 17.4333 19.7431 17.4821 19.7317 17.5297C19.7224 17.5585 19.7181 17.5886 19.719 17.6188C19.7215 17.6438 19.7172 17.6689 19.7066 17.6917C19.6969 17.7086 19.6932 17.7283 19.6962 17.7476C19.6975 17.7736 19.6931 17.7996 19.6832 17.8237C19.6736 17.844 19.6684 17.8662 19.6679 17.8887C19.6679 17.9449 19.6527 18.023 19.6397 18.0308C19.6305 18.0441 19.6263 18.0602 19.628 18.0763C19.628 18.0974 19.6221 18.1147 19.6149 18.1147C19.6078 18.1147 19.6019 18.1322 19.6019 18.1537C19.6019 18.1751 19.5961 18.1927 19.5889 18.1927C19.5818 18.1927 19.5759 18.2103 19.5759 18.2317C19.5759 18.2532 19.5701 18.2707 19.5629 18.2707C19.5558 18.2707 19.5499 18.2824 19.5499 18.2968C19.5499 18.3111 19.5441 18.3228 19.5369 18.3228C19.5298 18.3228 19.5239 18.3403 19.5239 18.3618C19.5239 18.3832 19.5181 18.4008 19.5109 18.4008C19.5037 18.4008 19.4979 18.4125 19.4979 18.4268C19.4979 18.4411 19.492 18.4528 19.4849 18.4528C19.4777 18.4528 19.4719 18.4645 19.4719 18.4788C19.4719 18.4931 19.466 18.5048 19.4589 18.5048C19.4517 18.5048 19.4459 18.5166 19.4459 18.5309C19.4459 18.5452 19.4416 18.5569 19.4361 18.5569C19.4306 18.5569 19.4179 18.5757 19.4075 18.5991C19.3965 18.6234 19.3823 18.646 19.3652 18.6664C19.3536 18.678 19.3455 18.6927 19.3418 18.7087C19.3418 18.7181 19.3369 18.7259 19.3311 18.7259C19.3252 18.7259 19.3119 18.7419 19.3018 18.7617C19.2909 18.7825 19.277 18.8016 19.2605 18.8183C19.2495 18.8275 19.2416 18.8399 19.2378 18.8537C19.2378 18.882 18.8921 19.2332 18.8642 19.2332C18.8437 19.2432 18.825 19.2564 18.8086 19.2722C18.791 19.2894 18.7699 19.3027 18.7468 19.3112C18.7429 19.3108 18.7391 19.312 18.736 19.3144C18.733 19.3168 18.731 19.3204 18.7305 19.3242C18.7305 19.3314 18.7218 19.3372 18.711 19.3372C18.7003 19.3372 18.6915 19.3431 18.6915 19.3502C18.6915 19.3574 18.6827 19.3632 18.672 19.3632C18.6613 19.3632 18.6525 19.3678 18.6525 19.3736C18.6525 19.3795 18.632 19.3925 18.607 19.4023C18.582 19.412 18.5615 19.4247 18.5615 19.4305C18.5615 19.4364 18.5498 19.4413 18.5355 19.4413C18.5212 19.4413 18.5094 19.4471 18.5094 19.4543C18.5094 19.4614 18.4977 19.4673 18.4834 19.4673C18.4691 19.4673 18.4574 19.4731 18.4574 19.4803C18.4574 19.4874 18.4457 19.4933 18.4314 19.4933C18.4171 19.4933 18.4054 19.4991 18.4054 19.5063C18.4054 19.5135 18.3937 19.5193 18.3794 19.5193C18.3651 19.5193 18.3534 19.5252 18.3534 19.5323C18.3534 19.5395 18.3358 19.5453 18.3144 19.5453C18.2929 19.5453 18.2753 19.5512 18.2753 19.5583C18.2753 19.5655 18.2578 19.5713 18.2363 19.5713C18.2149 19.5713 18.1973 19.5772 18.1973 19.5843C18.1973 19.5915 18.183 19.5973 18.1648 19.5973C18.1504 19.5963 18.1361 19.6009 18.1251 19.6103C18.1197 19.615 18.1134 19.6186 18.1066 19.6208C18.0998 19.6231 18.0926 19.6239 18.0855 19.6234C18.0679 19.6234 18.0529 19.6282 18.0529 19.6347C18.0529 19.6412 17.9515 19.663 17.8904 19.6633C17.8765 19.6633 17.863 19.6673 17.8513 19.6747C17.8383 19.6855 17.7727 19.6955 17.6237 19.7098C17.5949 19.7108 17.5664 19.7171 17.5399 19.7284C17.4949 19.739 17.4487 19.7431 17.4026 19.7404C17.3565 19.7376 17.3103 19.7418 17.2654 19.7528C17.2583 19.7599 17.1468 19.7661 17.0125 19.7671C16.9273 19.7644 16.842 19.7689 16.7576 19.7804C16.7491 19.7875 16.2718 19.7924 15.5968 19.7924C14.8509 19.7924 14.4516 19.797 14.4503 19.8054C14.4503 19.7967 14.0731 19.7924 13.3448 19.7924C12.6789 19.7924 12.2393 19.7875 12.2393 19.7804C12.2393 19.7732 12.1349 19.7677 11.9968 19.7671C11.911 19.7689 11.8252 19.7652 11.7399 19.756C11.6924 19.7455 11.6441 19.7393 11.5955 19.7375C11.3861 19.7222 11.3104 19.7128 11.297 19.7001C11.2736 19.6906 11.2484 19.6866 11.2232 19.6884C11.1996 19.6908 11.1758 19.6868 11.1543 19.6767C11.1233 19.6638 11.0903 19.6568 11.0568 19.6559C11.0233 19.6547 10.9902 19.6477 10.9592 19.6351C10.9482 19.6263 10.9342 19.6221 10.9202 19.6234C10.9026 19.6234 10.8877 19.6175 10.8877 19.6103C10.8877 19.6032 10.8701 19.5973 10.8487 19.5973C10.8272 19.5973 10.8096 19.5915 10.8096 19.5843C10.8096 19.5772 10.7921 19.5713 10.7706 19.5713C10.7492 19.5713 10.7316 19.5655 10.7316 19.5583C10.7316 19.5512 10.7173 19.5453 10.6991 19.5453C10.6846 19.5465 10.6702 19.5418 10.6591 19.5323C10.6549 19.528 10.6498 19.5246 10.6442 19.5224C10.6386 19.5201 10.6326 19.5191 10.6266 19.5193C10.6126 19.5193 10.6012 19.5135 10.6012 19.5063C10.6012 19.4991 10.5895 19.4933 10.5752 19.4933C10.5609 19.4933 10.5492 19.4874 10.5492 19.4803C10.5492 19.4731 10.5375 19.4673 10.5232 19.4673C10.5089 19.4673 10.4972 19.4614 10.4972 19.4543C10.4972 19.4471 10.4855 19.4413 10.4712 19.4413C10.4569 19.4413 10.4451 19.4367 10.4451 19.4315C10.4451 19.4263 10.4263 19.413 10.4029 19.4029C10.3786 19.3919 10.356 19.3777 10.3356 19.3606C10.324 19.3489 10.3093 19.3408 10.2933 19.3372C10.2839 19.3372 10.2761 19.3314 10.2761 19.3242C10.2756 19.3204 10.2736 19.3168 10.2706 19.3144C10.2675 19.312 10.2637 19.3108 10.2598 19.3112C10.2367 19.3026 10.2157 19.2893 10.198 19.2722C10.1816 19.2564 10.1629 19.2432 10.1424 19.2332C10.1314 19.2332 10.1018 19.2065 9.94052 19.0511C9.90498 19.0194 9.87234 18.9846 9.84298 18.947C9.84753 18.947 9.83322 18.9301 9.81046 18.9093C9.79335 18.8958 9.77938 18.8787 9.76949 18.8593C9.76018 18.8391 9.74691 18.8209 9.73048 18.8059C9.71368 18.7907 9.70037 18.7721 9.69146 18.7513C9.68706 18.7361 9.67864 18.7224 9.66707 18.7116C9.64562 18.6846 9.62709 18.6554 9.6118 18.6245C9.60145 18.601 9.58776 18.5791 9.57115 18.5595C9.56595 18.5572 9.5614 18.5442 9.5614 18.5302C9.5614 18.5162 9.55555 18.5055 9.54839 18.5055C9.54124 18.5055 9.53539 18.4938 9.53539 18.4795C9.53539 18.4652 9.52953 18.4535 9.52238 18.4535C9.51523 18.4535 9.50938 18.4418 9.50938 18.4275C9.50938 18.4132 9.50352 18.4014 9.49637 18.4014C9.48922 18.4014 9.48336 18.3871 9.48336 18.3689C9.48397 18.3618 9.48314 18.3546 9.4809 18.3478C9.47867 18.341 9.47508 18.3347 9.47036 18.3293C9.46607 18.325 9.46271 18.32 9.46047 18.3144C9.45823 18.3088 9.45717 18.3028 9.45735 18.2968C9.45735 18.2831 9.4515 18.2717 9.44435 18.2717C9.43719 18.2717 9.43134 18.2542 9.43134 18.2327C9.43134 18.2112 9.42549 18.1937 9.41833 18.1937C9.41118 18.1937 9.40533 18.1758 9.40533 18.1537C9.40533 18.1316 9.3998 18.1173 9.39232 18.1212C9.38484 18.1251 9.37932 18.1127 9.37932 18.0887C9.3809 18.0725 9.37688 18.0563 9.36794 18.0428C9.35514 18.0126 9.34809 17.9803 9.34713 17.9475C9.345 17.9132 9.33845 17.8794 9.32762 17.8467C9.31721 17.8337 9.30583 17.7586 9.29283 17.6191C9.29173 17.5903 9.28545 17.5619 9.27429 17.5353C9.26371 17.4919 9.25966 17.4472 9.26226 17.4026C9.26226 17.3376 9.25641 17.2787 9.24926 17.2745C9.2421 17.2703 9.23625 17.175 9.23625 17.0339C9.23873 16.9454 9.2346 16.8568 9.2239 16.7689C9.21674 16.7497 9.21056 16.3033 9.20926 15.6725C9.20926 15.4159 9.20699 15.1708 9.20536 14.9715C9.20553 14.9685 9.20553 14.9656 9.20536 14.9627C9.20829 14.9302 9.20829 14.8976 9.20536 14.8651C9.20536 14.8567 9.20374 14.8534 9.20309 14.8541C9.20146 14.7078 9.19984 14.5972 9.19788 14.5407C9.20309 14.5871 9.20699 14.5702 9.20796 14.488C9.21059 14.4566 9.20773 14.425 9.19951 14.3947C9.20439 14.3914 9.20179 14.381 9.19333 14.3706C9.17935 14.354 9.17968 14.3495 9.19333 14.3446C9.20699 14.3397 9.20374 14.3365 9.19496 14.3283H9.19691C9.20341 14.3283 9.20894 14.3196 9.20894 14.3088C9.20894 14.2981 9.20341 14.2896 9.19561 14.2893C9.20536 14.2802 9.20861 14.2627 9.20764 14.2259C9.20764 14.1778 9.20439 14.1723 9.19658 14.1983V14.2032C9.20374 14.1541 9.20634 13.9294 9.21317 13.2358C9.22487 12.0832 9.23235 11.7691 9.24926 11.7337C9.26072 11.6868 9.26694 11.6388 9.26779 11.5906C9.2741 11.4703 9.28976 11.3508 9.31461 11.2329C9.32242 11.1936 9.3351 11.1188 9.34257 11.0671C9.35005 11.0154 9.36176 10.9728 9.36826 10.9728C9.37476 10.9728 9.37964 10.9523 9.37964 10.9273C9.37964 10.9023 9.38549 10.8818 9.39265 10.8818C9.3998 10.8818 9.40565 10.8642 9.40565 10.8428C9.40565 10.8213 9.41151 10.8037 9.41866 10.8037C9.42581 10.8037 9.43167 10.7862 9.43167 10.7647C9.43167 10.7433 9.43752 10.7257 9.44467 10.7257C9.45182 10.7257 9.45768 10.714 9.45768 10.6997C9.45768 10.6854 9.46353 10.6737 9.47068 10.6737C9.47784 10.6737 9.48369 10.6561 9.48369 10.6347C9.48369 10.6132 9.48954 10.5956 9.49669 10.5956C9.50385 10.5956 9.5097 10.5839 9.5097 10.5696C9.5097 10.5553 9.51555 10.5436 9.52271 10.5436C9.52986 10.5436 9.53571 10.5319 9.53571 10.5176C9.53571 10.5033 9.54156 10.4916 9.54872 10.4916C9.55587 10.4916 9.56172 10.4799 9.56172 10.4656C9.56172 10.4513 9.56628 10.4396 9.57148 10.4396C9.57668 10.4396 9.58969 10.4204 9.60009 10.3973C9.61105 10.3729 9.62527 10.3502 9.64236 10.3297C9.65417 10.3182 9.66232 10.3035 9.66577 10.2874C9.66577 10.278 9.67065 10.2705 9.6765 10.2705C9.68235 10.2705 9.69568 10.2542 9.70576 10.2347C9.71666 10.2138 9.73057 10.1947 9.74706 10.1778C9.75815 10.1688 9.76611 10.1565 9.76982 10.1427C9.76982 10.1135 10.1154 9.76327 10.1444 9.76327C10.1644 9.75294 10.1828 9.7398 10.199 9.72425C10.2167 9.7071 10.2377 9.69381 10.2608 9.68523C10.2647 9.6856 10.2685 9.68445 10.2716 9.68202C10.2746 9.67959 10.2766 9.67608 10.277 9.67223C10.277 9.66507 10.2849 9.65922 10.2943 9.65922C10.3103 9.65549 10.3249 9.64739 10.3365 9.63581C10.3569 9.6186 10.3795 9.60437 10.4039 9.59354C10.4273 9.58314 10.4461 9.57045 10.4461 9.56493C10.4461 9.5594 10.4578 9.55517 10.4721 9.55517C10.4864 9.55517 10.4981 9.54932 10.4981 9.54217C10.4981 9.53501 10.5099 9.52916 10.5242 9.52916C10.5385 9.52916 10.5502 9.52331 10.5502 9.51616C10.5502 9.509 10.5619 9.50315 10.5762 9.50315C10.5905 9.50315 10.6022 9.4973 10.6022 9.49014C10.6022 9.48299 10.6165 9.47714 10.6347 9.47714C10.6491 9.47822 10.6634 9.47355 10.6744 9.46413C10.6786 9.45985 10.6837 9.45648 10.6893 9.45425C10.6949 9.45201 10.7009 9.45095 10.7069 9.45113C10.7205 9.45113 10.7319 9.44527 10.7319 9.43812C10.7319 9.43097 10.7495 9.42511 10.7709 9.42511C10.7924 9.42511 10.81 9.41926 10.81 9.41211C10.81 9.40495 10.8275 9.3991 10.849 9.3991C10.8704 9.3991 10.888 9.39325 10.888 9.3861C10.888 9.37894 10.9056 9.37309 10.927 9.37309C10.9485 9.37309 10.966 9.36789 10.966 9.36171C10.9976 9.34672 11.0319 9.3381 11.0668 9.33635C11.1224 9.32855 11.1998 9.31554 11.2392 9.30774C11.2785 9.29993 11.3429 9.29018 11.3822 9.28628C11.4111 9.28535 11.4395 9.27906 11.4661 9.26774C11.5111 9.2573 11.5573 9.25335 11.6033 9.25604C11.6823 9.25604 11.7334 9.25018 11.7438 9.24043C11.7542 9.23068 11.7958 9.22612 11.8569 9.22742C11.8889 9.23109 11.9214 9.22877 11.9525 9.2206C11.954 9.22246 11.9558 9.2241 11.9577 9.22547C11.9593 9.22674 11.9611 9.22761 11.963 9.22801C11.965 9.22842 11.967 9.22835 11.9689 9.2278C11.9708 9.22726 11.9726 9.22626 11.974 9.22489C11.9755 9.22353 11.9766 9.22183 11.9772 9.21995C11.9782 9.21769 11.9798 9.21577 11.9818 9.21442C11.9815 9.21537 11.9815 9.21639 11.9818 9.21734C11.9818 9.2336 12.238 9.23425 12.2478 9.21734C12.2523 9.21019 12.2208 9.20759 12.1704 9.21117C12.1368 9.21566 12.1027 9.21445 12.0696 9.20759L12.0628 9.20434L12.0732 9.20824C12.1054 9.21387 12.1383 9.21463 12.1707 9.21052C12.2982 9.20011 16.7553 9.20271 16.7728 9.21312C16.8596 9.22488 16.947 9.23128 17.0346 9.2323C17.4091 9.24693 17.5262 9.25474 17.5548 9.26807C17.5843 9.27781 17.6149 9.28413 17.6459 9.28693C17.7847 9.30123 17.8409 9.31066 17.8539 9.31944C17.8887 9.33057 17.9248 9.33724 17.9612 9.33928C18.0133 9.34415 18.0555 9.35358 18.0555 9.35976C18.0555 9.36594 18.0698 9.37114 18.0881 9.37114C18.0952 9.37056 18.1024 9.37142 18.1092 9.37365C18.116 9.37589 18.1223 9.37945 18.1277 9.38415C18.1411 9.39405 18.1576 9.39868 18.1742 9.39715C18.195 9.39715 18.2123 9.403 18.2123 9.41016C18.2123 9.41731 18.224 9.42316 18.2386 9.42316C18.2566 9.42409 18.2743 9.42851 18.2906 9.43617L18.3423 9.46218C18.3565 9.46941 18.372 9.47383 18.3878 9.47519C18.3986 9.47519 18.4073 9.48104 18.4073 9.48819C18.4073 9.49535 18.4191 9.5012 18.4334 9.5012C18.4477 9.5012 18.4594 9.50705 18.4594 9.5142C18.4594 9.52136 18.4711 9.52721 18.4854 9.52721C18.4997 9.52721 18.5114 9.53306 18.5114 9.54022C18.5114 9.54737 18.5231 9.55322 18.5374 9.55322C18.5517 9.55322 18.5634 9.55907 18.5634 9.56623C18.5634 9.57338 18.5751 9.57923 18.5894 9.57923C18.6037 9.57923 18.6154 9.58509 18.6154 9.59224C18.6154 9.59939 18.6242 9.60525 18.635 9.60525C18.6457 9.60525 18.6545 9.6111 18.6545 9.61825C18.6545 9.6254 18.6632 9.63126 18.674 9.63126C18.6847 9.63126 18.6935 9.63548 18.6935 9.64101C18.6935 9.64654 18.7127 9.65922 18.7357 9.6693C18.7579 9.68034 18.778 9.69507 18.7952 9.71287C18.8096 9.72765 18.826 9.74025 18.844 9.75026C18.9178 9.78928 19.2374 10.106 19.2374 10.1404C19.2461 10.159 19.2583 10.1758 19.2732 10.1899C19.2946 10.213 19.3132 10.2387 19.3285 10.2663C19.3401 10.2895 19.3543 10.3113 19.3708 10.3313C19.3823 10.3429 19.3902 10.3576 19.3935 10.3736C19.3935 10.383 19.3994 10.3908 19.4065 10.3908C19.4137 10.3908 19.4195 10.4025 19.4195 10.4168C19.4195 10.4311 19.4254 10.4428 19.4325 10.4428C19.4397 10.4428 19.4455 10.4545 19.4455 10.4688C19.4455 10.4831 19.4514 10.4948 19.4585 10.4948C19.4657 10.4948 19.4716 10.5066 19.4716 10.5209C19.4716 10.5352 19.4774 10.5469 19.4846 10.5469C19.4917 10.5469 19.4976 10.5586 19.4976 10.5729C19.4976 10.5872 19.5034 10.5989 19.5106 10.5989C19.5177 10.5989 19.5236 10.6132 19.5236 10.6314C19.5224 10.6459 19.5271 10.6603 19.5366 10.6714C19.5409 10.6756 19.5443 10.6807 19.5466 10.6863C19.5488 10.6919 19.5499 10.6979 19.5496 10.7039C19.5496 10.7179 19.5554 10.7293 19.5626 10.7293C19.5697 10.7293 19.5756 10.7468 19.5756 10.7683C19.5756 10.7898 19.5815 10.8073 19.5886 10.8073C19.5958 10.8073 19.6016 10.8219 19.6016 10.8398C19.6016 10.8577 19.6075 10.8723 19.6146 10.8723C19.6218 10.8723 19.6276 10.8889 19.6276 10.9091C19.6266 10.9252 19.63 10.9412 19.6374 10.9556C19.6504 10.9887 19.6593 11.0233 19.664 11.0587C19.6731 11.11 19.6865 11.1842 19.6936 11.2235C19.7169 11.3463 19.7333 11.4702 19.7427 11.5948C19.7448 11.6432 19.751 11.6912 19.7613 11.7385C19.7692 11.8204 19.7725 11.9027 19.7713 11.985C19.7694 12.0676 19.7739 12.1502 19.7847 12.2321C19.7964 12.2464 19.8035 16.3888 19.7938 16.7396C19.7868 16.7441 19.7814 16.7507 19.7785 16.7585C19.7725 16.7917 19.7702 16.8255 19.7717 16.8593C19.7717 16.9106 19.7759 16.9295 19.7821 16.9146C19.7814 16.9197 19.7803 16.9248 19.7788 16.9298C19.7726 16.9474 19.7743 16.9591 19.7824 16.9591C19.7743 16.9571 19.7707 17.0121 19.7736 17.1122ZM20.792 17.9892C20.7767 17.9726 20.7471 17.9417 20.7107 17.9043C20.7478 17.942 20.778 17.9736 20.7936 17.9905C20.8092 18.0074 20.8157 18.0142 20.8261 18.023C20.8151 18.0139 20.8047 18.0028 20.792 17.9892ZM20.857 17.9914C20.8541 17.9862 20.857 17.9846 20.8668 17.9846C20.8583 17.9846 20.8551 17.9862 20.858 17.9914H20.857ZM20.8596 17.996V17.9944C20.8596 17.9944 20.8603 17.9953 20.8606 17.996H20.8596Z" fill="#191919"/>
<path fillRule="evenodd" clipRule="evenodd" d="M17.8713 14.2554C17.8721 14.2489 17.8714 14.2422 17.8693 14.2359C17.8672 14.2296 17.8638 14.2239 17.8593 14.219C17.857 14.2174 17.8543 14.2165 17.8515 14.2164C17.8485 14.1904 17.8456 14.1563 17.8446 14.1231C17.8466 14.0873 17.8419 14.0515 17.8307 14.0174C17.8248 14.0174 17.8203 13.9849 17.8203 13.9465C17.8229 13.9196 17.8185 13.8925 17.8072 13.8679C17.7963 13.8454 17.7918 13.8203 17.7942 13.7954C17.7942 13.7602 17.7884 13.7303 17.7812 13.7303C17.7741 13.7303 17.7682 13.7102 17.7682 13.6855C17.7702 13.6669 17.7656 13.6483 17.7552 13.6328C17.7453 13.6194 17.7407 13.6029 17.7422 13.5863C17.7422 13.5655 17.7364 13.5482 17.7292 13.5482C17.7221 13.5482 17.7162 13.5307 17.7162 13.5089C17.7161 13.4866 17.7116 13.4645 17.7032 13.4439L17.6772 13.3922C17.6694 13.3759 17.665 13.3582 17.6642 13.3401C17.6642 13.3258 17.6583 13.3141 17.6512 13.3141C17.644 13.3141 17.6382 13.2995 17.6382 13.2816C17.6382 13.2637 17.6323 13.2491 17.6252 13.2491C17.618 13.2491 17.6122 13.2403 17.6122 13.2293C17.6107 13.2134 17.6063 13.198 17.5991 13.1838L17.5731 13.1321C17.5659 13.1179 17.5615 13.1024 17.5601 13.0865C17.5601 13.0758 17.5543 13.067 17.5471 13.067C17.54 13.067 17.5341 13.0553 17.5341 13.041C17.5341 13.0267 17.5283 13.015 17.5211 13.015C17.514 13.015 17.5081 13.0033 17.5081 12.989C17.5081 12.9747 17.5023 12.963 17.4951 12.963C17.4879 12.963 17.4821 12.9526 17.4821 12.9396C17.4821 12.9132 17.3068 12.619 17.2636 12.5725C17.2505 12.5601 17.2407 12.5447 17.235 12.5276C17.2305 12.514 17.2213 12.5024 17.209 12.4951C17.1947 12.4847 17.183 12.4717 17.183 12.4662C17.183 12.4541 17.1504 12.4148 17.0952 12.3572C17.0782 12.3417 17.0639 12.3235 17.0529 12.3033C17.0529 12.2974 17.0412 12.2841 17.0269 12.274C17.0126 12.2639 17.0009 12.2506 17.0009 12.2447C17.0009 12.2311 16.7447 11.9749 16.731 11.9749C16.7252 11.9749 16.7121 11.9632 16.7017 11.9488C16.6913 11.9345 16.6787 11.9228 16.6728 11.9228C16.6512 11.9107 16.6316 11.8953 16.6146 11.8773C16.5976 11.8594 16.5781 11.8441 16.5567 11.8318C16.5406 11.8239 16.5262 11.8129 16.5145 11.7993C16.5024 11.7854 16.4874 11.7743 16.4706 11.7668C16.4553 11.7607 16.4416 11.7514 16.4302 11.7395C16.3831 11.6956 16.1132 11.532 16.0742 11.5239C16.0547 11.5197 16.0384 11.5112 16.0384 11.505C16.0384 11.4988 16.0267 11.4936 16.0124 11.4936C15.9981 11.4936 15.9864 11.4878 15.9864 11.4806C15.9864 11.4735 15.9747 11.4676 15.9604 11.4676C15.9461 11.4676 15.9344 11.4618 15.9344 11.4546C15.9344 11.4475 15.9227 11.4416 15.9084 11.4416C15.8941 11.4416 15.8824 11.4358 15.8824 11.4286C15.8824 11.4215 15.8677 11.4156 15.8499 11.4156C15.832 11.4156 15.8173 11.4098 15.8173 11.4026C15.8173 11.3954 15.8027 11.3896 15.7848 11.3896C15.7669 11.3896 15.7523 11.3837 15.7523 11.3766C15.7523 11.3694 15.7377 11.3636 15.7198 11.3636C15.7019 11.3636 15.6873 11.3577 15.6873 11.3506C15.6873 11.3434 15.6727 11.3376 15.6548 11.3376C15.6369 11.3376 15.6223 11.3317 15.6223 11.3246C15.6223 11.3174 15.6079 11.3116 15.5897 11.3116C15.5753 11.3126 15.5611 11.308 15.5501 11.2986C15.5371 11.2887 15.5208 11.284 15.5046 11.2855C15.4883 11.2871 15.472 11.2824 15.459 11.2725C15.446 11.2626 15.4298 11.258 15.4135 11.2595C15.3977 11.2612 15.3819 11.257 15.369 11.2478C15.3511 11.2364 15.3306 11.2297 15.3095 11.2283L15.2054 11.2127C15.1844 11.2111 15.1641 11.2044 15.1462 11.1932C15.1218 11.1831 15.0952 11.179 15.0689 11.1815C15.0426 11.1839 15.0162 11.18 14.9918 11.1701C14.9528 11.1591 14.9123 11.1545 14.8718 11.1565C14.8393 11.1565 14.8068 11.1539 14.7824 11.1516C14.7835 11.1503 14.7841 11.1487 14.7841 11.147C14.7841 11.1454 14.7835 11.1437 14.7824 11.1425C14.7791 11.1384 14.7749 11.1351 14.7701 11.1328C14.7653 11.1306 14.7601 11.1294 14.7548 11.1295C14.744 11.1295 14.7392 11.1353 14.7434 11.1425L14.7466 11.1457H14.7444C14.7248 11.1327 14.3122 11.1344 14.2778 11.1457L14.2674 11.1487C14.2744 11.1467 14.2814 11.1443 14.2882 11.1415C14.3103 11.1321 14.3077 11.1301 14.2726 11.1295C14.2552 11.1273 14.2376 11.1315 14.2231 11.1415C14.2179 11.15 14.2274 11.1535 14.2423 11.1529C14.2202 11.1558 14.1916 11.1584 14.1646 11.1594C14.1289 11.1569 14.0932 11.1625 14.0599 11.1756C14.0606 11.1743 14.0613 11.173 14.0622 11.1717C14.0736 11.1584 14.072 11.1545 14.0557 11.1545C14.0506 11.1542 14.0455 11.1558 14.0416 11.1592C14.0377 11.1625 14.0353 11.1673 14.0349 11.1724C14.0349 11.1719 14.0349 11.1713 14.0349 11.1708C14.0349 11.1552 14.0326 11.1539 14.0216 11.1675C14.0216 11.1604 14.019 11.1545 14.0115 11.1545C14.0028 11.1561 13.9948 11.1605 13.9887 11.1669C13.9665 11.177 13.9423 11.1821 13.9178 11.1818C13.8916 11.1819 13.8657 11.1874 13.8417 11.1981C13.823 11.2074 13.802 11.2111 13.7813 11.2088C13.7572 11.2088 13.7341 11.2117 13.7296 11.2192C13.7139 11.2296 13.6952 11.2343 13.6766 11.2325C13.6519 11.2325 13.6317 11.2384 13.6317 11.2456C13.6317 11.2527 13.6083 11.2586 13.5797 11.2586C13.5511 11.2586 13.5277 11.2644 13.5277 11.2716C13.5277 11.2787 13.5101 11.2846 13.4886 11.2846C13.4672 11.2846 13.4496 11.2904 13.4496 11.2976C13.4496 11.3047 13.4321 11.3106 13.4106 11.3106C13.3891 11.3106 13.3716 11.3164 13.3716 11.3236C13.3716 11.3307 13.354 11.3366 13.3326 11.3366C13.3111 11.3366 13.2936 11.3424 13.2936 11.3496C13.2936 11.3568 13.2818 11.3626 13.2675 11.3626C13.2532 11.3626 13.2415 11.3685 13.2415 11.3756C13.2415 11.3828 13.2269 11.3886 13.209 11.3886C13.1911 11.3886 13.1765 11.3945 13.1765 11.4016C13.1765 11.4088 13.1648 11.4146 13.1505 11.4146C13.1362 11.4146 13.1245 11.4205 13.1245 11.4276C13.1245 11.4348 13.1128 11.4406 13.0985 11.4406C13.0842 11.4406 13.0725 11.4465 13.0725 11.4536C13.0725 11.4608 13.0607 11.4667 13.0464 11.4667C13.0321 11.4667 13.0204 11.4725 13.0204 11.4797C13.0204 11.4868 13.0087 11.4927 12.9944 11.4927C12.9801 11.4927 12.9684 11.4985 12.9684 11.5057C12.9684 11.5128 12.9567 11.5187 12.9424 11.5187C12.9281 11.5187 12.9164 11.5249 12.9164 11.5323C12.9164 11.5398 12.9109 11.5427 12.9044 11.5385C12.8759 11.5428 12.8489 11.554 12.8257 11.571C12.8012 11.5873 12.7751 11.6009 12.7476 11.6113C12.746 11.6114 12.7443 11.6118 12.7428 11.6124C12.7413 11.6131 12.7399 11.6141 12.7388 11.6153C12.7376 11.6165 12.7367 11.6179 12.7361 11.6195C12.7355 11.621 12.7352 11.6227 12.7353 11.6243C12.7346 11.6283 12.7325 11.6318 12.7294 11.6342C12.7262 11.6366 12.7223 11.6377 12.7184 11.6374C12.7012 11.6418 12.6856 11.6508 12.6732 11.6634C12.6625 11.6748 12.6494 11.6837 12.6348 11.6894C12.629 11.6894 12.6156 11.7011 12.6052 11.7154C12.5971 11.7282 12.5844 11.7375 12.5698 11.7414C12.5478 11.7497 12.5281 11.7631 12.5122 11.7804C12.4972 11.7969 12.4791 11.8101 12.4589 11.8194C12.44 11.8287 12.4233 11.842 12.4101 11.8585C12.3966 11.8753 12.3792 11.8887 12.3594 11.8975C12.3576 11.8974 12.3558 11.8977 12.3541 11.8983C12.3524 11.8989 12.3509 11.8998 12.3496 11.901C12.3482 11.9022 12.3471 11.9037 12.3464 11.9053C12.3456 11.9069 12.3452 11.9087 12.3451 11.9105C12.3451 11.9123 12.3447 11.914 12.3439 11.9156C12.3432 11.9173 12.3422 11.9187 12.3409 11.9199C12.3395 11.9211 12.338 11.9221 12.3363 11.9227C12.3347 11.9233 12.3329 11.9236 12.3311 11.9235C12.3126 11.9235 11.9289 12.3072 11.9289 12.3254C11.929 12.3272 11.9287 12.329 11.9281 12.3306C11.9275 12.3323 11.9266 12.3339 11.9254 12.3352C11.9242 12.3365 11.9227 12.3376 11.9211 12.3384C11.9195 12.3392 11.9177 12.3396 11.9159 12.3397C11.9141 12.3398 11.9124 12.3402 11.9107 12.341C11.9091 12.3417 11.9076 12.3428 11.9064 12.3441C11.9052 12.3455 11.9043 12.347 11.9037 12.3487C11.9031 12.3504 11.9028 12.3522 11.9029 12.354C11.8941 12.3738 11.8807 12.3911 11.8639 12.4047C11.8474 12.4178 11.834 12.4345 11.8249 12.4535C11.8155 12.4736 11.8022 12.4916 11.7858 12.5065C11.7685 12.5224 11.7551 12.5422 11.7468 12.5643C11.7429 12.579 11.7336 12.5917 11.7208 12.5998C11.7065 12.6099 11.6948 12.6232 11.6948 12.6291C11.6892 12.6438 11.6803 12.657 11.6688 12.6677C11.6557 12.6802 11.6464 12.6961 11.6421 12.7136C11.6421 12.723 11.6363 12.7308 11.6291 12.7308C11.6275 12.7308 11.6258 12.7311 11.6242 12.7317C11.6227 12.7323 11.6213 12.7332 11.6201 12.7343C11.6189 12.7355 11.6179 12.7368 11.6172 12.7384C11.6165 12.7399 11.6162 12.7415 11.6161 12.7432C11.6059 12.7711 11.5926 12.7979 11.5765 12.8228C11.5565 12.8557 11.5407 12.8908 11.5293 12.9275C11.5251 12.948 11.5166 12.9649 11.5104 12.9649C11.5043 12.9649 11.4991 12.9766 11.4991 12.9909C11.4991 13.0052 11.4932 13.017 11.4861 13.017C11.4789 13.017 11.4731 13.0287 11.4731 13.043C11.4731 13.0573 11.4672 13.069 11.46 13.069C11.4529 13.069 11.447 13.0807 11.447 13.095C11.447 13.1093 11.4412 13.121 11.434 13.121C11.4269 13.121 11.421 13.1327 11.421 13.147C11.421 13.1613 11.4152 13.173 11.408 13.173C11.4009 13.173 11.395 13.1877 11.395 13.2055C11.395 13.2234 11.3892 13.2381 11.382 13.2381C11.3749 13.2381 11.369 13.2494 11.369 13.2631C11.3692 13.2691 11.3681 13.2751 11.3659 13.2807C11.3636 13.2863 11.3603 13.2914 11.356 13.2956C11.3513 13.301 11.3477 13.3073 11.3455 13.3141C11.3432 13.3209 11.3424 13.3281 11.343 13.3353C11.343 13.3528 11.3371 13.3678 11.33 13.3678C11.3228 13.3678 11.317 13.3853 11.317 13.4068C11.317 13.4283 11.3111 13.4458 11.304 13.4458C11.2968 13.4458 11.291 13.4634 11.291 13.4848C11.291 13.5063 11.2851 13.5239 11.278 13.5239C11.2708 13.5239 11.265 13.5473 11.265 13.5759C11.265 13.6045 11.2591 13.6279 11.252 13.6279C11.2448 13.6279 11.2389 13.6481 11.2389 13.6725C11.2408 13.6911 11.2362 13.7098 11.2259 13.7254C11.2154 13.743 11.2108 13.7636 11.2129 13.784C11.215 13.8044 11.2104 13.8249 11.1999 13.8425C11.1889 13.8646 11.1844 13.8894 11.1869 13.914C11.1894 13.9386 11.1849 13.9634 11.1739 13.9856C11.1668 13.9898 11.1609 14.0418 11.1609 14.1007C11.1635 14.1413 11.159 14.1822 11.1476 14.2213C11.1235 14.2454 11.1476 14.986 11.1749 15.0124C11.1847 15.036 11.1889 15.0616 11.1869 15.0872C11.1845 15.1112 11.189 15.1355 11.1999 15.1571C11.2105 15.1746 11.2151 15.1952 11.2129 15.2156C11.2109 15.236 11.2154 15.2565 11.2259 15.2741C11.2363 15.2896 11.2409 15.3083 11.2389 15.3268C11.2389 15.3515 11.2448 15.3717 11.252 15.3717C11.2591 15.3717 11.265 15.3951 11.265 15.4237C11.265 15.4523 11.2708 15.4757 11.278 15.4757C11.2851 15.4757 11.291 15.4933 11.291 15.5147C11.291 15.5362 11.2968 15.5538 11.304 15.5538C11.3111 15.5538 11.317 15.5713 11.317 15.5928C11.317 15.6142 11.3228 15.6318 11.33 15.6318C11.3371 15.6318 11.343 15.6461 11.343 15.6643C11.3419 15.6788 11.3465 15.6932 11.356 15.7043C11.3603 15.7085 11.3638 15.7135 11.366 15.7192C11.3682 15.7248 11.3693 15.7308 11.369 15.7368C11.369 15.7508 11.3749 15.7622 11.382 15.7622C11.3892 15.7622 11.395 15.7768 11.395 15.7947C11.395 15.8126 11.4009 15.8272 11.408 15.8272C11.4152 15.8272 11.421 15.8389 11.421 15.8532C11.421 15.8675 11.4269 15.8792 11.434 15.8792C11.4412 15.8792 11.447 15.8909 11.447 15.9052C11.447 15.9195 11.4529 15.9312 11.46 15.9312C11.4672 15.9312 11.4731 15.943 11.4731 15.9573C11.4731 15.9716 11.4789 15.9833 11.4861 15.9833C11.4932 15.9833 11.4991 15.995 11.4991 16.0093C11.4991 16.0236 11.5049 16.0353 11.5121 16.0353C11.5192 16.0353 11.5251 16.0467 11.5251 16.0603C11.5249 16.0664 11.526 16.0724 11.5283 16.078C11.5306 16.0836 11.534 16.0887 11.5384 16.0928C11.5418 16.0949 11.5443 16.0982 11.5453 16.102C11.5463 16.1058 11.5458 16.1099 11.5439 16.1133C11.5397 16.1198 11.5456 16.1289 11.5569 16.1332C11.563 16.1361 11.5682 16.1407 11.5717 16.1465C11.5753 16.1523 11.5772 16.1589 11.5771 16.1657C11.5806 16.1861 11.5895 16.2051 11.6028 16.221C11.6168 16.2388 11.6246 16.257 11.62 16.2616C11.6155 16.2661 11.62 16.27 11.6268 16.27C11.629 16.2701 11.6311 16.2706 11.633 16.2715C11.6349 16.2724 11.6366 16.2737 11.638 16.2753C11.6395 16.2769 11.6406 16.2787 11.6413 16.2807C11.642 16.2827 11.6423 16.2848 11.6421 16.287C11.6465 16.3041 11.6555 16.3197 11.6681 16.3322C11.6796 16.3428 11.6885 16.3559 11.6942 16.3705C11.6942 16.3764 11.7059 16.3897 11.7202 16.4001C11.733 16.4082 11.7423 16.4208 11.7462 16.4355C11.7545 16.4575 11.7678 16.4773 11.7852 16.4931C11.8016 16.5081 11.8149 16.5262 11.8242 16.5464C11.8335 16.5654 11.8468 16.582 11.8632 16.5952C11.8802 16.6087 11.8936 16.6261 11.9022 16.6459C11.9022 16.6477 11.9024 16.6495 11.903 16.6512C11.9036 16.6529 11.9046 16.6544 11.9058 16.6558C11.907 16.6571 11.9084 16.6582 11.9101 16.6589C11.9117 16.6597 11.9135 16.6601 11.9153 16.6602C11.917 16.6603 11.9187 16.6607 11.9203 16.6614C11.9219 16.6621 11.9234 16.6631 11.9246 16.6644C11.9258 16.6656 11.9267 16.6671 11.9274 16.6688C11.928 16.6704 11.9283 16.6721 11.9283 16.6739C11.9283 16.6911 12.3119 17.0764 12.3288 17.0764C12.3533 17.09 12.3753 17.1076 12.3939 17.1284C12.4128 17.1489 12.4347 17.1665 12.4589 17.1805C12.4785 17.1901 12.4962 17.2033 12.5109 17.2195C12.5268 17.2368 12.5465 17.2502 12.5685 17.2585C12.5831 17.2624 12.5958 17.2717 12.6039 17.2845C12.609 17.2914 12.6153 17.2973 12.6226 17.3018C12.6299 17.3062 12.638 17.3092 12.6465 17.3105C12.6598 17.3105 12.667 17.3164 12.6624 17.3235C12.6579 17.3307 12.6624 17.3365 12.6748 17.3365C12.6872 17.3365 12.695 17.3424 12.695 17.3495C12.695 17.3567 12.7037 17.3625 12.7145 17.3625C12.7252 17.3625 12.734 17.3684 12.734 17.3755C12.7339 17.3772 12.7342 17.3789 12.7348 17.3804C12.7354 17.382 12.7363 17.3834 12.7375 17.3846C12.7386 17.3858 12.74 17.3868 12.7415 17.3875C12.743 17.3881 12.7447 17.3885 12.7463 17.3886C12.7744 17.3987 12.8012 17.412 12.8263 17.4282C12.859 17.4482 12.8941 17.464 12.9307 17.4754C12.9515 17.4793 12.9681 17.488 12.9681 17.4942C12.9681 17.5004 12.9798 17.5056 12.9941 17.5056C13.0084 17.5056 13.0201 17.5115 13.0201 17.5186C13.0201 17.5258 13.0318 17.5316 13.0461 17.5316C13.0604 17.5316 13.0721 17.5375 13.0721 17.5446C13.0721 17.5518 13.0838 17.5576 13.0981 17.5576C13.1124 17.5576 13.1242 17.5635 13.1242 17.5706C13.1242 17.5778 13.1359 17.5836 13.1502 17.5836C13.1645 17.5836 13.1762 17.5895 13.1762 17.5966C13.1762 17.6038 13.1879 17.6097 13.2019 17.6097C13.2273 17.6136 13.2517 17.6225 13.2737 17.6357C13.2958 17.6489 13.3202 17.6577 13.3456 17.6617C13.3599 17.6617 13.3713 17.6675 13.3713 17.6747C13.3713 17.6818 13.3888 17.6877 13.4103 17.6877C13.4317 17.6877 13.4493 17.6935 13.4493 17.7007C13.4493 17.7078 13.4665 17.7137 13.4877 17.7137C13.5041 17.7122 13.5206 17.7168 13.5338 17.7267C13.5495 17.737 13.5682 17.7416 13.5868 17.7397C13.6112 17.7397 13.6314 17.7456 13.6314 17.7527C13.6314 17.7599 13.6515 17.7657 13.6763 17.7657C13.6948 17.7639 13.7134 17.7685 13.7289 17.7787C13.7489 17.7893 13.7715 17.7939 13.794 17.7917C13.8265 17.7917 13.8515 17.7969 13.8515 17.8034C13.8515 17.8168 13.9425 17.8285 14.1214 17.8386C14.1864 17.8425 14.2417 17.8509 14.2417 17.8574C14.2417 17.8639 14.35 17.8698 14.5018 17.8698C14.6536 17.8698 14.7619 17.8646 14.7619 17.8574C14.7619 17.8503 14.8162 17.8425 14.8822 17.8386C15.0611 17.8285 15.1521 17.8168 15.1521 17.8034C15.1521 17.7969 15.1781 17.7917 15.21 17.7917C15.2325 17.7939 15.2551 17.7894 15.275 17.7787C15.2905 17.7685 15.3091 17.7639 15.3277 17.7657C15.3524 17.7657 15.3725 17.7599 15.3725 17.7527C15.3725 17.7456 15.396 17.7397 15.4246 17.7397C15.4532 17.7397 15.4766 17.7339 15.4766 17.7267C15.4766 17.7196 15.4941 17.7137 15.5156 17.7137C15.5371 17.7137 15.5546 17.7078 15.5546 17.7007C15.5546 17.6935 15.5722 17.6877 15.5936 17.6877C15.6151 17.6877 15.6327 17.6818 15.6327 17.6747C15.6327 17.6675 15.647 17.6617 15.6652 17.6617C15.6796 17.6628 15.6939 17.6581 15.7048 17.6487C15.7091 17.6444 15.7142 17.641 15.7197 17.6388C15.7253 17.6365 15.7313 17.6355 15.7374 17.6357C15.751 17.6357 15.7624 17.6298 15.7624 17.6227C15.7624 17.6155 15.777 17.6097 15.7949 17.6097C15.8128 17.6097 15.8274 17.6038 15.8274 17.5966C15.8274 17.5895 15.8391 17.5836 15.8534 17.5836C15.8677 17.5836 15.8794 17.5778 15.8794 17.5706C15.8794 17.5635 15.8912 17.5576 15.9055 17.5576C15.9198 17.5576 15.9315 17.5518 15.9315 17.5446C15.9315 17.5375 15.9432 17.5316 15.9575 17.5316C15.9718 17.5316 15.9835 17.5258 15.9835 17.5186C15.9835 17.5115 15.9952 17.5056 16.0095 17.5056C16.0238 17.5056 16.0355 17.4998 16.0355 17.4926C16.0355 17.4854 16.0453 17.4796 16.057 17.4796C16.0843 17.4796 16.2176 17.4126 16.2176 17.3986C16.2176 17.3931 16.2293 17.3886 16.2436 17.3886C16.2579 17.3886 16.2696 17.3827 16.2696 17.3755C16.2696 17.3684 16.2774 17.3625 16.2869 17.3625C16.3039 17.3582 16.3195 17.3492 16.3317 17.3365C16.3424 17.325 16.3557 17.3161 16.3704 17.3105C16.3763 17.3105 16.3893 17.2988 16.3997 17.2845C16.4082 17.2715 16.4213 17.2621 16.4364 17.2585C16.4577 17.2506 16.4765 17.2371 16.4907 17.2195C16.5043 17.2026 16.5217 17.1892 16.5414 17.1805C16.5671 17.1674 16.5901 17.1498 16.6094 17.1284C16.6281 17.1076 16.65 17.0901 16.6744 17.0764C16.6907 17.0764 17.075 16.6921 17.075 16.6758C17.0886 16.6514 17.1062 16.6294 17.127 16.6108C17.1475 16.5919 17.1651 16.5699 17.1791 16.5458C17.1887 16.5261 17.2019 16.5085 17.2181 16.4938C17.2354 16.4779 17.2488 16.4582 17.2571 16.4362C17.2609 16.4215 17.2702 16.4088 17.2831 16.4008C17.2974 16.3904 17.3091 16.377 17.3091 16.3712C17.3148 16.3566 17.3237 16.3435 17.3351 16.3328C17.3477 16.3204 17.3567 16.3048 17.3611 16.2876C17.3607 16.2836 17.3618 16.2797 17.3642 16.2765C17.3666 16.2734 17.3702 16.2713 17.3741 16.2707C17.3758 16.2707 17.3775 16.2705 17.379 16.2699C17.3806 16.2693 17.382 16.2684 17.3832 16.2672C17.3844 16.2661 17.3854 16.2647 17.3861 16.2632C17.3867 16.2617 17.3871 16.26 17.3872 16.2583C17.3973 16.2302 17.4106 16.2034 17.4268 16.1784C17.4469 16.1457 17.4627 16.1106 17.474 16.074C17.4782 16.0532 17.4866 16.0366 17.4928 16.0366C17.499 16.0366 17.5042 16.0249 17.5042 16.0106C17.5042 15.9963 17.5101 15.9846 17.5172 15.9846C17.5244 15.9846 17.5302 15.9729 17.5302 15.9586C17.5302 15.9443 17.5361 15.9325 17.5432 15.9325C17.5504 15.9325 17.5562 15.9208 17.5562 15.9065C17.5562 15.8922 17.5621 15.8805 17.5692 15.8805C17.5764 15.8805 17.5822 15.8688 17.5822 15.8545C17.5822 15.8402 17.5881 15.8285 17.5952 15.8285C17.6024 15.8285 17.6083 15.8139 17.6083 15.796C17.6083 15.7781 17.6141 15.7635 17.6213 15.7635C17.6284 15.7635 17.6343 15.7521 17.6343 15.7381C17.634 15.7321 17.635 15.7261 17.6373 15.7205C17.6395 15.7148 17.6429 15.7098 17.6473 15.7056C17.6567 15.6945 17.6614 15.6801 17.6603 15.6656C17.6603 15.6484 17.6661 15.6331 17.6733 15.6331C17.6804 15.6331 17.6863 15.6155 17.6863 15.5941C17.6863 15.5726 17.6921 15.5551 17.6993 15.5551C17.7064 15.5551 17.7123 15.5375 17.7123 15.516C17.7123 15.4946 17.7182 15.477 17.7253 15.477C17.7325 15.477 17.7383 15.4536 17.7383 15.425C17.7383 15.3964 17.7442 15.373 17.7513 15.373C17.7585 15.373 17.7643 15.3528 17.7643 15.3281C17.7624 15.3096 17.767 15.2909 17.7773 15.2754C17.7878 15.2578 17.7924 15.2373 17.7903 15.2169C17.7882 15.1965 17.7928 15.1759 17.8033 15.1584C17.8281 15.1431 17.8193 15.0735 17.7936 15.0823C17.7751 15.0888 17.7757 15.0862 17.7968 15.0693C17.8111 15.0579 17.8176 15.0485 17.8111 15.0481C17.8046 15.0478 17.8085 15.0374 17.8203 15.0247C17.8352 15.0012 17.8421 14.9735 17.8401 14.9457V14.8892L17.8215 14.9174C17.8466 14.8781 17.8492 14.8605 17.8268 14.8739C17.8144 14.8813 17.8141 14.8794 17.8268 14.8648C17.8382 14.8353 17.8449 14.8043 17.8466 14.7727C17.8461 14.7763 17.8468 14.78 17.8485 14.7832C17.8521 14.7867 17.8589 14.777 17.8638 14.7617C17.8687 14.7464 17.8697 14.7292 17.8661 14.7272C17.8625 14.7253 17.8557 14.7331 17.8508 14.7487C17.8508 14.7519 17.8489 14.7555 17.8482 14.7588C17.8661 14.602 17.8755 14.324 17.8586 14.2652C17.8661 14.2694 17.871 14.2691 17.8713 14.2554ZM16.4761 13.611C16.4749 13.6126 16.4741 13.6144 16.4738 13.6164C16.4735 13.6183 16.4737 13.6203 16.4743 13.6222C16.475 13.624 16.4761 13.6257 16.4775 13.627C16.4789 13.6284 16.4807 13.6293 16.4826 13.6299C16.4808 13.6295 16.4791 13.6288 16.4777 13.6277C16.4762 13.6265 16.4751 13.6251 16.4743 13.6234C16.4735 13.6218 16.4732 13.62 16.4733 13.6181C16.4734 13.6163 16.4739 13.6145 16.4748 13.6129C16.4777 13.6084 16.4771 13.6045 16.4748 13.6025C16.4787 13.6022 16.48 13.6048 16.4761 13.611ZM16.3785 13.4364C16.3739 13.4289 16.3674 13.4227 16.3597 13.4185H16.3613C16.3652 13.4192 16.3714 13.426 16.3785 13.4364ZM16.4111 13.4965C16.4072 13.4878 16.4023 13.4777 16.3977 13.4679L16.3922 13.4569C16.3989 13.4697 16.4048 13.483 16.4098 13.4965H16.4111ZM15.3641 12.5061C15.3638 12.5038 15.3638 12.5014 15.3641 12.499C15.3633 12.5013 15.3629 12.5037 15.3628 12.5061H15.3641ZM15.3537 12.4892C15.3537 12.487 15.3566 12.486 15.3579 12.486C15.3556 12.4883 15.3536 12.4909 15.3521 12.4938C15.3459 12.5032 15.341 12.5058 15.3361 12.5022C15.3425 12.4992 15.348 12.4948 15.3524 12.4892H15.3537ZM15.3163 12.486C15.3125 12.4846 15.3086 12.4838 15.3046 12.4837H15.3072C15.3104 12.4835 15.3136 12.4843 15.3163 12.486ZM14.057 11.1981C14.0578 11.1994 14.0584 11.2008 14.0589 11.2023C14.0576 11.2003 14.0568 11.1981 14.0563 11.1958C14.0563 11.1958 14.0563 11.1971 14.057 11.1981ZM14.0518 11.203L14.0573 11.2056C14.0549 11.2052 14.0526 11.2043 14.0505 11.203C14.0466 11.2 14.0433 11.1963 14.0411 11.1919C14.0438 11.1963 14.0474 11.2001 14.0518 11.203ZM14.0076 11.1903C14.0021 11.1998 13.9985 11.2103 13.9972 11.2212C13.997 11.2238 13.997 11.2264 13.9972 11.229C13.9969 11.2255 13.9969 11.222 13.9972 11.2186C13.997 11.2134 13.9978 11.2082 13.9996 11.2034C14.0013 11.1985 14.0041 11.1941 14.0076 11.1903ZM16.6367 14.6742C16.6251 14.7054 16.6207 14.7387 16.6237 14.7718C16.6266 14.8048 16.6222 14.8382 16.6107 14.8693C16.6 14.8892 16.5955 14.9119 16.5977 14.9343C16.5977 14.9669 16.5918 14.9922 16.5847 14.9922C16.5775 14.9922 16.5717 15.0095 16.5717 15.0303C16.5732 15.0468 16.5686 15.0634 16.5587 15.0768C16.5488 15.0898 16.5441 15.106 16.5457 15.1223C16.5473 15.1377 16.5436 15.1531 16.5353 15.1662C16.5217 15.1884 16.5121 15.2128 16.507 15.2384C16.4969 15.2748 16.4842 15.3034 16.4784 15.3034C16.4725 15.3034 16.4676 15.3141 16.4676 15.3271C16.4679 15.3387 16.4645 15.3501 16.4579 15.3596C16.4528 15.3647 16.4493 15.3712 16.4478 15.3782C16.4441 15.3909 16.4388 15.403 16.4319 15.4143C16.4234 15.4295 16.4202 15.4468 16.4247 15.45C16.4293 15.4533 16.4247 15.4585 16.4179 15.4585C16.4133 15.4591 16.4092 15.4615 16.4063 15.4652C16.4035 15.4688 16.4021 15.4734 16.4026 15.478C16.4026 15.4887 16.3968 15.4975 16.3896 15.4975C16.3824 15.4975 16.3766 15.5092 16.3766 15.5235C16.3766 15.5378 16.3707 15.5495 16.3636 15.5495C16.3564 15.5495 16.3506 15.5599 16.3506 15.5726C16.3493 15.581 16.3463 15.589 16.3419 15.5962C16.3374 15.6035 16.3315 15.6097 16.3246 15.6146C16.3178 15.619 16.3121 15.6247 16.3076 15.6314C16.3031 15.6381 16.3 15.6457 16.2986 15.6536C16.2954 15.6695 16.286 15.6835 16.2725 15.6926C16.2594 15.7009 16.25 15.7141 16.2465 15.7293C16.2386 15.7506 16.2252 15.7694 16.2075 15.7836C16.1912 15.7966 16.1779 15.8131 16.1685 15.8318C16.1685 15.8467 15.8547 16.1608 15.8395 16.1608C15.8208 16.1702 15.8044 16.1835 15.7913 16.1998C15.7775 16.2171 15.7595 16.2305 15.739 16.2388C15.7244 16.2421 15.7114 16.2501 15.7019 16.2616C15.6851 16.2781 15.6659 16.292 15.645 16.3029C15.6255 16.313 15.6092 16.326 15.6092 16.3322C15.6092 16.3383 15.5975 16.3429 15.5832 16.3429C15.5689 16.3429 15.5572 16.3471 15.5572 16.3526C15.5572 16.3582 15.5384 16.3705 15.515 16.3806C15.4915 16.3907 15.4437 16.4131 15.4086 16.4294C15.3829 16.4428 15.3556 16.4531 15.3273 16.4599C15.3179 16.4599 15.3101 16.4645 15.3101 16.4707C15.3101 16.4768 15.2805 16.4892 15.2451 16.499C15.2194 16.5043 15.1949 16.5139 15.1726 16.5276C15.1595 16.5358 15.1441 16.5395 15.1287 16.538C15.1124 16.5364 15.0962 16.5411 15.0832 16.551C15.0702 16.5609 15.0539 16.5655 15.0376 16.564C15.0214 16.5624 15.0051 16.5671 14.9921 16.577C14.9745 16.5875 14.954 16.592 14.9336 16.59C14.9132 16.5879 14.8927 16.5925 14.8751 16.603C14.8439 16.6146 14.8106 16.619 14.7775 16.616C14.7444 16.6131 14.7111 16.6175 14.68 16.629C14.6754 16.6365 14.6019 16.642 14.5044 16.642C14.4069 16.642 14.3334 16.6365 14.3288 16.629C14.2977 16.6175 14.2644 16.613 14.2313 16.616C14.1982 16.6189 14.1649 16.6145 14.1337 16.603C14.1138 16.5923 14.0912 16.5878 14.0687 16.59C14.0362 16.59 14.0108 16.5841 14.0108 16.577C14.0108 16.5698 13.9936 16.564 13.9725 16.564C13.956 16.5655 13.9395 16.5609 13.9263 16.551C13.9133 16.5411 13.897 16.5364 13.8808 16.538C13.8654 16.5394 13.85 16.5357 13.8369 16.5276C13.8146 16.514 13.7902 16.5043 13.7647 16.499C13.7283 16.4892 13.6997 16.4765 13.6997 16.4707C13.6997 16.4648 13.6922 16.4599 13.6828 16.4599C13.6534 16.4525 13.625 16.4416 13.5982 16.4274C13.5725 16.4139 13.5455 16.403 13.5176 16.3949C13.5141 16.3949 13.5108 16.3935 13.5084 16.3911C13.5059 16.3887 13.5046 16.3853 13.5046 16.3819C13.5046 16.3747 13.4929 16.3689 13.4786 16.3689C13.4643 16.3689 13.4525 16.363 13.4525 16.3559C13.4525 16.3487 13.4421 16.3429 13.4295 16.3429C13.4211 16.3416 13.413 16.3386 13.4058 16.3342C13.3986 16.3297 13.3924 16.3238 13.3875 16.3169C13.3785 16.3034 13.3644 16.294 13.3485 16.2909C13.3326 16.2877 13.3185 16.2783 13.3095 16.2648C13.3011 16.2517 13.2879 16.2424 13.2727 16.2388C13.2515 16.2309 13.2327 16.2175 13.2184 16.1998C13.2056 16.1841 13.1899 16.1708 13.1723 16.1608C13.1167 16.1153 13.0639 16.0664 13.0143 16.0145C12.933 15.9338 12.8608 15.8662 12.8536 15.8636C12.8495 15.8612 12.8462 15.8576 12.844 15.8533C12.8418 15.8491 12.8409 15.8443 12.8413 15.8396C12.8339 15.8176 12.8203 15.7982 12.8023 15.7836C12.785 15.7697 12.7715 15.7516 12.7632 15.731C12.7599 15.7164 12.7519 15.7034 12.7405 15.6939C12.724 15.6772 12.7101 15.6581 12.6992 15.6373C12.6891 15.6175 12.6761 15.6015 12.6699 15.6015C12.6637 15.6015 12.6592 15.5898 12.6592 15.5755C12.6592 15.5612 12.6546 15.5495 12.6494 15.5495C12.6442 15.5495 12.6312 15.5303 12.6215 15.5073C12.6117 15.4842 12.589 15.436 12.5727 15.4006C12.5591 15.3749 12.5489 15.3476 12.5421 15.3193C12.5421 15.3099 12.5373 15.3024 12.5314 15.3024C12.5256 15.3024 12.5129 15.2728 12.5028 15.2374C12.4977 15.2119 12.4881 15.1874 12.4745 15.1652C12.4663 15.1521 12.4627 15.1367 12.4641 15.1213C12.4656 15.105 12.461 15.0888 12.4511 15.0758C12.4412 15.0624 12.4366 15.0459 12.4381 15.0293C12.4381 15.0085 12.4322 14.9912 12.4251 14.9912C12.4179 14.9912 12.4121 14.9652 12.4121 14.9334C12.4143 14.9109 12.4098 14.8882 12.3991 14.8683C12.3873 14.8372 12.3829 14.8039 12.3861 14.7708C12.3885 14.7364 12.3838 14.7019 12.3724 14.6694C12.3497 14.6469 12.375 14.152 12.4 14.126C12.4097 14.1046 12.4138 14.0812 12.4121 14.0577C12.4121 14.0269 12.4173 14.0018 12.4238 14.0018C12.4303 14.0018 12.4384 13.9872 12.4586 13.8685C12.4631 13.8415 12.4713 13.8197 12.4761 13.8197C12.4901 13.8005 12.4993 13.7782 12.5031 13.7547C12.5129 13.7189 12.5256 13.6897 12.5314 13.6897C12.5373 13.6897 12.5421 13.6809 12.5421 13.6698C12.5433 13.6551 12.5474 13.6407 12.5542 13.6276C12.5607 13.6152 12.5825 13.57 12.6029 13.5271C12.6151 13.4978 12.6307 13.4701 12.6494 13.4445C12.655 13.4422 12.6592 13.4292 12.6592 13.4153C12.6592 13.4013 12.6641 13.3905 12.6699 13.3905C12.6758 13.3905 12.6891 13.3743 12.6992 13.3548C12.7109 13.3331 12.7247 13.3126 12.7405 13.2937C12.7508 13.2838 12.7586 13.2717 12.7632 13.2582C12.7632 13.2231 13.237 12.7533 13.2724 12.7533C13.2864 12.7496 13.2988 12.7415 13.3079 12.7302C13.3249 12.714 13.344 12.7002 13.3648 12.6892C13.3846 12.6791 13.4005 12.6658 13.4005 12.6599C13.4005 12.6541 13.4122 12.6492 13.4265 12.6492C13.4408 12.6492 13.4525 12.6434 13.4525 12.6362C13.4525 12.6291 13.4639 12.6232 13.4776 12.6232C13.4829 12.6237 13.4882 12.6231 13.4933 12.6215C13.4983 12.6198 13.5029 12.617 13.5068 12.6134C13.523 12.6006 13.5411 12.5905 13.5605 12.5835C13.5891 12.5702 13.6226 12.5543 13.6353 12.5478C13.6485 12.5413 13.6629 12.5374 13.6776 12.5364C13.6883 12.5364 13.6971 12.5315 13.6971 12.5257C13.6971 12.5198 13.7263 12.5071 13.7621 12.4974C13.7856 12.4936 13.8078 12.4843 13.8271 12.4704C13.8271 12.4652 13.8476 12.4577 13.8726 12.4531L13.9637 12.4372C13.9887 12.433 14.0092 12.4242 14.0092 12.4177C14.0092 12.4112 14.0352 12.4063 14.0671 12.4063C14.0896 12.4085 14.1122 12.404 14.1321 12.3933C14.1633 12.3818 14.1966 12.3774 14.2297 12.3803C14.2627 12.3833 14.296 12.3788 14.3272 12.3673C14.3317 12.3595 14.4052 12.3543 14.5028 12.3543C14.6003 12.3543 14.6738 12.3595 14.6784 12.3673C14.7095 12.3788 14.7428 12.3832 14.7759 12.3803C14.8088 12.3775 14.8419 12.3812 14.8734 12.391C14.8927 12.4008 14.9143 12.4053 14.9359 12.4041C14.9684 12.4041 14.9937 12.4122 14.996 12.4193C14.9983 12.4265 15.0172 12.4323 15.0376 12.4323C15.0538 12.4309 15.0699 12.4355 15.0828 12.4453C15.0954 12.4551 15.1112 12.4597 15.1271 12.4584C15.1425 12.4573 15.158 12.4603 15.1719 12.4671C15.1937 12.4889 15.2695 12.5071 15.2714 12.4909C15.2716 12.4924 15.2716 12.4939 15.2714 12.4954C15.2714 12.5091 15.275 12.5107 15.2792 12.5006C15.2805 12.4976 15.2825 12.4949 15.2851 12.4928C15.284 12.4946 15.2835 12.4966 15.2835 12.4987C15.2835 12.5065 15.2919 12.5097 15.3023 12.5058C15.3127 12.5019 15.3189 12.5058 15.314 12.5175C15.3091 12.5292 15.314 12.5364 15.3335 12.5364C15.3454 12.5358 15.3571 12.5399 15.366 12.5478C15.3816 12.5728 15.4239 12.5731 15.422 12.5478C15.422 12.5344 15.4138 12.524 15.4067 12.525C15.3958 12.5269 15.3847 12.5261 15.3742 12.5227C15.3861 12.5256 15.3986 12.5256 15.4106 12.5227C15.4197 12.5227 15.4262 12.525 15.4252 12.5309C15.42 12.5614 15.433 12.5722 15.498 12.5926C15.5059 12.5949 15.513 12.5975 15.5202 12.6001C15.5104 12.6001 15.5055 12.6037 15.5111 12.6128C15.5141 12.6168 15.5179 12.62 15.5224 12.6223C15.5268 12.6246 15.5317 12.6258 15.5367 12.6258C15.5418 12.6259 15.5467 12.6276 15.5509 12.6304C15.555 12.6333 15.5583 12.6374 15.5602 12.6421C15.5634 12.6508 15.5712 12.6534 15.5777 12.6473C15.5842 12.6411 15.5777 12.6307 15.567 12.6209C15.5717 12.6232 15.5759 12.6264 15.5793 12.6304C15.5922 12.6438 15.6074 12.6548 15.6242 12.6629C15.6151 12.6599 15.6086 12.659 15.6086 12.6629C15.6221 12.6824 15.6415 12.697 15.6639 12.7048C15.6775 12.7048 15.6769 12.6973 15.6665 12.6876C15.669 12.6889 15.6714 12.6906 15.6736 12.6925C15.6831 12.7013 15.6931 12.7096 15.7035 12.7172C15.6938 12.712 15.6866 12.7097 15.6866 12.7126C15.6866 12.7282 15.7263 12.7594 15.7406 12.7546C15.7455 12.7529 15.7435 12.7477 15.7377 12.7412C15.7537 12.7532 15.7712 12.7631 15.7897 12.7705C15.7975 12.7705 15.8037 12.7793 15.8037 12.79C15.8037 12.7952 15.8057 12.8001 15.8094 12.8038C15.8131 12.8075 15.818 12.8095 15.8232 12.8095C15.8339 12.8095 15.8427 12.815 15.8427 12.8215C15.8427 12.828 15.8544 12.8375 15.8687 12.842C15.883 12.8466 15.8947 12.8586 15.8947 12.8687C15.8946 12.8735 15.8963 12.8781 15.8995 12.8816C15.9027 12.8852 15.9072 12.8873 15.912 12.8875H15.9159C15.948 12.9331 15.9847 12.9753 16.0254 13.0134C16.0931 13.083 16.1503 13.136 16.1526 13.1308C16.1548 13.1256 16.1396 13.1057 16.1181 13.0823C16.1329 13.0961 16.1454 13.1121 16.1552 13.1298C16.1611 13.1419 16.169 13.1529 16.1786 13.1623H16.176C16.1698 13.1623 16.1727 13.1717 16.1825 13.1844C16.2117 13.2211 16.2306 13.2397 16.2394 13.2397C16.2433 13.2397 16.2394 13.2325 16.2339 13.2231C16.2391 13.2287 16.2432 13.2354 16.2459 13.2426C16.2488 13.2523 16.2539 13.2612 16.2608 13.2686C16.2524 13.2634 16.2459 13.2637 16.2459 13.2732C16.2564 13.2916 16.2724 13.3063 16.2917 13.3151C16.2947 13.3151 16.2917 13.3086 16.2888 13.2998C16.3 13.3154 16.3099 13.332 16.3184 13.3493C16.3298 13.3733 16.3451 13.3931 16.3509 13.3931C16.3568 13.3931 16.3607 13.399 16.3561 13.4062C16.3516 13.4133 16.3535 13.4172 16.3584 13.4185C16.3529 13.4185 16.3496 13.4214 16.3496 13.4322C16.3493 13.4353 16.3503 13.4384 16.3523 13.4409C16.3543 13.4433 16.3572 13.4448 16.3603 13.4452C16.3659 13.4452 16.3789 13.4657 16.3886 13.4907C16.3984 13.5157 16.4117 13.5362 16.4179 13.5362H16.4211C16.4239 13.5451 16.4291 13.5531 16.4361 13.5593H16.4341C16.4176 13.5531 16.4176 13.5567 16.4341 13.584C16.4455 13.6016 16.4504 13.6165 16.4446 13.6165C16.4387 13.6165 16.441 13.6234 16.4494 13.6321C16.4588 13.6431 16.4643 13.6568 16.465 13.6711C16.465 13.6838 16.4696 13.6946 16.4751 13.6946C16.4806 13.6946 16.4933 13.7222 16.5031 13.7563C16.5258 13.8353 16.531 13.8441 16.5437 13.8233C16.5496 13.8139 16.5512 13.8301 16.5473 13.8594C16.5434 13.8887 16.5457 13.9157 16.5548 13.9212C16.5655 13.9344 16.5707 13.9513 16.5691 13.9683C16.5691 13.9895 16.5749 14.0067 16.5821 14.0067C16.5892 14.0067 16.5951 14.0327 16.5951 14.0643C16.593 14.0867 16.5975 14.1093 16.6081 14.1293C16.6197 14.1604 16.6241 14.1937 16.6211 14.2268C16.6182 14.2599 16.6226 14.2932 16.6341 14.3244C16.6416 14.3289 16.6471 14.4021 16.6471 14.4999C16.6471 14.5978 16.6442 14.6694 16.6367 14.6742ZM15.3686 12.5185C15.3695 12.5193 15.3705 12.5199 15.3716 12.5205C15.3711 12.5198 15.3706 12.5192 15.3703 12.5185H15.3686Z" fill="#191919"/>
</svg>
