<svg width="113" height="19" viewBox="0 0 113 19" fill="none" xmlns="http://www.w3.org/2000/svg">
<path d="M44.3232 1.72189C44.3232 0.769979 45.0916 0 46.0375 0C46.9864 0 47.7578 0.769979 47.7578 1.72189C47.7578 2.67267 46.9864 3.44356 46.0375 3.44356C45.0916 3.44356 44.3232 2.67267 44.3232 1.72189Z" fill="#273B7D"/>
<path d="M71.4209 13.1752C71.4209 12.2228 72.1888 11.4521 73.1347 11.4521C74.0834 11.4521 74.8545 12.223 74.8545 13.1752C74.8545 14.125 74.0834 14.8966 73.1347 14.8966C72.1888 14.8966 71.4209 14.125 71.4209 13.1752Z" fill="#499FDD"/>
<path d="M16.1366 12.4308C14.6574 12.4308 13.6296 11.2563 13.6296 9.57755C13.6296 7.89927 14.6574 6.72543 16.1366 6.72543C17.6241 6.72543 18.6635 7.89927 18.6635 9.57755C18.6633 11.2827 17.6458 12.431 16.1366 12.4308ZM16.1366 4.21773C13.0074 4.21773 10.7363 6.47254 10.7363 9.57755C10.7363 12.6828 13.0074 14.9369 16.1366 14.9369C19.2775 14.9369 21.5581 12.6826 21.5581 9.57755C21.5581 6.47254 19.2775 4.21773 16.1366 4.21773ZM40.9971 9.84559C40.8755 9.61665 40.736 9.42297 40.5873 9.26906L40.4926 9.16849L40.5921 9.07312C40.7358 8.9217 40.8827 8.74225 41.0242 8.53411L43.7857 4.42904H40.4334L38.3585 7.64028C38.241 7.81249 38.0039 7.89927 37.6489 7.89927H37.1761V1.82824C37.1761 0.613937 36.4196 0.44873 35.6024 0.44873H34.2033L34.2057 14.7792H37.1761V10.4806H37.4545C37.793 10.4806 38.0236 10.5197 38.1293 10.7039L39.7681 13.7967C40.2257 14.6361 40.682 14.7792 41.5401 14.7792H43.8166L42.1212 11.9747L40.9971 9.84559ZM55.4177 4.19468C53.9066 4.19468 52.9425 4.8659 52.4024 5.43361L52.222 5.616L52.1583 5.36784C51.9996 4.75968 51.4645 4.4252 50.6595 4.4252H49.3281L49.3365 14.7753H52.2867V10.0049C52.2867 9.53845 52.3472 9.13368 52.4706 8.76462C52.799 7.64705 53.7152 6.95211 54.8601 6.95211C55.7811 6.95211 56.1409 7.43801 56.1409 8.69389V13.2017C56.1409 14.2736 56.6367 14.7751 57.7093 14.7751H59.1132L59.1085 8.19217C59.1085 5.5769 57.8329 4.19423 55.4181 4.19423M46.0766 4.42995H44.6781L44.6876 12.4326H44.6867V14.778H46.1795C46.1982 14.778 46.2134 14.7801 46.2321 14.7801L46.9273 14.778H47.6193V14.774H47.6241L47.6299 6.00132C47.6299 4.94274 47.1239 4.43017 46.0773 4.43017M27.725 12.4308C26.246 12.4308 25.2162 11.2563 25.2162 9.57755C25.2162 7.89927 26.246 6.72543 27.725 6.72543C29.2096 6.72543 30.2517 7.89927 30.2517 9.57755C30.2514 11.2827 29.2342 12.431 27.725 12.4308ZM27.725 4.21773C24.5926 4.21773 22.3211 6.47254 22.3211 9.57755C22.3211 12.6828 24.5926 14.9369 27.725 14.9369C30.8628 14.9369 33.1469 12.6826 33.1469 9.57755C33.1469 6.47254 30.8628 4.21773 27.725 4.21773Z" fill="#273B7D"/>
<path d="M90.9637 12.4308C89.4853 12.4308 88.4547 11.2563 88.4547 9.57759C88.4547 7.89931 89.4853 6.72547 90.9637 6.72547C92.4486 6.72547 93.4911 7.89931 93.4911 9.57759C93.4911 11.2828 92.4734 12.4311 90.9637 12.4308ZM90.9637 4.21777C87.8321 4.21777 85.5605 6.47258 85.5605 9.57759C85.5605 12.6828 87.8321 14.937 90.9637 14.937C94.1018 14.937 96.3855 12.6826 96.3855 9.57759C96.3855 6.47258 94.1018 4.21777 90.9637 4.21777Z" fill="#499FDD"/>
<path d="M65.3295 11.9754C63.7166 11.9754 63.1425 10.5681 63.1425 9.24939C63.1425 8.66834 63.2894 6.77468 65.1745 6.77468C66.1113 6.77468 67.3599 7.04317 67.3599 9.34679C67.3599 11.5196 66.255 11.9754 65.3295 11.9754ZM68.8915 4.40191C68.3317 4.40191 67.9007 4.6252 67.6849 5.0329L67.6033 5.1911L67.4666 5.07245C66.9904 4.66022 66.1366 4.17139 64.7498 4.17139C61.9911 4.17139 60.1338 6.24336 60.1338 9.3269C60.1338 12.4066 62.0555 14.559 64.8052 14.559C65.7445 14.559 66.4866 14.3398 67.0752 13.8944L67.303 13.7233V14.011C67.303 15.3934 66.4089 16.1559 64.7883 16.1559C64.0006 16.1559 63.2838 15.9643 62.8044 15.7903C62.1784 15.6013 61.8116 15.7577 61.5578 16.3856L61.3237 16.9648L60.9924 17.8112L61.1976 17.9206C62.2347 18.4709 63.585 18.7995 64.8054 18.7995C67.3181 18.7995 70.2518 17.5133 70.2518 13.8941L70.2624 4.40168H68.8917" fill="#273B7D"/>
<path d="M5.14874 12.3118L2.74703 12.3094V9.43824C2.74703 8.82465 2.98501 8.50554 3.51091 8.43209H5.14874C6.31783 8.43209 7.07289 9.16953 7.0738 10.3621C7.07312 11.5861 6.33659 12.3112 5.14874 12.3118ZM2.74726 4.56613V3.81039C2.74726 3.14889 3.02704 2.83452 3.64131 2.79407H4.8703C5.92436 2.79407 6.55558 3.42483 6.55558 4.48002C6.55558 5.28481 6.12347 6.22362 4.90917 6.22362H2.74749L2.74726 4.56613ZM8.21601 7.43181L7.78186 7.18773L8.16086 6.86365C8.60156 6.48465 9.34058 5.63263 9.34058 4.16069C9.34058 1.90815 7.59338 0.454517 4.88928 0.454517H1.80348V0.453613H1.45205C0.650425 0.482993 0.008814 1.135 0 1.94182V14.7266H1.41611C1.41973 14.7273 1.42086 14.7266 1.42199 14.7273L4.95008 14.7266C7.95611 14.7266 9.89631 13.0904 9.89631 10.556C9.89631 9.19167 9.26917 8.02506 8.21533 7.43181" fill="#273B7D"/>
<path d="M109.565 4.22825C108.34 4.22825 107.157 4.80162 106.397 5.7628L106.184 6.03377L106.016 5.73071C105.47 4.73427 104.529 4.22825 103.221 4.22825C101.85 4.22825 100.93 4.99327 100.503 5.44821L100.223 5.75104L100.116 5.35283C99.9598 4.77947 99.4495 4.46375 98.6762 4.46375H97.4361L97.4241 14.7739H100.242V10.2227C100.242 9.82402 100.291 9.42942 100.391 9.0172C100.66 7.91748 101.399 6.7346 102.642 6.85279C103.408 6.92624 103.782 7.51837 103.782 8.66193V14.7739H106.62V10.2227C106.62 9.72458 106.666 9.35168 106.778 8.97742C107.007 7.92765 107.779 6.85121 108.977 6.85121C109.845 6.85121 110.166 7.34231 110.166 8.66193V13.2667C110.166 14.3083 110.63 14.7739 111.671 14.7739H112.997L113 8.19184C113 5.56256 111.842 4.22825 109.564 4.22825M83.9292 11.194C83.9208 11.2042 82.7084 12.4827 81.1121 12.4827C79.6578 12.4827 78.1886 11.5904 78.1886 9.59824C78.1886 7.87838 79.3278 6.67629 80.9584 6.67629C81.4879 6.67629 82.0902 6.8659 82.1845 7.18501L82.1983 7.2388C82.4155 7.96223 83.0729 8.0011 83.2022 8.0011L84.7457 8.00268V6.65324C84.7457 4.87349 82.4819 4.22803 80.9584 4.22803C77.7006 4.22803 75.3369 6.49616 75.3369 9.61971C75.3369 12.7419 77.6751 15.0069 80.899 15.0069C83.696 15.0069 85.2172 13.1681 85.2314 13.1498L85.3126 13.0502L84.0901 11.0223L83.9292 11.194Z" fill="#499FDD"/>
</svg>
