<svg xmlns="http://www.w3.org/2000/svg" width="17" height="17" viewBox="0 0 17 17" fill="none">
  <path d="M4.27877 3.55939C5.36169 2.47287 6.78794 1.7956 8.31436 1.64303C9.84078 1.49046 11.3729 1.87204 12.6494 2.72272C13.926 3.57339 14.8679 4.8405 15.3148 6.30801C15.7616 7.77552 15.6856 9.35257 15.0997 10.7703C14.5138 12.1881 13.4544 13.3587 12.1019 14.0827C10.7495 14.8066 9.18779 15.0391 7.68312 14.7404C6.17845 14.4418 4.82394 13.6305 3.85053 12.4449C2.87711 11.2593 2.34505 9.77272 2.34506 8.23869C2.34506 8.05683 2.27281 7.88242 2.14422 7.75382C2.01562 7.62523 1.84121 7.55298 1.65935 7.55298C1.47748 7.55298 1.30307 7.62523 1.17447 7.75382C1.04588 7.88242 0.973633 8.05683 0.973633 8.23869C0.973559 10.0901 1.61567 11.8843 2.79048 13.3153C3.96529 14.7463 5.60007 15.7255 7.4161 16.0859C9.23212 16.4464 11.117 16.1658 12.7492 15.292C14.3815 14.4182 15.6602 13.0053 16.3673 11.2942C17.0743 9.58303 17.166 7.67963 16.6266 5.90848C16.0873 4.13733 14.9503 2.60809 13.4095 1.58149C11.8687 0.554878 10.0196 0.0944688 8.17734 0.278754C6.33508 0.46304 4.61377 1.28061 3.30689 2.59207C3.28386 2.61492 3.26248 2.63936 3.24289 2.66522L2.09363 1.51505C2.03217 1.45345 1.9544 1.41067 1.86947 1.39174C1.78453 1.37281 1.69596 1.37851 1.61416 1.40818C1.53235 1.43785 1.46071 1.49025 1.40766 1.55922C1.35461 1.6282 1.32234 1.71088 1.31466 1.79756L0.991918 5.35321C0.985886 5.41992 0.994586 5.48714 1.0174 5.55011C1.04022 5.61308 1.07659 5.67027 1.12395 5.71763C1.17132 5.76499 1.22851 5.80137 1.29148 5.82419C1.35445 5.847 1.42167 5.8557 1.48837 5.84967L5.04494 5.52601C5.13128 5.51788 5.21352 5.48535 5.28207 5.43223C5.35062 5.37911 5.40265 5.30759 5.43207 5.22602C5.4615 5.14444 5.46712 5.05618 5.44827 4.97153C5.42942 4.88688 5.38689 4.80934 5.32563 4.74796L4.20288 3.62522C4.22974 3.60514 4.2551 3.58314 4.27877 3.55939Z" fill="#848484"/>
  <path d="M9.65933 3.66727C9.65933 3.48541 9.58709 3.311 9.45849 3.1824C9.3299 3.0538 9.15548 2.98156 8.97362 2.98156C8.79176 2.98156 8.61734 3.0538 8.48875 3.1824C8.36015 3.311 8.28791 3.48541 8.28791 3.66727V8.23869C8.28786 8.35495 8.31737 8.46931 8.37366 8.57103C8.42996 8.67275 8.5112 8.75848 8.60973 8.82018L11.3526 10.5345C11.5068 10.631 11.693 10.6623 11.8703 10.6215C11.9581 10.6012 12.0411 10.5639 12.1144 10.5117C12.1878 10.4594 12.2502 10.3932 12.298 10.3169C12.3457 10.2405 12.378 10.1555 12.3929 10.0666C12.4079 9.9778 12.4052 9.8869 12.3849 9.79911C12.3647 9.71133 12.3274 9.62838 12.2752 9.55501C12.2229 9.48164 12.1567 9.41928 12.0804 9.37149L9.65933 7.85835V3.66727Z" fill="#848484"/>
</svg>