<svg width="30" height="30" viewBox="0 0 30 30" fill="none" xmlns="http://www.w3.org/2000/svg">
<rect x="0.5" y="0.5" width="29" height="29" rx="9.5" stroke="#E6B022"/>
<path fillRule="evenodd" clipRule="evenodd" d="M16.7023 10.5405C15.5743 10.6286 14.8348 11.2207 14.5706 12.2474C14.5397 12.3676 14.525 12.4522 14.4928 12.6959C14.4844 12.7599 14.4792 13.1261 14.4792 13.6482L14.4793 14.4964H13.6537H12.8281L12.8314 15.4357L12.8348 16.3749L13.657 16.3783L14.4793 16.3816V18.6489C14.4793 19.896 14.4828 20.9255 14.4872 20.9368C14.4933 20.9528 14.5149 20.9574 14.5836 20.9574C14.6429 20.9574 14.6739 20.9628 14.6775 20.9737C14.6853 20.9968 16.2956 20.9975 16.3099 20.9743C16.3154 20.9653 16.3577 20.9571 16.4101 20.9548L16.5008 20.9509L16.5041 18.6663L16.5074 16.3816L17.2636 16.3783L18.0197 16.3749L18.035 16.3034C18.0435 16.2641 18.0573 16.1822 18.0658 16.1214C18.0743 16.0606 18.0866 15.9787 18.093 15.9394C18.0994 15.9001 18.1112 15.824 18.1193 15.7704C18.1273 15.7168 18.139 15.6407 18.1453 15.6014C18.1515 15.5621 18.1632 15.486 18.1713 15.4324C18.1793 15.3788 18.191 15.3027 18.1973 15.2634C18.2035 15.2241 18.2152 15.148 18.2232 15.0944C18.2312 15.0408 18.2428 14.9677 18.249 14.9319C18.2553 14.8962 18.2672 14.8172 18.2755 14.7564C18.2837 14.6956 18.2959 14.6214 18.3024 14.5914C18.3089 14.5614 18.3143 14.5278 18.3143 14.5167C18.3143 14.4985 18.22 14.4964 17.4108 14.4964H16.5073V13.8447C16.5073 13.1339 16.5113 13.0806 16.5806 12.8615C16.655 12.626 16.8724 12.4103 17.1101 12.336C17.3158 12.2717 17.4393 12.2604 17.9394 12.2604H18.3923V11.4671V10.6738L18.3565 10.6602C18.3369 10.6527 18.274 10.6407 18.2168 10.6337C18.1596 10.6265 18.0718 10.6154 18.0218 10.6089C17.5856 10.5518 16.9677 10.5198 16.7023 10.5405Z" fill="white"/>
<path fillRule="evenodd" clipRule="evenodd" d="M14.7882 8.00569C14.7257 8.00849 14.6745 8.01639 14.6745 8.02328C14.6745 8.03013 14.631 8.03576 14.5778 8.03576C14.5246 8.03576 14.4774 8.04161 14.473 8.04876C14.4686 8.05591 14.436 8.06176 14.4007 8.06176C14.3654 8.06176 14.3365 8.06761 14.3365 8.07476C14.3365 8.08191 14.3043 8.08776 14.265 8.08776C14.2257 8.08776 14.1935 8.09361 14.1935 8.10076C14.1935 8.10791 14.1675 8.11376 14.1358 8.11376C14.104 8.11376 14.0744 8.11961 14.07 8.12676C14.0656 8.13391 14.0389 8.13976 14.0107 8.13976C13.9825 8.13976 13.9595 8.14561 13.9595 8.15276C13.9595 8.15991 13.9361 8.16576 13.9075 8.16576C13.8789 8.16576 13.8555 8.17161 13.8555 8.17876C13.8555 8.18591 13.8321 8.19176 13.8035 8.19176C13.7749 8.19176 13.7515 8.19761 13.7515 8.20476C13.7515 8.21191 13.7339 8.21776 13.7125 8.21776C13.6911 8.21776 13.6735 8.22361 13.6735 8.23076C13.6735 8.23791 13.653 8.24376 13.628 8.24376C13.603 8.24376 13.5825 8.24961 13.5825 8.25676C13.5825 8.26391 13.5686 8.26976 13.5515 8.26976C13.5225 8.26976 13.4141 8.29852 13.355 8.32185C13.3407 8.32751 13.3085 8.33918 13.2835 8.34776C13.2285 8.36667 13.1808 8.38581 13.1504 8.40128C13.138 8.40759 13.1161 8.41276 13.1017 8.41276C13.0873 8.41276 13.0755 8.41861 13.0755 8.42576C13.0755 8.43291 13.0638 8.43876 13.0495 8.43876C13.0352 8.43876 13.0235 8.44461 13.0235 8.45176C13.0235 8.45891 13.0092 8.46476 12.9918 8.46476C12.9743 8.46476 12.9564 8.47061 12.952 8.47776C12.9476 8.48491 12.9326 8.49076 12.9187 8.49076C12.9048 8.49076 12.8935 8.49661 12.8935 8.50376C12.8935 8.51091 12.8818 8.51676 12.8675 8.51676C12.8532 8.51676 12.8415 8.52261 12.8415 8.52976C12.8415 8.53691 12.8327 8.54276 12.8218 8.54276C12.8027 8.54276 12.7889 8.54818 12.7279 8.57974C12.7119 8.588 12.69 8.59476 12.6792 8.59476C12.6683 8.59476 12.6595 8.60061 12.6595 8.60776C12.6595 8.61491 12.6478 8.62076 12.6335 8.62076C12.6192 8.62076 12.6075 8.6255 12.6075 8.63132C12.6075 8.63714 12.587 8.64994 12.562 8.65976C12.537 8.66957 12.5165 8.68238 12.5165 8.68819C12.5165 8.69401 12.5048 8.69876 12.4905 8.69876C12.4762 8.69876 12.4645 8.70461 12.4645 8.71176C12.4645 8.71891 12.4528 8.72476 12.4385 8.72476C12.4242 8.72476 12.4125 8.73061 12.4125 8.73776C12.4125 8.74491 12.4021 8.75076 12.3894 8.75076C12.3767 8.75076 12.3578 8.76246 12.3475 8.77676C12.3372 8.79106 12.3211 8.80276 12.3117 8.80276C12.2889 8.80276 12.1601 8.86805 12.1547 8.88241C12.1523 8.88865 12.1446 8.89376 12.1375 8.89376C12.1305 8.89376 12.0992 8.91131 12.068 8.93276C12.0368 8.95421 12.0063 8.97176 12.0003 8.97176C11.9942 8.97176 11.9808 8.98346 11.9705 8.99776C11.9602 9.01206 11.9426 9.02376 11.9315 9.02376C11.9204 9.02376 11.9028 9.03546 11.8925 9.04976C11.8822 9.06406 11.8646 9.07576 11.8535 9.07576C11.8424 9.07576 11.8248 9.08746 11.8145 9.10176C11.8042 9.11606 11.7882 9.12776 11.779 9.12776C11.7698 9.12776 11.7439 9.14531 11.7215 9.16676C11.699 9.18821 11.674 9.20576 11.6659 9.20576C11.6578 9.20576 11.6428 9.21746 11.6325 9.23176C11.6222 9.24606 11.6057 9.25776 11.5958 9.25776C11.586 9.25776 11.5616 9.27531 11.5415 9.29676C11.5214 9.31821 11.5013 9.33576 11.4967 9.33576C11.4879 9.33576 11.4749 9.34596 11.4098 9.40401C11.3878 9.42367 11.3647 9.43976 11.3585 9.43976C11.3523 9.43976 11.3222 9.46468 11.2916 9.49517C11.261 9.52565 11.2155 9.56504 11.1905 9.58272C11.1655 9.60037 11.0878 9.67343 11.0178 9.74503C10.8649 9.90161 10.8984 9.86817 10.7418 10.0211C10.6702 10.091 10.5971 10.1687 10.5795 10.1938C10.5618 10.2188 10.5224 10.2643 10.4919 10.2949C10.4614 10.3254 10.4365 10.3555 10.4365 10.3617C10.4365 10.3679 10.4204 10.3911 10.4007 10.4131C10.3427 10.4782 10.3325 10.4912 10.3325 10.5C10.3325 10.5046 10.3149 10.5247 10.2935 10.5448C10.272 10.5648 10.2545 10.5892 10.2545 10.5991C10.2545 10.6089 10.2428 10.6255 10.2285 10.6358C10.2142 10.6461 10.2025 10.662 10.2025 10.6711C10.2025 10.6803 10.1966 10.6878 10.1895 10.6878C10.1823 10.6878 10.1765 10.6952 10.1765 10.7044C10.1765 10.7135 10.1648 10.7295 10.1505 10.7398C10.1362 10.7501 10.1245 10.7676 10.1245 10.7788C10.1245 10.7899 10.1128 10.8075 10.0985 10.8178C10.0842 10.8281 10.0725 10.8456 10.0725 10.8568C10.0725 10.8679 10.0608 10.8855 10.0465 10.8958C10.0322 10.9061 10.0205 10.9236 10.0205 10.9348C10.0205 10.9459 10.0088 10.9635 9.9945 10.9738C9.9802 10.9841 9.9685 10.9974 9.9685 11.0035C9.9685 11.0096 9.95095 11.0401 9.9295 11.0713C9.90805 11.1024 9.8905 11.1337 9.8905 11.1408C9.8905 11.1478 9.8854 11.1555 9.87916 11.1579C9.8659 11.163 9.7995 11.2913 9.7995 11.3119C9.7995 11.3196 9.7878 11.3384 9.7735 11.3537C9.7592 11.3691 9.7475 11.3893 9.7475 11.3987C9.7475 11.4081 9.74165 11.4158 9.7345 11.4158C9.72735 11.4158 9.7215 11.4275 9.7215 11.4418C9.7215 11.4561 9.71565 11.4678 9.7085 11.4678C9.70135 11.4678 9.6955 11.4795 9.6955 11.4938C9.6955 11.5081 9.69075 11.5198 9.68494 11.5198C9.67912 11.5198 9.66631 11.5402 9.6565 11.5653C9.64668 11.5903 9.63388 11.6108 9.62806 11.6108C9.62224 11.6108 9.6175 11.6225 9.6175 11.6368C9.6175 11.6511 9.61165 11.6628 9.6045 11.6628C9.59735 11.6628 9.5915 11.6714 9.5915 11.6819C9.5915 11.6924 9.5798 11.7218 9.5655 11.7473C9.5512 11.7727 9.5395 11.8051 9.5395 11.8191C9.5395 11.8332 9.53365 11.8448 9.5265 11.8448C9.51935 11.8448 9.5135 11.8565 9.5135 11.8708C9.5135 11.8851 9.50765 11.8968 9.5005 11.8968C9.49335 11.8968 9.4875 11.9085 9.4875 11.9228C9.4875 11.9371 9.48165 11.9488 9.4745 11.9488C9.46735 11.9488 9.4615 11.9663 9.4615 11.9878C9.4615 12.0092 9.45565 12.0268 9.4485 12.0268C9.44135 12.0268 9.4355 12.0385 9.4355 12.0528C9.4355 12.0671 9.42965 12.0788 9.4225 12.0788C9.41535 12.0788 9.4095 12.0905 9.4095 12.1049C9.4095 12.1193 9.40433 12.1413 9.39803 12.1537C9.39169 12.1661 9.37931 12.1938 9.3705 12.2153C9.36169 12.2367 9.34931 12.2644 9.34297 12.2768C9.33667 12.2893 9.3315 12.3083 9.3315 12.3193C9.3315 12.3302 9.3262 12.3493 9.3197 12.3617C9.3003 12.3988 9.2665 12.5215 9.2665 12.5548C9.2665 12.5718 9.26065 12.5858 9.2535 12.5858C9.24635 12.5858 9.2405 12.6062 9.2405 12.6313C9.2405 12.6563 9.23465 12.6768 9.2275 12.6768C9.22035 12.6768 9.2145 12.6943 9.2145 12.7158C9.2145 12.7372 9.20865 12.7548 9.2015 12.7548C9.19435 12.7548 9.1885 12.7782 9.1885 12.8068C9.1885 12.8354 9.18265 12.8588 9.1755 12.8588C9.16835 12.8588 9.1625 12.8822 9.1625 12.9108C9.1625 12.9394 9.15665 12.9628 9.1495 12.9628C9.14235 12.9628 9.1365 12.9858 9.1365 13.014C9.1365 13.0422 9.13065 13.0688 9.1235 13.0733C9.11635 13.0777 9.1105 13.1073 9.1105 13.139C9.1105 13.1708 9.10465 13.1968 9.0975 13.1968C9.09035 13.1968 9.0845 13.226 9.0845 13.2618C9.0845 13.2975 9.07865 13.3268 9.0715 13.3268C9.06429 13.3268 9.0585 13.3612 9.0585 13.404C9.0585 13.4465 9.05265 13.4848 9.0455 13.4893C9.03835 13.4937 9.0325 13.5338 9.0325 13.5784C9.0325 13.626 9.02577 13.6663 9.01625 13.6758C9.00361 13.6884 9 13.8709 9 14.4996C9 15.134 9.00348 15.3082 9.01625 15.3125C9.02717 15.3161 9.0325 15.3475 9.0325 15.4078C9.0325 15.4591 9.03809 15.4978 9.0455 15.4978C9.05271 15.4978 9.0585 15.5324 9.0585 15.5758C9.0585 15.6191 9.06429 15.6538 9.0715 15.6538C9.07865 15.6538 9.0845 15.6826 9.0845 15.718C9.0845 15.7533 9.09035 15.7858 9.0975 15.7903C9.10465 15.7947 9.1105 15.821 9.1105 15.8488C9.1105 15.8765 9.11635 15.9028 9.1235 15.9073C9.13065 15.9117 9.1365 15.9413 9.1365 15.973C9.1365 16.0048 9.14235 16.0308 9.1495 16.0308C9.15665 16.0308 9.1625 16.0542 9.1625 16.0828C9.1625 16.1114 9.16835 16.1348 9.1755 16.1348C9.18265 16.1348 9.1885 16.1549 9.1885 16.1795C9.1885 16.2041 9.19435 16.2278 9.2015 16.2323C9.20865 16.2367 9.2145 16.2575 9.2145 16.2785C9.2145 16.2996 9.22035 16.3168 9.2275 16.3168C9.23465 16.3168 9.2405 16.334 9.2405 16.355C9.2405 16.376 9.24635 16.3968 9.2535 16.4013C9.26065 16.4057 9.2665 16.4235 9.2665 16.4408C9.2665 16.4705 9.34167 16.7139 9.37274 16.7848C9.38057 16.8026 9.39273 16.8319 9.39975 16.8498C9.40677 16.8676 9.41769 16.8924 9.42403 16.9048C9.43033 16.9173 9.4355 16.9363 9.4355 16.9471C9.4355 16.9579 9.44135 16.9668 9.4485 16.9668C9.45565 16.9668 9.4615 16.981 9.4615 16.9985C9.4615 17.0159 9.46735 17.0338 9.4745 17.0383C9.48165 17.0427 9.4875 17.0577 9.4875 17.0715C9.4875 17.0854 9.49335 17.0968 9.5005 17.0968C9.50765 17.0968 9.5135 17.1085 9.5135 17.1228C9.5135 17.1371 9.51935 17.1488 9.5265 17.1488C9.53365 17.1488 9.5395 17.1605 9.5395 17.1748C9.5395 17.1891 9.54535 17.2008 9.5525 17.2008C9.55965 17.2008 9.5655 17.2154 9.5655 17.2333C9.5655 17.2511 9.57135 17.2658 9.5785 17.2658C9.58565 17.2658 9.5915 17.274 9.5915 17.284C9.5915 17.3057 9.64571 17.4133 9.65975 17.4196C9.66511 17.422 9.6695 17.4351 9.6695 17.4488C9.6695 17.4625 9.67535 17.4738 9.6825 17.4738C9.68965 17.4738 9.6955 17.4855 9.6955 17.4998C9.6955 17.5141 9.70135 17.5258 9.7085 17.5258C9.71565 17.5258 9.7215 17.5375 9.7215 17.5518C9.7215 17.5661 9.72735 17.5778 9.7345 17.5778C9.74165 17.5778 9.7475 17.5854 9.7475 17.5948C9.7475 17.6042 9.7592 17.6244 9.7735 17.6398C9.7878 17.6551 9.7995 17.6744 9.7995 17.6827C9.7995 17.7016 9.86759 17.8297 9.88075 17.8356C9.88611 17.838 9.8905 17.8457 9.8905 17.8527C9.8905 17.8598 9.90805 17.8911 9.9295 17.9223C9.95095 17.9534 9.9685 17.9839 9.9685 17.99C9.9685 17.9961 9.9802 18.0095 9.9945 18.0198C10.0088 18.0301 10.0205 18.0476 10.0205 18.0588C10.0205 18.0699 10.0322 18.0875 10.0465 18.0978C10.0608 18.1081 10.0725 18.1256 10.0725 18.1368C10.0725 18.1479 10.0842 18.1655 10.0985 18.1758C10.1128 18.1861 10.1245 18.2036 10.1245 18.2148C10.1245 18.2259 10.1362 18.2435 10.1505 18.2538C10.1648 18.2641 10.1765 18.2791 10.1765 18.2872C10.1765 18.2953 10.194 18.3203 10.2155 18.3427C10.2369 18.3652 10.2545 18.3886 10.2545 18.3947C10.2545 18.4009 10.272 18.4243 10.2935 18.4467C10.3149 18.4692 10.3325 18.4907 10.3325 18.4947C10.3325 18.5028 10.3424 18.5154 10.3975 18.5769C10.4189 18.6009 10.4365 18.6256 10.4365 18.6318C10.4365 18.638 10.4614 18.6681 10.4919 18.6987C10.5224 18.7292 10.5618 18.7747 10.5795 18.7998C10.5971 18.8248 10.6702 18.9025 10.7418 18.9724C10.8984 19.1253 10.8649 19.0919 11.0178 19.2485C11.0878 19.3201 11.1654 19.3931 11.1903 19.4108C11.2153 19.4285 11.2641 19.4708 11.2989 19.5048C11.3337 19.5389 11.3674 19.5668 11.3738 19.5668C11.3802 19.5668 11.4071 19.5872 11.4337 19.6123C11.4602 19.6373 11.4871 19.6578 11.4935 19.6578C11.4999 19.6578 11.5214 19.6753 11.5415 19.6968C11.5616 19.7182 11.586 19.7358 11.5958 19.7358C11.6057 19.7358 11.6222 19.7475 11.6325 19.7618C11.6428 19.7761 11.6578 19.7878 11.6659 19.7878C11.674 19.7878 11.699 19.8053 11.7215 19.8268C11.7439 19.8482 11.7698 19.8658 11.779 19.8658C11.7882 19.8658 11.8042 19.8775 11.8145 19.8918C11.8248 19.9061 11.8424 19.9178 11.8535 19.9178C11.8646 19.9178 11.8822 19.9295 11.8925 19.9438C11.9028 19.9581 11.9204 19.9698 11.9315 19.9698C11.9426 19.9698 11.9602 19.9815 11.9705 19.9958C11.9808 20.0101 11.9942 20.0218 12.0003 20.0218C12.0063 20.0218 12.0368 20.0393 12.068 20.0608C12.0992 20.0822 12.131 20.0998 12.1386 20.0998C12.1462 20.0998 12.1525 20.1056 12.1525 20.1128C12.1525 20.1199 12.1642 20.1258 12.1785 20.1258C12.1928 20.1258 12.2045 20.1305 12.2045 20.1364C12.2045 20.1493 12.289 20.1908 12.3155 20.1908C12.3259 20.1908 12.3345 20.1966 12.3345 20.2038C12.3345 20.2109 12.3435 20.2168 12.3546 20.2168C12.3656 20.2168 12.3871 20.2285 12.4025 20.2428C12.4178 20.2571 12.4381 20.2688 12.4474 20.2688C12.4568 20.2688 12.4645 20.2746 12.4645 20.2818C12.4645 20.2889 12.4762 20.2948 12.4905 20.2948C12.5048 20.2948 12.5165 20.3006 12.5165 20.3078C12.5165 20.3149 12.5277 20.3208 12.5414 20.3208C12.5551 20.3208 12.5683 20.3251 12.5707 20.3305C12.5731 20.3359 12.6042 20.3541 12.64 20.371C12.6757 20.388 12.7275 20.4128 12.755 20.4263C12.7825 20.4397 12.8132 20.4508 12.8232 20.4508C12.8333 20.4508 12.8415 20.4566 12.8415 20.4638C12.8415 20.4709 12.8532 20.4768 12.8675 20.4768C12.8818 20.4768 12.8935 20.4815 12.8935 20.4874C12.8935 20.4933 12.9227 20.506 12.9585 20.5158C12.9943 20.5255 13.0235 20.5382 13.0235 20.5441C13.0235 20.55 13.0352 20.5548 13.0495 20.5548C13.0638 20.5548 13.0755 20.5606 13.0755 20.5678C13.0755 20.5749 13.0898 20.5808 13.1072 20.5808C13.1247 20.5808 13.1426 20.5866 13.147 20.5938C13.1514 20.6009 13.1693 20.6068 13.1868 20.6068C13.2042 20.6068 13.2185 20.6113 13.2185 20.6169C13.2185 20.6225 13.2463 20.6352 13.2802 20.6451C13.3142 20.655 13.3508 20.6675 13.3615 20.6727C13.3985 20.691 13.5206 20.7238 13.5515 20.7238C13.5686 20.7238 13.5825 20.7296 13.5825 20.7368C13.5825 20.7439 13.603 20.7498 13.628 20.7498C13.653 20.7498 13.6735 20.7556 13.6735 20.7628C13.6735 20.7699 13.694 20.7758 13.719 20.7758C13.744 20.7758 13.7645 20.7816 13.7645 20.7888C13.7645 20.7959 13.785 20.8018 13.81 20.8018C13.835 20.8018 13.8555 20.8076 13.8555 20.8148C13.8555 20.8219 13.8789 20.8278 13.9075 20.8278C13.9361 20.8278 13.9595 20.8336 13.9595 20.8408C13.9595 20.8479 13.9887 20.8538 14.0245 20.8538C14.0602 20.8538 14.0895 20.8596 14.0895 20.8668C14.0895 20.8739 14.1129 20.8798 14.1415 20.8798C14.1701 20.8798 14.1935 20.8856 14.1935 20.8928C14.1935 20.8999 14.2257 20.9058 14.265 20.9058C14.3043 20.9058 14.3365 20.9116 14.3365 20.9188C14.3365 20.9259 14.3687 20.9318 14.408 20.9318H14.4795V18.6569V16.382L13.6572 16.3786L12.835 16.3753L12.8317 15.436L12.8283 14.4968H13.6539H14.4795L14.4794 13.6485C14.4794 13.1265 14.4846 12.7602 14.4931 12.6963C14.5443 12.3085 14.5886 12.1295 14.6974 11.8708C15.1671 10.7545 16.1816 10.3696 18.022 10.6092C18.072 10.6158 18.1598 10.6269 18.217 10.634C18.2742 10.6411 18.3371 10.653 18.3567 10.6605L18.3925 10.6741V11.4674V12.2608H17.9396C17.4395 12.2608 17.316 12.272 17.1103 12.3363C16.8726 12.4106 16.6552 12.6264 16.5808 12.8618C16.5115 13.0809 16.5075 13.1343 16.5075 13.845V14.4968H17.411C18.2202 14.4968 18.3145 14.4989 18.3145 14.517C18.3145 14.5281 18.3091 14.5618 18.3026 14.5918C18.2961 14.6217 18.2839 14.696 18.2757 14.7568C18.2674 14.8175 18.2555 14.8965 18.2492 14.9323C18.243 14.968 18.2314 15.0411 18.2234 15.0948C18.2154 15.1484 18.2037 15.2244 18.1975 15.2638C18.1913 15.3031 18.1796 15.3791 18.1715 15.4328C18.1634 15.4864 18.1517 15.5624 18.1455 15.6018C18.1393 15.6411 18.1276 15.7171 18.1195 15.7708C18.1114 15.8244 18.0996 15.9004 18.0932 15.9398C18.0868 15.9791 18.0746 16.061 18.066 16.1218C18.0575 16.1825 18.0437 16.2644 18.0353 16.3038L18.02 16.3753L17.2637 16.3786L16.5075 16.382V18.6569V20.9318H16.579C16.6183 20.9318 16.6505 20.9259 16.6505 20.9188C16.6505 20.9116 16.6827 20.9058 16.722 20.9058C16.7613 20.9058 16.7935 20.8999 16.7935 20.8928C16.7935 20.8856 16.8169 20.8798 16.8455 20.8798C16.8741 20.8798 16.8975 20.8739 16.8975 20.8668C16.8975 20.8596 16.9267 20.8538 16.9625 20.8538C16.9982 20.8538 17.0275 20.8479 17.0275 20.8408C17.0275 20.8336 17.0509 20.8278 17.0795 20.8278C17.1081 20.8278 17.1315 20.8219 17.1315 20.8148C17.1315 20.8076 17.1516 20.8018 17.1762 20.8018C17.2008 20.8018 17.2246 20.7959 17.229 20.7888C17.2334 20.7816 17.2543 20.7758 17.2753 20.7758C17.2963 20.7758 17.3135 20.7699 17.3135 20.7628C17.3135 20.7556 17.334 20.7498 17.359 20.7498C17.384 20.7498 17.4045 20.7439 17.4045 20.7368C17.4045 20.7296 17.4184 20.7238 17.4355 20.7238C17.4664 20.7238 17.5885 20.691 17.6255 20.6727C17.6362 20.6675 17.6728 20.655 17.7067 20.6451C17.7407 20.6352 17.7685 20.6225 17.7685 20.6169C17.7685 20.6113 17.7828 20.6068 17.8002 20.6068C17.8177 20.6068 17.8356 20.6009 17.84 20.5938C17.8444 20.5866 17.8623 20.5808 17.8798 20.5808C17.8972 20.5808 17.9115 20.5749 17.9115 20.5678C17.9115 20.5606 17.9232 20.5548 17.9375 20.5548C17.9518 20.5548 17.9635 20.5489 17.9635 20.5418C17.9635 20.5346 17.9778 20.5288 17.9952 20.5288C18.0127 20.5288 18.0306 20.5229 18.035 20.5158C18.0394 20.5086 18.0544 20.5028 18.0683 20.5028C18.0822 20.5028 18.0935 20.4969 18.0935 20.4898C18.0935 20.4826 18.1052 20.4768 18.1195 20.4768C18.1338 20.4768 18.1455 20.4709 18.1455 20.4638C18.1455 20.4566 18.1543 20.4508 18.1652 20.4508C18.176 20.4508 18.195 20.4455 18.2074 20.4391C18.2198 20.4327 18.2826 20.402 18.347 20.371C18.4113 20.3399 18.4659 20.3101 18.4683 20.3046C18.4707 20.2992 18.4839 20.2948 18.4976 20.2948C18.5113 20.2948 18.5225 20.2889 18.5225 20.2818C18.5225 20.2746 18.5315 20.2688 18.5426 20.2688C18.5536 20.2688 18.5751 20.2571 18.5905 20.2428C18.6058 20.2285 18.6261 20.2168 18.6354 20.2168C18.6448 20.2168 18.6525 20.2116 18.6525 20.2054C18.6525 20.1991 18.6705 20.1904 18.6926 20.186C18.7146 20.1816 18.7492 20.1662 18.7693 20.1519C18.7895 20.1375 18.8124 20.1258 18.8203 20.1258C18.8281 20.1258 18.8345 20.1199 18.8345 20.1128C18.8345 20.1056 18.8408 20.0998 18.8484 20.0998C18.856 20.0998 18.8878 20.0822 18.919 20.0608C18.9502 20.0393 18.9807 20.0218 18.9867 20.0218C18.9928 20.0218 19.0062 20.0101 19.0165 19.9958C19.0268 19.9815 19.0444 19.9698 19.0555 19.9698C19.0666 19.9698 19.0842 19.9581 19.0945 19.9438C19.1048 19.9295 19.1224 19.9178 19.1335 19.9178C19.1446 19.9178 19.1622 19.9061 19.1725 19.8918C19.1828 19.8775 19.2004 19.8658 19.2115 19.8658C19.2226 19.8658 19.2402 19.8541 19.2505 19.8398C19.2608 19.8255 19.2767 19.8138 19.2859 19.8138C19.295 19.8138 19.3025 19.8079 19.3025 19.8008C19.3025 19.7936 19.31 19.7878 19.3191 19.7878C19.3283 19.7878 19.3442 19.7761 19.3545 19.7618C19.3648 19.7475 19.3813 19.7358 19.3912 19.7358C19.401 19.7358 19.4254 19.7182 19.4455 19.6968C19.4656 19.6753 19.4869 19.6578 19.493 19.6578C19.499 19.6578 19.5296 19.6344 19.5609 19.6058C19.5922 19.5772 19.6224 19.5538 19.628 19.5538C19.6336 19.5538 19.6716 19.5216 19.7126 19.4823C19.7535 19.4429 19.7922 19.4108 19.7986 19.4108C19.8051 19.4108 19.8747 19.3449 19.9533 19.2645C20.032 19.1841 20.1024 19.1124 20.1097 19.1053C20.2761 18.9432 20.4205 18.7951 20.4205 18.7865C20.4205 18.7805 20.4497 18.7455 20.4855 18.7088C20.5212 18.6721 20.5505 18.6373 20.5505 18.6315C20.5505 18.6258 20.5739 18.5954 20.6025 18.5642C20.6311 18.5329 20.6545 18.5028 20.6545 18.4974C20.6545 18.4919 20.672 18.4692 20.6935 18.4467C20.7149 18.4243 20.7325 18.4009 20.7325 18.3947C20.7325 18.3886 20.75 18.3652 20.7715 18.3427C20.7929 18.3203 20.8105 18.2953 20.8105 18.2872C20.8105 18.2791 20.8222 18.2641 20.8365 18.2538C20.8508 18.2435 20.8625 18.2259 20.8625 18.2148C20.8625 18.2036 20.8742 18.1861 20.8885 18.1758C20.9028 18.1655 20.9145 18.1479 20.9145 18.1368C20.9145 18.1256 20.9262 18.1081 20.9405 18.0978C20.9548 18.0875 20.9665 18.0699 20.9665 18.0588C20.9665 18.0476 20.9782 18.0301 20.9925 18.0198C21.0068 18.0095 21.0185 17.9961 21.0185 17.99C21.0185 17.9839 21.036 17.9534 21.0575 17.9223C21.0789 17.8911 21.0965 17.8598 21.0965 17.8527C21.0965 17.8457 21.1009 17.838 21.1062 17.8356C21.1194 17.8297 21.1875 17.7016 21.1875 17.6827C21.1875 17.6744 21.1992 17.6551 21.2135 17.6398C21.2278 17.6244 21.2395 17.6042 21.2395 17.5948C21.2395 17.5854 21.2453 17.5778 21.2525 17.5778C21.2596 17.5778 21.2655 17.5661 21.2655 17.5518C21.2655 17.5375 21.2713 17.5258 21.2785 17.5258C21.2856 17.5258 21.2915 17.5141 21.2915 17.4998C21.2915 17.4855 21.2973 17.4738 21.3045 17.4738C21.3116 17.4738 21.3175 17.4625 21.3175 17.4488C21.3175 17.4351 21.3219 17.422 21.3272 17.4196C21.3413 17.4133 21.3955 17.3057 21.3955 17.284C21.3955 17.274 21.4013 17.2658 21.4085 17.2658C21.4156 17.2658 21.4215 17.2511 21.4215 17.2333C21.4215 17.2154 21.4273 17.2008 21.4345 17.2008C21.4416 17.2008 21.4475 17.1891 21.4475 17.1748C21.4475 17.1605 21.4533 17.1488 21.4605 17.1488C21.4676 17.1488 21.4735 17.1371 21.4735 17.1228C21.4735 17.1085 21.4793 17.0968 21.4865 17.0968C21.4936 17.0968 21.4995 17.0854 21.4995 17.0715C21.4995 17.0577 21.5053 17.0427 21.5125 17.0383C21.5196 17.0338 21.5255 17.0159 21.5255 16.9985C21.5255 16.981 21.5313 16.9668 21.5385 16.9668C21.5456 16.9668 21.5515 16.9579 21.5515 16.9471C21.5515 16.9363 21.5567 16.9173 21.563 16.9048C21.5693 16.8924 21.581 16.8662 21.589 16.8465C21.597 16.8268 21.609 16.7976 21.6157 16.7815C21.6223 16.7654 21.6402 16.7142 21.6553 16.6678C21.6704 16.6213 21.688 16.5735 21.6945 16.5616C21.701 16.5498 21.7103 16.5101 21.7151 16.4736C21.7199 16.4371 21.729 16.404 21.7352 16.4002C21.7414 16.3963 21.7465 16.376 21.7465 16.355C21.7465 16.334 21.7523 16.3168 21.7595 16.3168C21.7666 16.3168 21.7725 16.2996 21.7725 16.2785C21.7725 16.2575 21.7783 16.2367 21.7855 16.2323C21.7926 16.2278 21.7985 16.2041 21.7985 16.1795C21.7985 16.1549 21.8043 16.1348 21.8115 16.1348C21.8186 16.1348 21.8245 16.1114 21.8245 16.0828C21.8245 16.0542 21.8303 16.0308 21.8375 16.0308C21.8446 16.0308 21.8505 16.0015 21.8505 15.9658C21.8505 15.93 21.8563 15.9008 21.8635 15.9008C21.8706 15.9008 21.8765 15.8777 21.8765 15.8495C21.8765 15.8214 21.8823 15.7947 21.8895 15.7903C21.8966 15.7858 21.9025 15.7533 21.9025 15.718C21.9025 15.6826 21.9083 15.6538 21.9155 15.6538C21.9227 15.6538 21.9285 15.6191 21.9285 15.5758C21.9285 15.5324 21.9343 15.4978 21.9415 15.4978C21.9489 15.4978 21.9545 15.4591 21.9545 15.4078C21.9545 15.3475 21.9598 15.3161 21.9707 15.3125C21.9945 15.3046 21.9945 13.6889 21.9707 13.681C21.9599 13.6774 21.9545 13.6462 21.9545 13.5864C21.9545 13.5374 21.9486 13.4937 21.9415 13.4893C21.9343 13.4848 21.9285 13.4497 21.9285 13.4113C21.9285 13.3728 21.9226 13.3377 21.9155 13.3333C21.9083 13.3288 21.9025 13.2963 21.9025 13.261C21.9025 13.2256 21.8966 13.1968 21.8895 13.1968C21.8823 13.1968 21.8765 13.1708 21.8765 13.139C21.8765 13.1073 21.8706 13.0777 21.8635 13.0733C21.8563 13.0688 21.8505 13.0422 21.8505 13.014C21.8505 12.9858 21.8446 12.9628 21.8375 12.9628C21.8303 12.9628 21.8245 12.9394 21.8245 12.9108C21.8245 12.8822 21.8186 12.8588 21.8115 12.8588C21.8043 12.8588 21.7985 12.8386 21.7985 12.814C21.7985 12.7894 21.7926 12.7657 21.7855 12.7613C21.7783 12.7568 21.7725 12.736 21.7725 12.715C21.7725 12.6939 21.7666 12.6768 21.7595 12.6768C21.7523 12.6768 21.7465 12.6563 21.7465 12.6313C21.7465 12.6062 21.7413 12.5858 21.735 12.5858C21.7287 12.5858 21.7195 12.5537 21.7146 12.5145C21.7097 12.4753 21.7003 12.4398 21.6936 12.4357C21.6869 12.4316 21.6815 12.4143 21.6815 12.3973C21.6815 12.3802 21.6756 12.3627 21.6685 12.3583C21.6613 12.3538 21.6555 12.3388 21.6555 12.3248C21.6555 12.3108 21.6503 12.2893 21.644 12.2768C21.6377 12.2644 21.6253 12.2367 21.6165 12.2153C21.6077 12.1938 21.5953 12.1661 21.589 12.1537C21.5827 12.1413 21.5775 12.1193 21.5775 12.1049C21.5775 12.0905 21.5716 12.0788 21.5645 12.0788C21.5573 12.0788 21.5515 12.0671 21.5515 12.0528C21.5515 12.0385 21.5456 12.0268 21.5385 12.0268C21.5313 12.0268 21.5255 12.0125 21.5255 11.995C21.5255 11.9776 21.5196 11.9597 21.5125 11.9553C21.5053 11.9508 21.4995 11.9359 21.4995 11.922C21.4995 11.9081 21.4936 11.8968 21.4865 11.8968C21.4793 11.8968 21.4735 11.8851 21.4735 11.8708C21.4735 11.8565 21.4676 11.8448 21.4605 11.8448C21.4533 11.8448 21.4475 11.8331 21.4475 11.8188C21.4475 11.8045 21.4416 11.7928 21.4345 11.7928C21.4273 11.7928 21.4215 11.7781 21.4215 11.7603C21.4215 11.7424 21.4156 11.7278 21.4085 11.7278C21.4013 11.7278 21.3955 11.7131 21.3955 11.6953C21.3955 11.6774 21.3911 11.6627 21.3857 11.6627C21.3804 11.6627 21.3614 11.6305 21.3435 11.5913C21.3256 11.552 21.3066 11.5198 21.3012 11.5198C21.2959 11.5198 21.2915 11.5081 21.2915 11.4938C21.2915 11.4795 21.2856 11.4678 21.2785 11.4678C21.2713 11.4678 21.2655 11.4561 21.2655 11.4418C21.2655 11.4275 21.2596 11.4158 21.2525 11.4158C21.2453 11.4158 21.2395 11.4054 21.2395 11.3926C21.2395 11.3799 21.2278 11.3611 21.2135 11.3508C21.1992 11.3405 21.1875 11.3237 21.1875 11.3134C21.1875 11.2883 21.1197 11.1558 21.1068 11.1558C21.1011 11.1558 21.0965 11.1495 21.0965 11.1418C21.0965 11.1342 21.0789 11.1024 21.0575 11.0713C21.036 11.0401 21.0185 11.0096 21.0185 11.0035C21.0185 10.9974 21.0068 10.9841 20.9925 10.9738C20.9782 10.9635 20.9665 10.9459 20.9665 10.9348C20.9665 10.9236 20.9548 10.9061 20.9405 10.8958C20.9262 10.8855 20.9145 10.8679 20.9145 10.8568C20.9145 10.8456 20.9028 10.8281 20.8885 10.8178C20.8742 10.8075 20.8625 10.7899 20.8625 10.7788C20.8625 10.7676 20.8508 10.7501 20.8365 10.7398C20.8222 10.7295 20.8105 10.7135 20.8105 10.7044C20.8105 10.6952 20.8046 10.6878 20.7975 10.6878C20.7903 10.6878 20.7845 10.6803 20.7845 10.6711C20.7845 10.662 20.7728 10.6461 20.7585 10.6358C20.7442 10.6255 20.7325 10.6089 20.7325 10.5991C20.7325 10.5892 20.7149 10.5648 20.6935 10.5448C20.672 10.5247 20.6545 10.5034 20.6545 10.4973C20.6545 10.4912 20.6311 10.4606 20.6025 10.4293C20.5739 10.3981 20.5505 10.3675 20.5505 10.3615C20.5505 10.3554 20.5256 10.3254 20.4951 10.2949C20.4646 10.2643 20.4252 10.2188 20.4075 10.1938C20.3899 10.1687 20.3168 10.091 20.2452 10.0211C20.0886 9.86817 20.1221 9.90161 19.9692 9.74503C19.8992 9.67343 19.8216 9.60037 19.7967 9.58272C19.7717 9.56504 19.7229 9.52273 19.6881 9.48867C19.6533 9.45461 19.6193 9.42676 19.6126 9.42676C19.6059 9.42676 19.5862 9.41359 19.569 9.39751C19.5215 9.35301 19.4994 9.33576 19.4903 9.33576C19.4857 9.33576 19.4656 9.31821 19.4455 9.29676C19.4254 9.27531 19.4026 9.25776 19.3947 9.25776C19.3867 9.25776 19.3619 9.24021 19.3395 9.21876C19.317 9.19731 19.292 9.17976 19.2839 9.17976C19.2758 9.17976 19.2608 9.16806 19.2505 9.15376C19.2402 9.13946 19.2226 9.12776 19.2115 9.12776C19.2004 9.12776 19.1828 9.11606 19.1725 9.10176C19.1622 9.08746 19.1446 9.07576 19.1335 9.07576C19.1224 9.07576 19.1048 9.06406 19.0945 9.04976C19.0842 9.03546 19.0666 9.02376 19.0555 9.02376C19.0444 9.02376 19.0268 9.01206 19.0165 8.99776C19.0062 8.98346 18.9928 8.97176 18.9867 8.97176C18.9807 8.97176 18.9502 8.95421 18.919 8.93276C18.8878 8.91131 18.8565 8.89376 18.8495 8.89376C18.8424 8.89376 18.8347 8.88937 18.8323 8.88401C18.8265 8.87084 18.6984 8.80276 18.6794 8.80276C18.6712 8.80276 18.6518 8.79106 18.6365 8.77676C18.6212 8.76246 18.6009 8.75076 18.5916 8.75076C18.5822 8.75076 18.5745 8.74491 18.5745 8.73776C18.5745 8.73061 18.5628 8.72476 18.5485 8.72476C18.5342 8.72476 18.5225 8.71891 18.5225 8.71176C18.5225 8.70461 18.5108 8.69876 18.4965 8.69876C18.4822 8.69876 18.4705 8.69401 18.4705 8.68819C18.4705 8.68238 18.45 8.66957 18.425 8.65976C18.4 8.64994 18.3795 8.63714 18.3795 8.63132C18.3795 8.6255 18.3678 8.62076 18.3535 8.62076C18.3392 8.62076 18.3275 8.61491 18.3275 8.60776C18.3275 8.60061 18.3187 8.59476 18.3078 8.59476C18.2887 8.59476 18.2749 8.58933 18.2139 8.55777C18.1979 8.54952 18.176 8.54276 18.1652 8.54276C18.1543 8.54276 18.1455 8.53691 18.1455 8.52976C18.1455 8.52261 18.1338 8.51676 18.1195 8.51676C18.1052 8.51676 18.0935 8.51091 18.0935 8.50376C18.0935 8.49661 18.0818 8.49076 18.0675 8.49076C18.0532 8.49076 18.0415 8.48491 18.0415 8.47776C18.0415 8.47061 18.0239 8.46476 18.0025 8.46476C17.981 8.46476 17.9635 8.45891 17.9635 8.45176C17.9635 8.44461 17.9518 8.43876 17.9375 8.43876C17.9232 8.43876 17.9115 8.43291 17.9115 8.42576C17.9115 8.41861 17.8997 8.41276 17.8853 8.41276C17.8709 8.41276 17.849 8.40759 17.8366 8.40128C17.8242 8.39495 17.7964 8.38256 17.775 8.37376C17.7535 8.36495 17.7258 8.35257 17.7134 8.34623C17.701 8.33992 17.6819 8.33476 17.671 8.33476C17.6601 8.33476 17.641 8.32946 17.6286 8.32296C17.5915 8.30356 17.4688 8.26976 17.4355 8.26976C17.4184 8.26976 17.4045 8.26391 17.4045 8.25676C17.4045 8.24961 17.384 8.24376 17.359 8.24376C17.334 8.24376 17.3135 8.23791 17.3135 8.23076C17.3135 8.22361 17.2959 8.21776 17.2745 8.21776C17.253 8.21776 17.2355 8.21191 17.2355 8.20476C17.2355 8.19761 17.2121 8.19176 17.1835 8.19176C17.1549 8.19176 17.1315 8.18591 17.1315 8.17876C17.1315 8.17161 17.1081 8.16576 17.0795 8.16576C17.0509 8.16576 17.0275 8.15991 17.0275 8.15276C17.0275 8.14561 17.0045 8.13976 16.9763 8.13976C16.9481 8.13976 16.9214 8.13391 16.917 8.12676C16.9126 8.11961 16.883 8.11376 16.8512 8.11376C16.8195 8.11376 16.7935 8.10791 16.7935 8.10076C16.7935 8.09361 16.7642 8.08776 16.7285 8.08776C16.6927 8.08776 16.6635 8.08191 16.6635 8.07476C16.6635 8.06754 16.6291 8.06176 16.5863 8.06176C16.5438 8.06176 16.5054 8.05591 16.501 8.04876C16.4966 8.04161 16.4528 8.03576 16.4038 8.03576C16.3448 8.03576 16.3129 8.03036 16.3093 8.01977C16.3041 8.00397 15.0805 7.99266 14.7882 8.00569Z" fill="#1A1A1A"/>
</svg>
