<svg width="16" height="16" viewBox="0 0 16 16" fill="none" xmlns="http://www.w3.org/2000/svg">
<path fillRule="evenodd" clipRule="evenodd" d="M15.9325 9.80533C15.7523 9.06139 15.1547 8.41899 14.41 8.16875L14.1703 8.088L14.1703 4.23081C14.1703 0.717812 14.1659 0.364033 14.1191 0.265295C13.9629 -0.0640987 13.4767 -0.0928807 13.2434 0.213328L13.1559 0.328056L13.1403 4.21442L13.1248 8.10079L12.953 8.15396C10.8352 8.80955 10.8064 11.9524 12.9126 12.6L13.1375 12.6691L13.1467 14.1738C13.1555 15.6441 13.1575 15.6804 13.221 15.7664C13.446 16.0698 13.8966 16.0786 14.0968 15.7836C14.1507 15.704 14.1559 15.5921 14.1703 14.1874L14.1859 12.6767L14.3888 12.6076C15.5558 12.2106 16.2222 11.001 15.9325 9.80533ZM14.9469 10.6296C14.7228 11.6853 13.43 12.0483 12.7033 11.2596C12.0157 10.5133 12.4172 9.31603 13.4256 9.10576C14.3017 8.92308 15.1327 9.75536 14.9469 10.6296ZM10.287 5.15783C10.1132 4.33635 9.53555 3.67396 8.7581 3.40453L8.50561 3.31699L8.49003 1.80793C8.47565 0.421597 8.46966 0.291678 8.41812 0.212928C8.23315 -0.0692957 7.74814 -0.0692957 7.56317 0.212928C7.51163 0.292078 7.50564 0.421597 7.49126 1.81073L7.47568 3.32258L7.30389 3.37575C5.10299 4.05692 5.14254 7.27651 7.35862 7.87293L7.49126 7.90851L7.49126 11.7877C7.49126 15.6033 7.49246 15.6685 7.55358 15.7688C7.74135 16.077 8.23994 16.077 8.42771 15.7688C8.48883 15.6689 8.48963 15.6037 8.48963 11.7877L8.48963 7.90851L8.62227 7.87293C9.76367 7.56793 10.5315 6.31551 10.2866 5.15783M9.24231 5.96573C8.94787 6.91154 7.84403 7.22734 7.11732 6.57375C6.41737 5.94414 6.59316 4.84243 7.4597 4.42749C8.42971 3.96298 9.56152 4.93997 9.24231 5.96613M4.6056 9.88967C4.41103 9.05699 3.81017 8.39621 3.02753 8.15396L2.85574 8.10079L2.84016 4.21123C2.82977 1.62085 2.80287 0.295009 2.75946 0.233714C2.51935 -0.0904827 2.02196 -0.0728937 1.86176 0.265295C1.81502 0.363633 1.81062 0.717412 1.81062 4.23081L1.81062 8.0884L1.56732 8.16955C-0.550484 8.87511 -0.512131 11.9876 1.62205 12.6212L1.79504 12.6723L1.81062 14.1854C1.825 15.5917 1.8302 15.704 1.88413 15.7836C2.08429 16.0786 2.53493 16.0698 2.75986 15.7664C2.82378 15.6804 2.82538 15.6441 2.83417 14.1738L2.84336 12.6691L3.06828 12.6C4.14696 12.2682 4.86608 11.001 4.60599 9.88967M3.50494 10.9106C2.95202 12.0931 1.26409 11.8708 1.02678 10.584C0.874169 9.75416 1.6612 8.96185 2.50497 9.09657C3.35952 9.23288 3.86251 10.1459 3.50494 10.9106Z" fill="#797979"/>
</svg>
