<svg width="168" height="45" viewBox="0 0 168 45" fill="none" xmlns="http://www.w3.org/2000/svg">
<path fill-rule="evenodd" clip-rule="evenodd" d="M66.5768 20.1015C66.3746 19.5509 66.067 19.045 65.6712 18.6122C65.2793 18.197 64.8308 17.8393 64.3389 17.5495C63.8054 17.2335 63.2524 16.9516 62.6831 16.7058C62.0487 16.4266 61.3825 16.1602 60.7021 15.9127C60.0217 15.6653 59.2842 15.3576 58.5641 15.0119C57.7835 14.6641 57.1053 14.1218 56.5942 13.4369C56.1327 12.7866 55.898 11.9651 55.898 10.9944C55.8929 10.531 55.9885 10.072 56.1783 9.64913C56.3681 9.2263 56.6474 8.84976 56.9971 8.54556C57.7101 7.89345 58.6464 7.54027 59.6125 7.55904C60.4472 7.53548 61.2741 7.72488 62.0153 8.1094C62.6641 8.47076 63.2278 8.96729 63.668 9.56538C64.1275 10.1986 64.4968 10.8925 64.7655 11.6272C65.0082 12.2823 65.2302 12.9674 65.4285 13.6685H65.9836L65.879 7.47022H65.2556L64.5721 8.60424L64.266 8.41392C63.6263 8.02011 62.9515 7.68666 62.2501 7.41788C61.4674 7.12974 60.6383 6.98834 59.8044 7.00075C59.0204 6.99877 58.2425 7.13791 57.5078 7.41153C56.8083 7.664 56.1626 8.04603 55.6045 8.53762C55.0629 9.01934 54.6229 9.6044 54.3103 10.2585C54.0084 10.9036 53.8545 11.6081 53.8599 12.3203C53.8599 13.613 54.1628 14.6677 54.7623 15.456C55.3619 16.2442 56.2485 16.923 57.3603 17.4227C57.9519 17.6923 58.6593 17.9825 59.4666 18.2839C60.2739 18.5852 61.0225 18.8723 61.6601 19.1261C62.581 19.4665 63.3724 20.0866 63.9233 20.8993C64.4206 21.6468 64.6855 22.5248 64.6847 23.4227C64.6935 23.973 64.6098 24.521 64.4372 25.0436C64.2722 25.5387 63.9923 25.9876 63.6204 26.3537C63.2485 26.7198 62.7952 26.9926 62.2977 27.1499C61.69 27.3499 61.0531 27.4464 60.4134 27.4354C59.5391 27.4518 58.6732 27.2627 57.8853 26.8834C57.1672 26.5223 56.5253 26.0264 55.9947 25.4227C55.4471 24.7992 54.9915 24.1006 54.6418 23.3481C54.3201 22.6437 54.0513 21.9164 53.8377 21.1721H53.2842L53.4681 27.5892H54.093L54.8036 26.3822L55.1208 26.571C55.8517 27.0018 56.6326 27.3416 57.446 27.5829C58.3139 27.8559 59.2181 27.9965 60.128 28C62.0439 28 63.668 27.4274 64.9543 26.2982C66.2406 25.1689 66.8718 23.7605 66.8718 22.0158C66.8836 21.3693 66.7844 20.7255 66.5784 20.1126" fill="#F4F4F4"/>
<path fill-rule="evenodd" clip-rule="evenodd" d="M93.0372 22.1397C92.7803 22.7942 92.4847 23.4329 92.1522 24.0524C91.6367 25.0469 91.1546 25.7717 90.6772 26.2729C90.3952 26.5358 90.0452 26.7144 89.6669 26.7884C89.2718 26.893 88.8694 26.9672 88.463 27.0104C88.0071 27.0552 87.5492 27.0753 87.0911 27.0707H85.8143C85.1731 27.0795 84.5318 27.052 83.8937 26.9882C83.4611 26.9522 83.045 26.8059 82.6851 26.5631C82.3515 26.3125 82.1208 25.9488 82.0364 25.5402C81.9294 25.0266 81.882 24.5023 81.8952 23.9779V17.3831H84.5915C85.1436 17.3668 85.695 17.4314 86.2283 17.575C86.7104 17.7329 87.1323 18.0353 87.4369 18.441C87.7045 18.8205 87.9061 19.2425 88.0332 19.6892C88.1671 20.0944 88.2653 20.5104 88.3267 20.9327H88.7549V13.4878H88.3171C88.2532 13.859 88.1631 14.2252 88.0475 14.5837C87.9191 15.026 87.7175 15.4436 87.4512 15.8193C87.1745 16.1831 86.8077 16.4685 86.3869 16.6472C85.9936 16.8058 85.4083 16.8851 84.601 16.8851H81.9048V7.9049H85.5304C86.075 7.9049 86.5593 7.91442 86.9833 7.93346C87.4131 7.95407 87.7874 7.9842 88.0935 8.02385C88.785 8.11743 89.4686 8.6091 90.1855 9.5306C90.7273 10.1976 91.1511 10.9523 91.4385 11.7622H91.9143V7.45605H76.5186V7.8256C76.7422 7.85732 76.9944 7.90491 77.3116 7.97152C77.7047 8.04909 78.0878 8.17094 78.4535 8.33473C78.8247 8.48448 79.1267 8.76724 79.3005 9.12775C79.4309 9.44506 79.4957 9.7855 79.4908 10.1285V25.0897C79.5018 25.4551 79.4251 25.8179 79.2671 26.1476C79.0829 26.4752 78.795 26.7324 78.4488 26.8788C78.325 26.9359 78.0919 27.0152 77.3909 27.1072C77.0589 27.1495 76.7707 27.1822 76.5265 27.2055V27.556H93.1181L93.4686 22.1349L93.0372 22.1397Z" fill="#F4F4F4"/>
<path fill-rule="evenodd" clip-rule="evenodd" d="M110.791 18.2668C111.957 19.764 113.057 21.2438 114.061 22.6649C115.037 24.0464 116.136 25.6927 117.33 27.561H122.385V27.2042C122.187 27.1835 121.965 27.1502 121.722 27.1074C121.359 27.0486 121.006 26.9392 120.674 26.7823C120.285 26.5785 119.917 26.3362 119.576 26.059C119.109 25.6582 118.696 25.1993 118.345 24.6934C117.359 23.3643 116.525 22.2351 115.844 21.3057C115.163 20.3762 114.311 19.2348 113.287 17.8814L112.97 17.469L113.467 17.3263C114.148 17.1325 114.81 16.8777 115.446 16.565C115.993 16.2964 116.497 15.9491 116.943 15.534C117.381 15.1218 117.723 14.6182 117.944 14.059C118.182 13.4214 118.298 12.7444 118.285 12.0638C118.307 11.3315 118.136 10.6063 117.79 9.96068C117.465 9.38946 117.006 8.90523 116.453 8.5491C115.843 8.16264 115.172 7.88317 114.467 7.72276C113.681 7.54478 112.876 7.457 112.069 7.46107H102.816V7.82585C103.029 7.85123 103.265 7.88931 103.524 7.93689C103.866 7.99571 104.204 8.08163 104.532 8.19383C104.997 8.37146 105.3 8.64426 105.435 9.00747C105.551 9.33913 105.608 9.68862 105.603 10.04V25.09C105.616 25.4743 105.534 25.856 105.362 26.2002C105.183 26.5245 104.897 26.7771 104.553 26.9155C104.22 27.0352 103.872 27.1083 103.519 27.1328C103.246 27.1629 103.011 27.1883 102.816 27.2073V27.5563H110.905V27.2058C110.664 27.1883 110.393 27.1582 110.098 27.1185C109.756 27.0857 109.419 27.015 109.092 26.9076C108.897 26.8443 108.718 26.7411 108.565 26.6046C108.412 26.468 108.289 26.3011 108.204 26.1146C108.073 25.7841 108.009 25.431 108.015 25.0757V18.1193H110.691L110.791 18.2668ZM108.023 17.5784V7.94798H110.878C112.291 7.94798 113.416 8.3556 114.198 9.15972C114.98 9.96385 115.386 11.0535 115.386 12.4048C115.386 13.9813 114.894 15.2597 113.927 16.1827C112.959 17.1058 111.744 17.5784 110.307 17.5784H108.023Z" fill="#F4F4F4"/>
<path fill-rule="evenodd" clip-rule="evenodd" d="M131.77 24.4401C131.599 24.8893 131.372 25.3155 131.096 25.709C130.817 26.066 130.48 26.3742 130.1 26.6209C129.775 26.8191 129.419 26.9622 129.047 27.0444C128.796 27.1063 128.571 27.1538 128.365 27.184V27.5567H135.492V27.203C134.864 27.1536 134.244 27.0263 133.646 26.8239C132.875 26.5559 132.485 26.1372 132.485 25.5789C132.49 25.3401 132.517 25.1023 132.565 24.8684C132.637 24.5092 132.728 24.154 132.837 23.8041C132.977 23.3664 133.132 22.8953 133.305 22.3862C133.478 21.8771 133.697 21.276 133.979 20.5781L134.07 20.3545H141.86L143.67 25.2506C143.721 25.3814 143.756 25.5177 143.775 25.6566C143.796 25.7814 143.807 25.9076 143.808 26.0341C143.808 26.6241 143.047 26.8461 142.798 26.9175C142.26 27.0647 141.709 27.1593 141.153 27.1998V27.5567H149.096V27.1935C148.882 27.1601 148.671 27.1157 148.462 27.0603C148.119 26.9808 147.789 26.8509 147.485 26.6749C147.156 26.464 146.862 26.2035 146.614 25.9024C146.38 25.5931 146.194 25.2504 146.062 24.8858L139.212 7.16016H138.525C137.557 9.64708 136.463 12.4702 135.24 15.6296C133.986 18.8668 132.82 21.8295 131.775 24.4354M141.608 19.7597H134.312L137.935 10.3418L141.608 19.7597Z" fill="#F4F4F4"/>
<path fill-rule="evenodd" clip-rule="evenodd" d="M156.781 7.82352C157.018 7.85524 157.287 7.90758 157.6 7.98213C157.994 8.06984 158.381 8.18539 158.759 8.32789C159.249 8.51981 159.562 8.76882 159.711 9.08603C159.849 9.40454 159.915 9.74937 159.906 10.0963V25.1765C159.923 25.5659 159.826 25.9519 159.627 26.2867C159.411 26.5889 159.106 26.8171 158.756 26.9401C158.38 27.0575 157.991 27.1247 157.598 27.14L156.781 27.2034V27.5555H165.444V27.2018C165.178 27.1749 164.878 27.1305 164.548 27.0639C164.188 26.9997 163.833 26.9085 163.487 26.7911C163.109 26.6481 162.789 26.3837 162.578 26.0393C162.402 25.7239 162.313 25.3677 162.32 25.0068V9.93932C162.316 9.58258 162.393 9.22962 162.545 8.9068C162.643 8.71992 162.779 8.55577 162.945 8.42512C163.11 8.29448 163.302 8.20028 163.506 8.14867C163.884 8.03579 164.269 7.95097 164.659 7.89491C164.945 7.85208 165.206 7.82035 165.452 7.80132V7.44922H156.789L156.781 7.82352Z" fill="#F4F4F4"/>
<path d="M20.5017 3.23066L20.4883 3.06836L20.5017 3.23066Z" fill="#0668A3"/>
<path d="M38.3168 16.4926C38.0713 16.1813 37.9168 15.8082 37.8701 15.4146C37.8556 15.0114 37.9094 14.6087 38.0294 14.2235C38.1977 13.5996 38.2736 13.1098 38.1857 12.6423C38.08 12.1286 37.7658 11.6998 37.1896 11.3023C37.1556 11.2791 37.1173 11.263 37.077 11.255C37.0366 11.2469 36.9951 11.2471 36.9548 11.2554C36.9145 11.2637 36.8763 11.2801 36.8425 11.3035C36.8087 11.3269 36.7799 11.3568 36.7579 11.3916C36.7171 11.4637 36.7047 11.5483 36.7232 11.6291C36.7416 11.7098 36.7896 11.7807 36.8576 11.8279C37.7212 12.4115 37.7137 12.9148 37.4368 14.0612C37.2987 14.5214 37.2403 15.0018 37.2641 15.4816C37.3198 15.9776 37.5144 16.4477 37.8254 16.838C37.8482 16.8704 37.8773 16.8979 37.9108 16.919C37.9444 16.94 37.9818 16.9541 38.0209 16.9605C38.06 16.9669 38.1 16.9654 38.1386 16.9561C38.1771 16.9468 38.2134 16.93 38.2453 16.9065C38.3095 16.861 38.353 16.7918 38.3664 16.7143C38.3798 16.6367 38.362 16.557 38.3168 16.4926Z" fill="#F4F4F4"/>
<path d="M3.96963 19.3207C4.05138 19.3038 4.1232 19.2555 4.1697 19.1862C4.2162 19.1169 4.23365 19.0321 4.21827 18.95C4.06938 17.9227 4.43564 17.5832 5.47638 17.0144C6.00346 16.7166 6.36973 16.4799 6.63625 16.1792C6.96325 15.8026 7.17967 15.343 7.26158 14.851C7.27433 14.7722 7.25689 14.6915 7.21273 14.625C7.16857 14.5585 7.10096 14.5111 7.02338 14.4922C6.98494 14.4832 6.94508 14.482 6.90615 14.4885C6.86722 14.495 6.82998 14.5092 6.79659 14.5303C6.7632 14.5514 6.73431 14.5788 6.71164 14.6112C6.68897 14.6435 6.67296 14.68 6.66453 14.7185C6.56477 15.1652 6.43225 15.5091 6.17169 15.7786C5.8892 16.0682 5.55554 16.3029 5.18754 16.471C4.62474 16.7688 4.19295 17.0427 3.92048 17.4284C3.6093 17.8512 3.51103 18.3768 3.61525 19.0661C3.62038 19.1068 3.63383 19.1459 3.65476 19.1811C3.6757 19.2163 3.7037 19.2468 3.73695 19.2707C3.77021 19.2946 3.80804 19.3113 3.84807 19.32C3.88811 19.3286 3.92949 19.3288 3.96963 19.3207Z" fill="#F4F4F4"/>
<path d="M3.69195 22.3894C3.76982 22.3596 3.83308 22.3007 3.86835 22.2252C3.90363 22.1496 3.90817 22.0633 3.88104 21.9844C3.55944 20.9943 3.88102 20.6027 4.79074 19.8627L5.00964 19.6885C5.31457 19.449 5.58115 19.1643 5.80022 18.8443C6.05936 18.4177 6.19495 17.9275 6.19182 17.4284C6.19227 17.348 6.16146 17.2706 6.10589 17.2125C6.05033 17.1545 5.97436 17.1203 5.89404 17.1172C5.85433 17.114 5.81437 17.1187 5.77652 17.1312C5.73868 17.1437 5.70372 17.1637 5.67372 17.1899C5.64373 17.2161 5.61933 17.2481 5.60193 17.284C5.58453 17.3198 5.57448 17.3588 5.57242 17.3986C5.58294 17.796 5.47962 18.1881 5.27464 18.5287C5.03994 18.8572 4.75092 19.1432 4.42001 19.3744L4.19372 19.5531C3.83902 19.8143 3.54367 20.1476 3.32717 20.5313C3.10384 21.0003 3.07552 21.5318 3.30333 22.1973C3.31519 22.2362 3.33488 22.2722 3.36116 22.3031C3.38744 22.334 3.41978 22.3593 3.45618 22.3773C3.49257 22.3953 3.53225 22.4056 3.57279 22.4077C3.61333 22.4098 3.6539 22.4036 3.69195 22.3894Z" fill="#F4F4F4"/>
<path d="M4.73476 16.418C4.81708 16.4125 4.8943 16.3761 4.95111 16.3163C5.00792 16.2565 5.04018 16.1774 5.04148 16.0949C5.06381 15.0527 5.48815 14.7817 6.59887 14.3872L6.85496 14.2919C7.22418 14.1708 7.57047 13.9886 7.87934 13.7529C8.26557 13.4355 8.55324 13.0146 8.70864 12.5394C8.72298 12.5027 8.72989 12.4635 8.72896 12.4241C8.72802 12.3846 8.71929 12.3458 8.70322 12.3098C8.68715 12.2738 8.66407 12.2413 8.63536 12.2143C8.60664 12.1872 8.57286 12.1662 8.53594 12.1523C8.49988 12.1357 8.46076 12.1268 8.42107 12.126C8.38138 12.1253 8.34198 12.1328 8.30533 12.148C8.26868 12.1633 8.23558 12.1859 8.20813 12.2146C8.18068 12.2433 8.15946 12.2773 8.14583 12.3146C8.02139 12.6921 7.79461 13.0277 7.49072 13.2839C7.16108 13.5188 6.79338 13.6951 6.40381 13.805L6.12988 13.8973C5.66534 14.079 5.27821 14.2591 4.99681 14.542C4.62458 14.9098 4.43845 15.4086 4.42505 16.1084C4.42337 16.1495 4.43026 16.1905 4.44523 16.2288C4.4602 16.2672 4.48294 16.302 4.51204 16.3311C4.54114 16.3602 4.57596 16.3829 4.61429 16.3979C4.65263 16.4129 4.69364 16.4197 4.73476 16.418Z" fill="#F4F4F4"/>
<path d="M5.99728 13.6084C6.08007 13.6183 6.16352 13.5961 6.23032 13.5462C6.29713 13.4963 6.34216 13.4226 6.3561 13.3404C6.55114 12.3175 7.00827 12.121 8.17557 11.917C8.65182 11.8584 9.11457 11.7189 9.54387 11.5045C9.97452 11.2529 10.3282 10.8884 10.5667 10.4504C10.6046 10.3801 10.6143 10.2981 10.5938 10.2209C10.5733 10.1438 10.5243 10.0773 10.4565 10.035C10.4232 10.0137 10.386 9.99933 10.347 9.99261C10.3081 9.9859 10.2681 9.987 10.2296 9.99587C10.1911 10.0047 10.1547 10.0212 10.1226 10.0443C10.0905 10.0673 10.0633 10.0966 10.0426 10.1303C9.85957 10.4828 9.5796 10.7757 9.23565 10.9745C8.95574 11.1412 8.59096 11.2246 8.08175 11.3095C7.44301 11.4078 6.95764 11.5299 6.56904 11.8008C6.14321 12.0986 5.86478 12.5587 5.74716 13.2495C5.73835 13.2897 5.73794 13.3312 5.74596 13.3715C5.75397 13.4118 5.77023 13.45 5.79372 13.4837C5.81722 13.5174 5.84742 13.5459 5.88245 13.5673C5.91749 13.5888 5.95659 13.6028 5.99728 13.6084Z" fill="#F4F4F4"/>
<path d="M9.77167 8.86422C9.84672 8.90055 9.93284 8.90676 10.0123 8.88156C10.0918 8.85636 10.1586 8.80166 10.199 8.72872C10.7097 7.82198 11.2114 7.78625 12.3788 7.9664C12.8499 8.06798 13.335 8.08662 13.8125 8.02149C14.3003 7.92178 14.7517 7.6912 15.1183 7.35446C15.1768 7.30087 15.2126 7.22707 15.2187 7.14801C15.2248 7.06895 15.2006 6.99054 15.1511 6.92864C15.1266 6.89707 15.096 6.87076 15.0611 6.85127C15.0262 6.83178 14.9877 6.81952 14.9479 6.81521C14.9082 6.8109 14.868 6.81465 14.8298 6.8262C14.7915 6.83776 14.756 6.85689 14.7253 6.88248C14.4362 7.15795 14.0747 7.34542 13.683 7.42295C13.3644 7.48548 12.9922 7.44975 12.4815 7.36488C11.8442 7.24874 11.3499 7.216 10.8898 7.33958C10.3911 7.48847 9.98457 7.83091 9.6451 8.44434C9.62409 8.4798 9.61068 8.51925 9.6057 8.56017C9.60072 8.60109 9.60427 8.6426 9.61617 8.68207C9.62806 8.72154 9.64804 8.75811 9.6748 8.78946C9.70156 8.82082 9.73456 8.84627 9.77167 8.86422Z" fill="#F4F4F4"/>
<path d="M7.66621 11.111C7.74576 11.1333 7.83086 11.1243 7.90397 11.0858C7.97708 11.0473 8.03267 10.9822 8.0593 10.904C8.42557 9.93474 8.89753 9.80223 10.0872 9.79479H10.3596C10.7479 9.7983 11.1339 9.73639 11.5016 9.61165C11.9698 9.43768 12.3789 9.13403 12.6809 8.73618C12.731 8.6737 12.7549 8.59414 12.7474 8.51437C12.7398 8.4346 12.7016 8.36089 12.6407 8.30886C12.6117 8.28187 12.5774 8.26113 12.54 8.24794C12.5027 8.23475 12.463 8.22937 12.4235 8.23216C12.384 8.23496 12.3454 8.24585 12.3103 8.26417C12.2752 8.28249 12.2442 8.30783 12.2193 8.33863C11.9799 8.6553 11.6572 8.89914 11.2872 9.04288C10.8998 9.16363 10.4939 9.21406 10.0887 9.19177H9.8028C9.30104 9.20964 8.8752 9.25133 8.52084 9.43298C8.04885 9.6578 7.71087 10.0687 7.4786 10.7268C7.46507 10.7643 7.45922 10.8042 7.46137 10.844C7.46352 10.8838 7.47365 10.9228 7.49114 10.9586C7.50864 10.9944 7.53315 11.0264 7.56323 11.0525C7.5933 11.0787 7.62831 11.0986 7.66621 11.111Z" fill="#F4F4F4"/>
<path d="M6.7906 31.0622L6.85015 30.7957C6.94777 30.4199 6.98397 30.0307 6.95734 29.6433C6.90039 29.1474 6.70538 28.6775 6.39453 28.2869C6.34677 28.2237 6.27637 28.1814 6.19809 28.1689C6.11982 28.1564 6.03977 28.1747 5.97469 28.2199C5.94189 28.2419 5.91378 28.2702 5.89203 28.3032C5.87027 28.3361 5.85531 28.3731 5.84797 28.4119C5.84063 28.4507 5.84107 28.4905 5.84928 28.5291C5.85749 28.5678 5.87328 28.6044 5.89577 28.6368C6.14414 28.9467 6.30185 29.3193 6.35138 29.7133C6.36971 30.1159 6.31936 30.5187 6.20249 30.9044L6.12805 31.1858C6.02234 31.6742 5.96575 32.0956 6.05062 32.4856C6.15485 32.9993 6.47049 33.4281 7.04818 33.8257C7.08184 33.85 7.12022 33.8671 7.16087 33.8758C7.20152 33.8844 7.24353 33.8845 7.2842 33.8759C7.32487 33.8674 7.36328 33.8504 7.397 33.8261C7.43071 33.8018 7.45897 33.7707 7.47995 33.7348C7.51983 33.6624 7.53125 33.5777 7.51197 33.4973C7.4927 33.4169 7.44412 33.3465 7.37573 33.3001C6.51068 32.7209 6.52111 32.2147 6.7906 31.0622Z" fill="#F4F4F4"/>
<path d="M11.6627 37.4974C10.6562 37.2264 10.5029 36.753 10.3867 35.5738L10.3599 35.2983C10.3287 34.911 10.2362 34.5311 10.086 34.1727C9.8711 33.7223 9.53427 33.3411 9.11371 33.0724C9.04792 33.0278 8.9674 33.0105 8.88907 33.0241C8.81074 33.0377 8.74075 33.0812 8.69387 33.1454C8.66939 33.1767 8.65143 33.2127 8.64109 33.2511C8.63074 33.2895 8.62822 33.3296 8.63363 33.369C8.63905 33.4085 8.65228 33.4464 8.6726 33.4806C8.69292 33.5148 8.71989 33.5446 8.75192 33.5682C9.09086 33.7764 9.36274 34.0777 9.53508 34.4362C9.68133 34.8134 9.7629 35.2126 9.7763 35.6169L9.80011 35.9058C9.82557 36.3446 9.94274 36.7732 10.1441 37.1639C10.4106 37.6106 10.8453 37.9188 11.5213 38.1019C11.5607 38.1137 11.6022 38.1172 11.643 38.1122C11.6838 38.1072 11.7232 38.0938 11.7586 38.0728C11.794 38.0518 11.8246 38.0237 11.8486 37.9903C11.8726 37.9569 11.8894 37.9188 11.898 37.8786C11.9141 37.7971 11.8988 37.7125 11.8552 37.6418C11.8116 37.5711 11.7428 37.5195 11.6627 37.4974Z" fill="#F4F4F4"/>
<path d="M5.58277 28.3932C5.79387 27.9611 5.93077 27.4965 5.98775 27.0189C6.01176 26.5218 5.89954 26.0276 5.66317 25.5896C5.62706 25.5187 5.56465 25.4646 5.48928 25.4391C5.4139 25.4135 5.33152 25.4183 5.25969 25.4526C5.2236 25.4687 5.19105 25.4918 5.16398 25.5206C5.1369 25.5493 5.11582 25.5832 5.10196 25.6202C5.08811 25.6572 5.08176 25.6966 5.08328 25.7361C5.08479 25.7755 5.09414 25.8143 5.1108 25.8502C5.30612 26.1967 5.39761 26.5921 5.37434 26.9892C5.36242 27.3138 5.22543 27.6666 5.02294 28.1401C4.75642 28.7357 4.59413 29.2002 4.61051 29.6752C4.62986 30.1963 4.86066 30.6772 5.37434 31.1536C5.40312 31.1828 5.43761 31.2057 5.47564 31.2209C5.51368 31.2361 5.55444 31.2433 5.59538 31.2421C5.63633 31.2408 5.67656 31.2311 5.71359 31.2136C5.75062 31.1961 5.78364 31.1711 5.81058 31.1402C5.86462 31.0767 5.89201 30.9948 5.88702 30.9115C5.88202 30.8283 5.84504 30.7502 5.78378 30.6936C5.03189 29.9729 5.11525 29.4801 5.58277 28.3932Z" fill="#F4F4F4"/>
<path d="M5.56504 20.0837C5.55251 20.0048 5.51011 19.9337 5.44664 19.8852C5.38317 19.8367 5.30348 19.8145 5.22407 19.8231C5.1844 19.826 5.14573 19.837 5.11051 19.8555C5.0753 19.8739 5.04426 19.8995 5.01938 19.9305C4.9945 19.9616 4.9763 19.9974 4.96591 20.0358C4.95553 20.0742 4.9532 20.1143 4.95904 20.1536C5.02769 20.5443 4.98857 20.9464 4.84588 21.3165C4.66798 21.682 4.42878 22.0144 4.13865 22.2992C3.69198 22.7682 3.3942 23.1612 3.24531 23.6154C3.09642 24.1141 3.1634 24.6427 3.48798 25.2621C3.50572 25.2986 3.53078 25.3312 3.56156 25.3577C3.59234 25.3842 3.6282 25.4042 3.66697 25.4163C3.70574 25.4284 3.7466 25.4325 3.787 25.4282C3.82741 25.424 3.8665 25.4115 3.9019 25.3916C3.97324 25.349 4.02589 25.281 4.04934 25.2012C4.0728 25.1215 4.06535 25.0358 4.02848 24.9613C3.54756 24.0337 3.7962 23.5975 4.58532 22.719C4.92712 22.3809 5.20683 21.9852 5.41167 21.5502C5.60082 21.0858 5.65401 20.5772 5.56504 20.0837Z" fill="#F4F4F4"/>
<path d="M9.31413 35.5498C8.37611 35.1032 8.28976 34.6208 8.38058 33.4371C8.42673 32.8415 8.4193 32.3948 8.31209 32.0077C8.17678 31.5279 7.90958 31.0956 7.54085 30.76C7.48259 30.7053 7.40564 30.6748 7.32569 30.6748C7.24575 30.6748 7.1688 30.7053 7.11054 30.76C7.08263 30.7877 7.06048 30.8207 7.04536 30.8569C7.03024 30.8932 7.02246 30.9321 7.02246 30.9715C7.02246 31.0108 7.03024 31.0497 7.04536 31.086C7.06048 31.1223 7.08263 31.1552 7.11054 31.1829C7.43363 31.5119 7.64508 31.8082 7.72846 32.1745C7.81848 32.5692 7.8326 32.9775 7.77011 33.3775C7.718 34.0133 7.7091 34.521 7.87884 34.9602C8.06346 35.4531 8.44609 35.8238 9.08334 36.1127C9.11967 36.131 9.1594 36.1417 9.20002 36.144C9.24065 36.1464 9.28131 36.1405 9.31954 36.1265C9.35777 36.1126 9.39276 36.0909 9.4223 36.0629C9.45184 36.0349 9.47531 36.0012 9.4913 35.9638C9.52262 35.8854 9.52157 35.7978 9.48835 35.7201C9.45513 35.6425 9.39247 35.5813 9.31413 35.5498Z" fill="#F4F4F4"/>
<path d="M12.597 6.97364C13.2551 6.1726 13.748 6.20387 14.8766 6.58205L15.1371 6.66693C15.5036 6.7941 15.8882 6.86097 16.2761 6.86495C16.7758 6.8504 17.2613 6.69561 17.6772 6.41828C17.7432 6.37334 17.7899 6.30525 17.8081 6.22749C17.8263 6.14973 17.8147 6.06798 17.7755 5.99841C17.7556 5.96466 17.7294 5.93516 17.6981 5.91157C17.6669 5.88799 17.6313 5.87079 17.5934 5.86097C17.5555 5.85116 17.516 5.84891 17.4773 5.85436C17.4385 5.8598 17.4012 5.87283 17.3675 5.89271C16.967 6.12498 16.623 6.2545 16.2553 6.25152C15.8502 6.23974 15.4509 6.15291 15.0775 5.99543L14.8066 5.9061C14.3227 5.75721 13.9132 5.6649 13.5157 5.7185C12.9931 5.77508 12.5405 6.05797 12.1057 6.61184C12.0792 6.6431 12.0595 6.67948 12.0477 6.71871C12.0359 6.75794 12.0324 6.79917 12.0373 6.83983C12.0422 6.8805 12.0554 6.91972 12.0761 6.95504C12.0969 6.99036 12.1247 7.02103 12.1578 7.04512C12.2259 7.09287 12.3099 7.11211 12.392 7.09875C12.474 7.0854 12.5476 7.0405 12.597 6.97364Z" fill="#F4F4F4"/>
<path d="M37.581 28.8783C37.2559 29.2554 37.0415 29.7151 36.9616 30.2065C36.948 30.2851 36.965 30.366 37.009 30.4327C37.0529 30.4993 37.1207 30.5468 37.1983 30.5653C37.2368 30.5743 37.2766 30.5756 37.3155 30.569C37.3544 30.5625 37.3917 30.5483 37.4251 30.5272C37.4585 30.5062 37.4874 30.4787 37.51 30.4463C37.5327 30.414 37.5487 30.3775 37.5571 30.339C37.6599 29.8923 37.7864 29.5469 38.0485 29.2774C38.2584 29.0302 38.5711 28.8307 39.0297 28.5835L39.2813 28.4436C39.676 28.2475 40.0227 27.9669 40.2967 27.6217C40.6079 27.1989 40.7047 26.6733 40.5945 25.9839C40.5896 25.943 40.5762 25.9036 40.5553 25.8681C40.5343 25.8326 40.5062 25.8018 40.4728 25.7778C40.4393 25.7537 40.4013 25.7368 40.361 25.7282C40.3207 25.7196 40.279 25.7195 40.2387 25.7278C40.1572 25.7451 40.0857 25.7935 40.0395 25.8628C39.9933 25.9321 39.9761 26.0167 39.9915 26.0986C40.1404 27.1274 39.7771 27.4669 38.7378 28.0341L38.4966 28.1696L37.2236 27.7319L38.4966 28.1786C38.1574 28.3637 37.8486 28.5997 37.581 28.8783Z" fill="#F4F4F4"/>
<path d="M39.5749 15.3771C39.5541 14.8545 39.3218 14.3736 38.8052 13.8986C38.7763 13.8698 38.7418 13.8472 38.7039 13.8323C38.6659 13.8173 38.6253 13.8103 38.5846 13.8117C38.5438 13.8131 38.5037 13.8229 38.4669 13.8404C38.4301 13.8579 38.3972 13.8828 38.3704 13.9135C38.3167 13.9774 38.2898 14.0596 38.2954 14.1428C38.3009 14.2261 38.3385 14.304 38.4002 14.3602C39.1536 15.0778 39.0687 15.5706 38.6071 16.6605L38.497 16.9151C38.343 17.2711 38.2426 17.6479 38.1992 18.0333C38.1763 18.5311 38.2896 19.0258 38.5267 19.4641C38.5642 19.5345 38.6273 19.5878 38.703 19.613C38.7786 19.6382 38.861 19.6334 38.9332 19.5996C38.9695 19.5836 39.0022 19.5604 39.0294 19.5315C39.0566 19.5026 39.0777 19.4686 39.0916 19.4314C39.1055 19.3943 39.1118 19.3547 39.1101 19.3151C39.1085 19.2754 39.099 19.2365 39.0821 19.2006C38.8849 18.8552 38.7913 18.4603 38.8126 18.0631C38.826 17.7385 38.9615 17.3841 39.1625 16.9121L39.2756 16.6471L40.5814 16.2005L39.2742 16.6471C39.4676 16.2514 39.5703 15.8175 39.5749 15.3771Z" fill="#F4F4F4"/>
<path d="M36.299 10.0894C36.1129 9.59953 35.7332 9.22433 35.093 8.93995C35.0562 8.92212 35.0161 8.91205 34.9752 8.9104C34.9344 8.90875 34.8936 8.91555 34.8554 8.93035C34.8173 8.94516 34.7826 8.96767 34.7535 8.99648C34.7245 9.02528 34.7017 9.05976 34.6865 9.09777C34.6567 9.17531 34.658 9.26142 34.6902 9.33802C34.7224 9.41463 34.783 9.47579 34.8593 9.50871C35.8003 9.94644 35.8851 10.4363 35.7973 11.6185L35.7794 11.8954C35.7495 12.2819 35.7797 12.6706 35.8688 13.0478C36.0059 13.5272 36.274 13.9587 36.643 14.2941C36.7016 14.3486 36.7788 14.3789 36.8589 14.3789C36.939 14.3789 37.0161 14.3486 37.0747 14.2941C37.1029 14.2663 37.1252 14.2333 37.1405 14.1969C37.1557 14.1605 37.1636 14.1214 37.1636 14.0819C37.1636 14.0424 37.1557 14.0033 37.1405 13.9669C37.1252 13.9305 37.1029 13.8974 37.0747 13.8697C36.7517 13.5392 36.5373 13.2459 36.4539 12.8796C36.3631 12.5669 36.3631 12.1962 36.4077 11.6766L36.43 11.3907L37.5199 10.542L36.4271 11.3922C36.4827 10.9538 36.439 10.5085 36.299 10.0894Z" fill="#F4F4F4"/>
<path d="M15.3286 5.60971C16.1058 4.91439 16.5941 5.04838 17.6378 5.59927C18.0509 5.84856 18.5044 6.02345 18.9779 6.11594C19.4716 6.18584 19.975 6.11407 20.4295 5.90898C20.4666 5.89485 20.5004 5.87346 20.529 5.84609C20.5577 5.81872 20.5806 5.78591 20.5964 5.74958C20.6122 5.71325 20.6206 5.67415 20.6211 5.63453C20.6216 5.59492 20.6142 5.5556 20.5993 5.51889C20.5862 5.48165 20.5658 5.44741 20.5393 5.41814C20.5128 5.38887 20.4807 5.36515 20.4449 5.34839C20.4092 5.33162 20.3705 5.32215 20.331 5.32049C20.2916 5.31883 20.2522 5.32501 20.2152 5.33872C19.8536 5.50263 19.4536 5.56295 19.0598 5.51292C18.6645 5.42811 18.2865 5.27709 17.9416 5.06625C17.3743 4.74316 16.9217 4.56002 16.4527 4.5228C15.9286 4.50344 15.4313 4.69701 14.9117 5.16304C14.8805 5.18933 14.8549 5.22177 14.8368 5.25833C14.8186 5.29489 14.8082 5.33478 14.8061 5.37556C14.804 5.41633 14.8103 5.4571 14.8246 5.49533C14.8389 5.53356 14.861 5.56843 14.8893 5.59778C14.9484 5.65324 15.0257 5.6851 15.1067 5.6873C15.1876 5.68949 15.2666 5.66188 15.3286 5.60971Z" fill="#F4F4F4"/>
<path d="M19.4431 3.84535C18.9339 3.73815 18.4113 3.84534 17.8232 4.22352C17.7876 4.24416 17.7567 4.27195 17.7324 4.30513C17.7081 4.33831 17.6909 4.37616 17.682 4.41631C17.673 4.45646 17.6724 4.49802 17.6804 4.53839C17.6883 4.57876 17.7045 4.61704 17.7279 4.65084C17.7769 4.72019 17.851 4.76759 17.9345 4.7829C18.018 4.79821 18.1042 4.78021 18.1746 4.73274C19.059 4.18184 19.5146 4.38433 20.4556 5.10049L20.6759 5.27023C20.9832 5.50649 21.3246 5.69475 21.6884 5.82857C22.1653 5.97532 22.6735 5.98666 23.1564 5.86132C23.2343 5.84317 23.3019 5.79536 23.345 5.72806C23.3881 5.66076 23.4033 5.5793 23.3872 5.50102C23.3806 5.46176 23.3662 5.42422 23.3448 5.39062C23.3235 5.35703 23.2956 5.32806 23.2628 5.30543C23.23 5.28281 23.1931 5.26698 23.1541 5.25889C23.1151 5.2508 23.0749 5.25061 23.0358 5.25832C22.6536 5.36664 22.2482 5.36197 21.8686 5.24491C21.5559 5.14813 21.2447 4.93821 20.8352 4.62107L20.6089 4.44537L20.5077 3.2334L20.6089 4.44835C20.2695 4.16393 19.8714 3.95803 19.4431 3.84535Z" fill="#F4F4F4"/>
<path d="M3.69206 26.7377C3.61761 27.2558 3.78287 27.765 4.20125 28.3234C4.22511 28.3572 4.25575 28.3856 4.29122 28.4069C4.32668 28.4283 4.36621 28.4419 4.40725 28.4471C4.44829 28.4523 4.48996 28.4489 4.5296 28.437C4.56925 28.4252 4.60602 28.4053 4.63753 28.3785C4.70152 28.3241 4.74147 28.2467 4.74872 28.1631C4.75597 28.0795 4.72994 27.9963 4.67624 27.9318C4.06579 27.095 4.21468 26.626 4.86235 25.627L5.01125 25.3947C5.22381 25.0706 5.38361 24.7148 5.48471 24.3406C5.59404 23.8535 5.56516 23.3455 5.40132 22.874C5.37507 22.7978 5.32066 22.7345 5.24923 22.6971C5.1778 22.6597 5.09476 22.6511 5.01717 22.673C4.97949 22.6838 4.94434 22.7019 4.91368 22.7263C4.88302 22.7507 4.8575 22.781 4.83854 22.8153C4.81959 22.8496 4.8076 22.8873 4.80325 22.9262C4.7989 22.9652 4.80229 23.0046 4.81321 23.0422C4.93977 23.4889 4.98592 23.8492 4.88765 24.2095C4.77713 24.5999 4.59429 24.9661 4.34865 25.289L4.19976 25.5302L2.83594 25.755L4.20125 25.5302C3.92283 25.962 3.73077 26.3402 3.69206 26.7377Z" fill="#F4F4F4"/>
<path d="M39.4603 28.709C39.3777 28.7142 39.2999 28.75 39.2424 28.8095C39.1848 28.869 39.1515 28.9478 39.1491 29.0306C39.1282 30.0728 38.7024 30.3408 37.5917 30.7354C37.1304 30.8713 36.6958 31.0853 36.3068 31.3682C35.921 31.6847 35.6324 32.1038 35.4745 32.5772C35.4474 32.6519 35.4503 32.7342 35.4824 32.8069C35.5146 32.8796 35.5737 32.9371 35.6472 32.9673C35.6836 32.9828 35.7228 32.991 35.7624 32.9912C35.802 32.9914 35.8412 32.9838 35.8778 32.9687C35.9144 32.9536 35.9476 32.9313 35.9755 32.9032C36.0034 32.8751 36.0254 32.8417 36.0403 32.805C36.1633 32.4276 36.3897 32.0922 36.6939 31.8372C37.0251 31.6037 37.3937 31.4285 37.7838 31.319C38.3957 31.1165 38.8513 30.9156 39.1938 30.5865C39.569 30.2187 39.7551 29.7185 39.77 29.0217C39.7708 28.9806 39.7634 28.9399 39.7481 28.9018C39.7329 28.8637 39.7101 28.829 39.6812 28.7999C39.6523 28.7707 39.6179 28.7476 39.58 28.732C39.542 28.7164 39.5013 28.7086 39.4603 28.709Z" fill="#F4F4F4"/>
<path d="M31.4914 36.3778C31.4406 36.4395 31.4161 36.5187 31.423 36.5983C31.43 36.6779 31.4679 36.7517 31.5286 36.8036C31.5581 36.8298 31.5926 36.8498 31.6299 36.8626C31.6672 36.8753 31.7066 36.8805 31.746 36.8779C31.7853 36.8752 31.8237 36.8648 31.859 36.8472C31.8943 36.8296 31.9257 36.8052 31.9515 36.7754C32.192 36.4589 32.5157 36.2156 32.8865 36.0726C33.2723 35.9567 33.6756 35.9099 34.0777 35.9341C34.7164 35.9341 35.2256 35.9043 35.6484 35.6959C36.1234 35.4711 36.4614 35.0601 36.6981 34.4035C36.7138 34.3652 36.7213 34.324 36.7201 34.2825C36.719 34.2411 36.7091 34.2004 36.6913 34.163C36.6736 34.1256 36.6482 34.0923 36.6168 34.0653C36.5854 34.0382 36.5487 34.018 36.509 34.006C36.4289 33.9839 36.3433 33.9929 36.2696 34.0313C36.1958 34.0697 36.1393 34.1346 36.1115 34.2129C35.7467 35.1837 35.2747 35.3147 34.0836 35.3177C33.4881 35.3177 33.0414 35.3624 32.6662 35.5038C32.1994 35.6774 31.7918 35.9806 31.4914 36.3778Z" fill="#F4F4F4"/>
<path d="M31.5718 38.1361C30.9093 38.9312 30.4194 38.9029 29.2923 38.5218C28.7235 38.3327 28.2933 38.224 27.8927 38.2374C27.3933 38.2506 26.9079 38.4055 26.4932 38.6841C26.4258 38.7279 26.3777 38.7956 26.3587 38.8737C26.3396 38.9517 26.3509 39.034 26.3904 39.1039C26.4101 39.138 26.4364 39.1678 26.4677 39.1917C26.499 39.2156 26.5347 39.233 26.5728 39.2429C26.6109 39.2529 26.6505 39.2552 26.6895 39.2498C26.7285 39.2443 26.766 39.2312 26.7999 39.2111C27.1294 38.9904 27.5142 38.8666 27.9106 38.8538C28.3162 38.867 28.716 38.9548 29.0898 39.1129C29.6854 39.3139 30.1857 39.4553 30.6517 39.3928C31.1743 39.3362 31.6269 39.0548 32.0632 38.5084C32.0899 38.4771 32.1098 38.4406 32.1217 38.4012C32.1336 38.3618 32.1373 38.3204 32.1324 38.2796C32.1275 38.2387 32.1142 38.1993 32.0933 38.1639C32.0724 38.1284 32.0444 38.0977 32.011 38.0736C31.9441 38.0249 31.8608 38.0042 31.7788 38.0159C31.6968 38.0276 31.6226 38.0707 31.5718 38.1361Z" fill="#F4F4F4"/>
<path d="M34.6908 10.6857C34.5453 10.3085 34.4653 9.90915 34.4541 9.50497C34.4139 8.85581 34.3216 8.37491 34.0908 7.95504C33.8213 7.50836 33.391 7.19866 32.7136 7.01553C32.6742 7.00371 32.6329 7.00016 32.5921 7.00508C32.5514 7.01 32.5121 7.02328 32.4767 7.04412C32.4414 7.06495 32.4107 7.09287 32.3866 7.12612C32.3625 7.15938 32.3456 7.19726 32.3369 7.23737C32.3214 7.31881 32.337 7.40307 32.3806 7.4736C32.4241 7.54413 32.4924 7.59583 32.5721 7.61854C33.5771 7.89101 33.7305 8.37342 33.8437 9.55412C33.8612 10.0353 33.9619 10.5098 34.1414 10.9567C34.3559 11.4072 34.6915 11.7892 35.1107 12.0599C35.177 12.1041 35.2578 12.1211 35.3363 12.1072C35.4148 12.0933 35.4849 12.0497 35.5321 11.9855C35.5562 11.9541 35.5739 11.9182 35.584 11.8798C35.5941 11.8415 35.5964 11.8015 35.5909 11.7623C35.5853 11.7231 35.572 11.6853 35.5517 11.6513C35.5314 11.6173 35.5044 11.5876 35.4725 11.5641C35.1336 11.3518 34.8624 11.047 34.6908 10.6857Z" fill="#F4F4F4"/>
<path d="M34.4624 36.2012C34.3878 36.1638 34.3018 36.1568 34.2221 36.1815C34.1425 36.2062 34.0755 36.2607 34.0351 36.3337C33.5259 37.2419 33.0226 37.2762 31.8568 37.102L31.5814 37.0573C31.1985 36.9948 30.8083 36.9918 30.4245 37.0484C29.9361 37.148 29.4845 37.3797 29.1187 37.7184C29.0592 37.7721 29.0229 37.8468 29.0173 37.9267C29.0118 38.0067 29.0375 38.0857 29.089 38.1471C29.1137 38.1778 29.1442 38.2033 29.1788 38.2222C29.2134 38.241 29.2514 38.2527 29.2906 38.2567C29.3298 38.2607 29.3694 38.2569 29.4071 38.2455C29.4448 38.2342 29.4799 38.2154 29.5103 38.1903C29.7991 37.9142 30.1606 37.7262 30.5525 37.6484C30.8726 37.5858 31.2434 37.6186 31.7541 37.7035L32.0385 37.7496C32.4704 37.8355 32.9157 37.8274 33.3442 37.7258C33.843 37.5769 34.2495 37.2315 34.589 36.6166C34.6092 36.5813 34.622 36.5422 34.6266 36.5018C34.6312 36.4613 34.6275 36.4204 34.6156 36.3815C34.6038 36.3425 34.584 36.3065 34.5577 36.2754C34.5313 36.2444 34.4989 36.2191 34.4624 36.2012Z" fill="#F4F4F4"/>
<path d="M39.1921 22.4474C39.2299 22.4368 39.2652 22.4188 39.2961 22.3944C39.3269 22.3701 39.3526 22.3399 39.3717 22.3056C39.3908 22.2712 39.4029 22.2335 39.4074 22.1945C39.4118 22.1554 39.4085 22.1159 39.3976 22.0782C39.271 21.6315 39.2293 21.2727 39.3261 20.9109C39.4397 20.522 39.6233 20.1572 39.8681 19.8344C40.209 19.3028 40.474 18.8577 40.5247 18.3916C40.5991 17.869 40.4368 17.3613 40.0184 16.803C39.9947 16.7693 39.9642 16.7409 39.9289 16.7196C39.8937 16.6983 39.8544 16.6846 39.8135 16.6792C39.7726 16.6739 39.7311 16.6772 39.6915 16.6887C39.652 16.7003 39.6153 16.7199 39.5837 16.7464C39.5201 16.8007 39.48 16.8775 39.4717 16.9608C39.4634 17.044 39.4875 17.1272 39.539 17.1931C40.1524 18.0313 40.0021 18.4988 39.3514 19.4964C39.0298 20.0011 38.8139 20.3897 38.7335 20.7828C38.6194 21.2691 38.6463 21.7778 38.811 22.2494C38.8375 22.3246 38.8916 22.3869 38.9624 22.4237C39.0332 22.4605 39.1153 22.469 39.1921 22.4474Z" fill="#F4F4F4"/>
<path d="M14.228 38.9995C13.1992 38.8804 12.9565 38.4546 12.6617 37.3007C12.5128 36.7215 12.3639 36.3016 12.1346 35.9726C11.8521 35.5606 11.4587 35.2369 11.0001 35.039C10.9263 35.0075 10.8433 35.0053 10.768 35.033C10.6927 35.0607 10.6308 35.1161 10.5951 35.1879C10.5772 35.223 10.5664 35.2613 10.5634 35.3005C10.5604 35.3398 10.5651 35.3792 10.5774 35.4166C10.5898 35.454 10.6094 35.4885 10.6352 35.5183C10.6609 35.5481 10.6923 35.5724 10.7276 35.5899C11.0929 35.7445 11.4068 35.9995 11.6328 36.3255C11.8452 36.6709 11.9907 37.0533 12.0616 37.4526C12.2195 38.0675 12.3699 38.5573 12.6781 38.9132C13.0116 39.3196 13.494 39.546 14.1908 39.616C14.2314 39.6209 14.2727 39.6174 14.3119 39.6057C14.3512 39.594 14.3876 39.5744 14.4189 39.5479C14.4502 39.5215 14.4757 39.489 14.4938 39.4522C14.512 39.4155 14.5223 39.3755 14.5243 39.3345C14.5288 39.251 14.5002 39.169 14.4448 39.1063C14.3893 39.0436 14.3115 39.0053 14.228 38.9995Z" fill="#F4F4F4"/>
<path d="M40.9047 22.9318C40.8931 22.8925 40.8734 22.856 40.847 22.8247C40.8206 22.7933 40.788 22.7678 40.7512 22.7496C40.7145 22.7314 40.6744 22.721 40.6334 22.7191C40.5924 22.7171 40.5515 22.7237 40.5132 22.7383C40.4361 22.769 40.3736 22.8281 40.3387 22.9034C40.3038 22.9787 40.2991 23.0646 40.3256 23.1433C40.6442 24.1349 40.333 24.5265 39.4114 25.2635C39.0182 25.541 38.6766 25.8852 38.4019 26.2804C38.1421 26.7057 38.0059 27.195 38.0088 27.6934C38.008 27.774 38.0387 27.8518 38.0943 27.9102C38.1499 27.9685 38.226 28.0029 38.3066 28.006C38.3463 28.0093 38.3863 28.0045 38.4241 27.992C38.462 27.9795 38.4969 27.9596 38.5269 27.9333C38.5569 27.9071 38.5813 27.8751 38.5987 27.8393C38.6161 27.8034 38.6261 27.7644 38.6282 27.7246C38.6182 27.3282 38.7216 26.9373 38.926 26.5975C39.1619 26.2691 39.4519 25.9832 39.7836 25.7518C40.3017 25.3602 40.6591 25.0208 40.8794 24.5979C41.1013 24.1289 41.1296 23.5974 40.9047 22.9318Z" fill="#F4F4F4"/>
<path d="M38.9869 25.2308C39.0259 25.2263 39.0637 25.2142 39.0981 25.1951C39.1325 25.176 39.1627 25.1502 39.1871 25.1194C39.2114 25.0885 39.2294 25.0531 39.24 25.0152C39.2507 24.9774 39.2537 24.9378 39.2489 24.8987C39.1792 24.5077 39.2178 24.1051 39.3606 23.7344C39.538 23.3707 39.7767 23.0403 40.0663 22.7577L40.2658 22.5448C40.5889 22.1651 40.842 21.8227 40.9567 21.44C41.1056 20.9397 41.0386 20.4127 40.714 19.7918C40.696 19.7551 40.6707 19.7225 40.6395 19.696C40.6084 19.6695 40.5722 19.6497 40.5331 19.6378C40.4939 19.626 40.4528 19.6223 40.4122 19.627C40.3716 19.6317 40.3325 19.6447 40.2971 19.6652C40.2262 19.7087 40.1741 19.7771 40.1512 19.8571C40.1283 19.937 40.1363 20.0226 40.1735 20.097C40.6544 21.0216 40.4103 21.4594 39.6196 22.3393L39.438 22.5448C39.1703 22.8275 38.9528 23.1538 38.7948 23.5096C38.6086 23.9727 38.557 24.479 38.6459 24.9702C38.6594 25.0486 38.702 25.119 38.7653 25.1673C38.8285 25.2157 38.9077 25.2383 38.9869 25.2308Z" fill="#F4F4F4"/>
<path d="M40.9749 16.0665C39.8971 12.9299 38.0552 10.111 35.6154 7.86439C33.1756 5.61773 30.2147 4.01397 27.0001 3.19789C24.8635 2.66144 22.6533 2.47985 20.4578 2.6604C18.2587 2.83759 16.1048 3.38162 14.0853 4.26991C12.0672 5.15648 10.2097 6.37097 8.58823 7.86413C6.97021 9.36032 5.60644 11.1098 4.55034 13.044C2.97573 15.9629 2.15137 19.2275 2.15137 22.544C2.15137 25.8605 2.97573 29.125 4.55034 32.0439C5.60595 33.9785 6.96978 35.7281 8.58823 37.2239C10.2104 38.7169 12.0683 39.9313 14.0868 40.8181C16.1051 41.7066 18.2582 42.2501 20.4563 42.4261C23.7607 42.7027 27.0819 42.1501 30.1186 40.8184C33.1554 39.4866 35.8117 37.418 37.8467 34.7999C39.2047 33.0627 40.2616 31.1099 40.9734 29.023C42.4141 24.8253 42.4141 20.2671 40.9734 16.0695L40.9749 16.0665ZM40.5878 28.8919C39.1713 33.0021 36.4289 36.5248 32.7919 38.9063C29.1518 41.2867 24.8215 42.3842 20.4871 42.025C16.1527 41.6657 12.0622 39.8702 8.86369 36.9231C7.27789 35.4581 5.94166 33.7442 4.90766 31.8489C3.3646 28.9899 2.55671 25.7921 2.55671 22.5433C2.55671 19.2944 3.3646 16.0966 4.90766 13.2376C5.94192 11.3434 7.27757 9.63005 8.8622 8.16488C10.451 6.7024 12.2707 5.51263 14.2476 4.64363C16.2249 3.77352 18.3342 3.24104 20.4876 3.06835C22.639 2.8899 24.805 3.06697 26.8988 3.59245L26.5594 4.93247C26.2705 4.526 26.0025 4.18802 25.6571 3.99149C25.2104 3.71902 24.6788 3.66542 23.9984 3.82324C23.9585 3.83295 23.9209 3.85056 23.8878 3.87502C23.8548 3.89949 23.827 3.93032 23.806 3.9657C23.7851 4.00108 23.7714 4.04028 23.7658 4.08102C23.7603 4.12176 23.7629 4.1632 23.7736 4.2029C23.7997 4.28135 23.8542 4.34719 23.9264 4.38743C23.9986 4.42767 24.0833 4.4394 24.1637 4.42029C25.1761 4.18653 25.5454 4.51706 26.2035 5.50718L26.3524 5.7335C26.5613 6.06071 26.824 6.35017 27.1296 6.58962C27.5307 6.88728 28.0086 7.06398 28.5068 7.09883C28.5862 7.10571 28.6651 7.08191 28.7274 7.03233C28.7897 6.98275 28.8307 6.91117 28.8418 6.83231C28.8475 6.79327 28.8453 6.75349 28.8355 6.71528C28.8257 6.67708 28.8083 6.6412 28.7845 6.60976C28.7606 6.57831 28.7308 6.55191 28.6967 6.5321C28.6626 6.51228 28.6249 6.49944 28.5857 6.49433C28.1903 6.46651 27.8105 6.32939 27.4884 6.09827C27.1781 5.83746 26.9156 5.52458 26.7127 5.17367L26.5638 4.93098L26.9003 3.59096C29.5203 4.25557 31.9741 5.45617 34.1067 7.11694C36.2393 8.7777 38.0044 10.8626 39.2906 13.2399C40.5768 15.6173 41.3561 18.2355 41.5794 20.9292C41.8027 23.623 41.465 26.3338 40.5878 28.8905V28.8919Z" fill="#F4F4F4"/>
<path d="M37.6596 33.2527C38.0824 32.955 38.3579 32.4949 38.477 31.8011C38.4851 31.7611 38.4849 31.72 38.4765 31.6801C38.4681 31.6403 38.4516 31.6026 38.428 31.5694C38.4044 31.5361 38.3742 31.5081 38.3394 31.487C38.3045 31.4659 38.2657 31.4522 38.2254 31.4467C38.1428 31.4367 38.0595 31.4588 37.9928 31.5084C37.926 31.558 37.8808 31.6313 37.8665 31.7132C37.676 32.7376 37.2159 32.9341 36.0531 33.1426L35.7791 33.1917C35.397 33.2581 35.0271 33.3816 34.6818 33.558C34.2529 33.8122 33.9006 34.1774 33.6619 34.6151C33.6251 34.686 33.6162 34.7681 33.6369 34.8452C33.6575 34.9223 33.7063 34.9889 33.7735 35.032C33.8071 35.0531 33.8445 35.0674 33.8835 35.0738C33.9226 35.0803 33.9626 35.079 34.0011 35.0698C34.0397 35.0607 34.076 35.0439 34.108 35.0206C34.14 34.9972 34.167 34.9677 34.1875 34.9337C34.3702 34.5807 34.6496 34.2868 34.993 34.0865C35.2729 33.9198 35.6391 33.8364 36.1469 33.75L36.4312 33.6994L37.5196 34.5496L36.4312 33.6979C36.8684 33.6414 37.2877 33.4894 37.6596 33.2527Z" fill="#F4F4F4"/>
<path d="M25.995 40.3637C25.1121 40.9116 24.655 40.7107 23.7155 39.9885C23.3497 39.676 22.9326 39.4292 22.4827 39.259C22.006 39.1118 21.4979 39.0994 21.0146 39.2232C20.9374 39.2424 20.8704 39.2904 20.8275 39.3574C20.7845 39.4244 20.7689 39.5054 20.7838 39.5835C20.7904 39.6228 20.8048 39.6603 20.8262 39.6939C20.8476 39.7275 20.8755 39.7565 20.9083 39.7791C20.941 39.8018 20.978 39.8176 21.0169 39.8257C21.0559 39.8338 21.0961 39.834 21.1352 39.8262C21.5179 39.7199 21.9232 39.7261 22.3025 39.8441C22.6152 39.9379 22.9263 40.1538 23.3328 40.468C23.8361 40.8715 24.253 41.1454 24.7175 41.2467C25.2267 41.3568 25.7523 41.2467 26.3404 40.8729C26.3759 40.8522 26.4067 40.8243 26.4308 40.7911C26.455 40.7578 26.472 40.7199 26.4808 40.6798C26.4896 40.6397 26.49 40.5981 26.482 40.5578C26.474 40.5175 26.4577 40.4793 26.4342 40.4456C26.3857 40.378 26.3129 40.3318 26.2311 40.3165C26.1492 40.3013 26.0647 40.3182 25.995 40.3637Z" fill="#F4F4F4"/>
<path d="M27.8008 40.5556C28.3249 40.5765 28.8178 40.3799 29.3404 39.9124C29.3717 39.886 29.3973 39.8534 29.4155 39.8167C29.4337 39.7799 29.4441 39.7398 29.446 39.6989C29.448 39.6579 29.4414 39.617 29.4269 39.5787C29.4123 39.5403 29.3899 39.5054 29.3612 39.4762C29.3014 39.4192 29.2225 39.3865 29.1399 39.3846C29.0573 39.3827 28.9769 39.4116 28.9145 39.4658C28.1388 40.1596 27.6519 40.0271 26.6052 39.4806L26.3611 39.3541L26.032 38.0498L26.3611 39.3556C26.0211 39.167 25.6524 39.0356 25.2697 38.967C24.7752 38.8991 24.2716 38.9719 23.8165 39.1769C23.742 39.2068 23.6822 39.2647 23.6499 39.3382C23.6176 39.4117 23.6155 39.4949 23.6438 39.57C23.6573 39.6071 23.6779 39.6412 23.7047 39.6703C23.7314 39.6994 23.7637 39.7228 23.7995 39.7393C23.8354 39.7558 23.8743 39.765 23.9137 39.7663C23.9532 39.7677 23.9925 39.7611 24.0295 39.7471C24.3905 39.5834 24.79 39.5231 25.1834 39.573C25.58 39.6562 25.9593 39.8073 26.3045 40.0196L26.5591 40.1581C26.9413 40.3746 27.364 40.51 27.8008 40.5556Z" fill="#F4F4F4"/>
<path d="M20.0003 40.6601C18.9864 40.8953 18.6201 40.5574 17.9635 39.5687C17.63 39.067 17.3545 38.723 17.0314 38.4848C16.6308 38.1882 16.1543 38.0111 15.6572 37.9741C15.578 37.9664 15.4988 37.9895 15.4362 38.0385C15.3735 38.0876 15.3322 38.1589 15.3207 38.2377C15.3148 38.2768 15.3168 38.3167 15.3265 38.3551C15.3363 38.3935 15.3536 38.4295 15.3774 38.4612C15.4013 38.4928 15.4312 38.5193 15.4654 38.5392C15.4997 38.5591 15.5375 38.572 15.5768 38.5771C15.9725 38.6078 16.3524 38.7458 16.6756 38.9761C16.9838 39.2374 17.2443 39.5503 17.4454 39.9008C17.7923 40.4397 18.099 40.8403 18.5039 41.0919C18.9506 41.3643 19.4807 41.4209 20.1611 41.2631C20.2018 41.2551 20.2403 41.2387 20.2742 41.2149C20.3081 41.1911 20.3368 41.1605 20.3582 41.1251C20.3796 41.0896 20.3934 41.0501 20.3987 41.009C20.404 40.9679 20.4007 40.9261 20.3889 40.8864C20.3637 40.8072 20.31 40.7402 20.2382 40.6984C20.1664 40.6565 20.0816 40.6429 20.0003 40.6601Z" fill="#F4F4F4"/>
<path d="M17.0833 40.0813C16.041 40.1498 15.7432 39.7478 15.2504 38.6758L15.1373 38.4227C14.9793 38.0679 14.7685 37.739 14.5119 37.4474C14.1633 37.0916 13.7225 36.84 13.2389 36.7208C13.1618 36.6998 13.0795 36.7095 13.0092 36.7478C12.939 36.7861 12.8863 36.8501 12.8622 36.9263C12.8496 36.964 12.8445 37.0039 12.8475 37.0436C12.8505 37.0833 12.8614 37.1219 12.8796 37.1573C12.8978 37.1927 12.9229 37.2241 12.9534 37.2497C12.9839 37.2752 13.0192 37.2943 13.0573 37.306C13.4439 37.3967 13.7969 37.5949 14.0757 37.8777C14.3035 38.113 14.4777 38.4405 14.6861 38.92L14.8052 39.1835C14.9696 39.592 15.2188 39.9609 15.5363 40.2659C15.9383 40.5995 16.4475 40.7543 17.1473 40.6992C17.1878 40.6972 17.2274 40.687 17.2638 40.6691C17.3002 40.6512 17.3326 40.6261 17.3589 40.5953C17.3853 40.5645 17.405 40.5287 17.417 40.4899C17.429 40.4512 17.433 40.4105 17.4287 40.3702C17.42 40.2865 17.3791 40.2096 17.3146 40.1557C17.2501 40.1017 17.1671 40.0751 17.0833 40.0813Z" fill="#F4F4F4"/>
<path d="M23.0479 40.761C22.0876 41.1467 21.6722 40.8861 20.8578 40.0166L20.6687 39.8156C20.4047 39.5315 20.0983 39.2899 19.7604 39.0994C19.3143 38.8774 18.8156 38.7827 18.3192 38.8254C18.2394 38.8322 18.1652 38.8691 18.1116 38.9285C18.0579 38.9879 18.0289 39.0655 18.0303 39.1456C18.0303 39.1857 18.0384 39.2254 18.0541 39.2623C18.0698 39.2993 18.0928 39.3326 18.1217 39.3605C18.1506 39.3883 18.1849 39.4099 18.2224 39.4242C18.2599 39.4384 18.2999 39.445 18.34 39.4433C18.8001 39.427 19.1619 39.4716 19.488 39.6577C19.7857 39.8066 20.0537 40.0508 20.4051 40.4364L20.6002 40.6449C20.953 41.0141 21.2717 41.2821 21.6424 41.4266C22.1293 41.6261 22.6608 41.5889 23.3025 41.3194C23.3411 41.3047 23.3762 41.2822 23.4057 41.2532C23.4351 41.2242 23.4581 41.1894 23.4734 41.1511C23.4887 41.1127 23.4958 41.0716 23.4943 41.0303C23.4928 40.9891 23.4828 40.9486 23.4648 40.9114C23.4282 40.8374 23.3643 40.7804 23.2866 40.7524C23.2089 40.7244 23.1234 40.7275 23.0479 40.761Z" fill="#F4F4F4"/>
<path d="M25.9006 5.65548C25.439 5.66739 25.0757 5.62869 24.7526 5.44109C24.4548 5.2922 24.1883 5.04802 23.837 4.65643C23.4037 4.19041 23.0374 3.83455 22.5982 3.66631C22.1113 3.46679 21.5798 3.50254 20.9381 3.76905C20.8995 3.78372 20.8643 3.80626 20.8349 3.83523C20.8055 3.8642 20.7824 3.89895 20.7672 3.93732C20.7519 3.97568 20.7448 4.01681 20.7463 4.05807C20.7478 4.09933 20.7578 4.13984 20.7758 4.17701C20.8127 4.25112 20.8769 4.30802 20.9549 4.33579C21.033 4.36355 21.1187 4.36002 21.1942 4.3259C22.156 3.94027 22.5714 4.20381 23.3799 5.07035C23.7923 5.51702 24.1243 5.80288 24.4787 5.98602C24.9236 6.2102 25.422 6.3066 25.9185 6.26446C25.9982 6.25767 26.0724 6.22082 26.126 6.16139C26.1797 6.10195 26.2087 6.02438 26.2073 5.94434C26.2061 5.90523 26.1973 5.86672 26.1812 5.83104C26.1652 5.79535 26.1423 5.76317 26.1138 5.73634C26.0853 5.70952 26.0518 5.68857 26.0153 5.67469C25.9787 5.66082 25.9397 5.65429 25.9006 5.65548Z" fill="#F4F4F4"/>
<path d="M33.4494 9.47615C33.0325 9.27068 32.7392 9.05478 32.5412 8.74062C32.3283 8.3951 32.1819 8.01285 32.1094 7.61353L32.0349 7.33958C31.8995 6.85122 31.7491 6.45963 31.4885 6.14845C31.1565 5.74198 30.6726 5.51714 29.9758 5.44865C29.9349 5.44347 29.8934 5.44684 29.8539 5.45852C29.8143 5.47021 29.7776 5.48997 29.7462 5.51656C29.7147 5.54315 29.6891 5.57599 29.6709 5.61299C29.6528 5.65 29.6425 5.69037 29.6408 5.73155C29.6382 5.8144 29.6678 5.89503 29.7233 5.95661C29.7788 6.0182 29.8559 6.05598 29.9386 6.06208C30.9704 6.17822 31.2116 6.60703 31.5108 7.75795L31.5823 8.02298C31.6772 8.39891 31.8315 8.75728 32.0394 9.08457C32.3234 9.49502 32.7171 9.81745 33.1754 10.0151C33.2495 10.0461 33.3325 10.0479 33.4078 10.0203C33.4832 9.99271 33.5454 9.93769 33.5819 9.86625C33.6144 9.79668 33.6187 9.71727 33.594 9.64458C33.5693 9.5719 33.5175 9.51156 33.4494 9.47615Z" fill="#F4F4F4"/>
<path d="M31.1757 7.80236C30.7891 7.71204 30.4363 7.51317 30.1588 7.22914C29.931 6.99389 29.7583 6.66335 29.5513 6.1869C29.3012 5.59134 29.06 5.15658 28.7041 4.84689C28.3036 4.51337 27.7944 4.35405 27.0946 4.40914C27.0539 4.41075 27.0139 4.42071 26.9772 4.4384C26.9404 4.45609 26.9077 4.48113 26.8811 4.51197C26.8544 4.54282 26.8344 4.57882 26.8222 4.61774C26.81 4.65665 26.806 4.69766 26.8103 4.7382C26.8207 4.82127 26.8627 4.89711 26.9276 4.95005C26.9925 5.00299 27.0752 5.02896 27.1587 5.02257C28.2009 4.95557 28.4987 5.35757 28.9855 6.43256C29.1586 6.88108 29.4074 7.29657 29.7211 7.66091C30.0697 8.01757 30.5104 8.27063 30.9941 8.39196C31.0711 8.41294 31.1532 8.40324 31.2231 8.36492C31.2931 8.3266 31.3455 8.26264 31.3693 8.18649C31.3827 8.14861 31.3883 8.10841 31.3858 8.0683C31.3832 8.02819 31.3726 7.989 31.3545 7.95311C31.3364 7.91722 31.3113 7.88536 31.2805 7.85945C31.2498 7.83354 31.2142 7.81412 31.1757 7.80236Z" fill="#F4F4F4"/>
<path d="M7.4649 20.0971C6.9228 23.3543 7.47792 26.6993 9.04312 29.6067C9.83028 31.0461 10.846 32.3479 12.0507 33.4615C13.2559 34.5756 14.6382 35.4813 16.1408 36.1416C17.6397 36.802 19.2394 37.2047 20.8725 37.3327C22.5081 37.4699 24.1551 37.3361 25.7471 36.9366C28.1368 36.3285 30.3376 35.1355 32.1513 33.465C33.965 31.7945 35.3346 29.6991 36.1367 27.3674C37.2087 24.2438 37.2087 20.8519 36.1367 17.7283C35.6071 16.1774 34.8209 14.7264 33.8111 13.4357C32.3001 11.4848 30.3245 9.94338 28.0647 8.95221C25.8048 7.96104 23.3327 7.55169 20.874 7.76152C19.2407 7.89123 17.6408 8.29385 16.1408 8.95265C14.6396 9.61462 13.2581 10.5202 12.0522 11.6327C10.8474 12.7467 9.83164 14.0491 9.04461 15.4889C8.26862 16.9279 7.73492 18.4847 7.4649 20.0971ZM22.1023 8.8246C24.816 8.82431 27.4689 9.62877 29.7255 11.1363C31.982 12.6438 33.7408 14.7866 34.7794 17.2937C35.8181 19.8008 36.0899 22.5596 35.5605 25.2212C35.0312 27.8828 33.7244 30.3277 31.8055 32.2466C29.8866 34.1655 27.4417 35.4722 24.7801 36.0016C22.1185 36.5309 19.3597 36.2591 16.8526 35.2205C14.3455 34.1818 12.2027 32.423 10.6952 30.1665C9.18771 27.91 8.38325 25.2571 8.38355 22.5434C8.38788 18.9063 9.83463 15.4194 12.4065 12.8475C14.9783 10.2757 18.4652 8.82894 22.1023 8.8246Z" fill="#F4F4F4"/>
<path d="M11.2724 10.7782C9.9741 11.9781 8.88028 13.3817 8.034 14.9337C6.77203 17.2722 6.11133 19.8878 6.11133 22.545C6.11133 25.2023 6.77203 27.8179 8.034 30.1563C8.88059 31.7078 9.97439 33.1108 11.2724 34.3104C13.8866 36.7221 17.2326 38.1897 20.7776 38.4793C22.5397 38.6243 24.3137 38.4794 26.0289 38.0505C29.4771 37.1733 32.5349 35.1726 34.7197 32.3644C35.8091 30.9736 36.6562 29.4092 37.2255 27.7368C38.3828 24.3724 38.3828 20.7177 37.2255 17.3532C36.6559 15.681 35.8088 14.1166 34.7197 12.7257C33.091 10.6243 30.9623 8.96388 28.5276 7.89582C26.093 6.82775 23.4297 6.38597 20.7805 6.61076C19.0202 6.75117 17.2959 7.18601 15.6795 7.89718C14.062 8.60849 12.5729 9.58192 11.2724 10.7782ZM20.8133 7.01723C22.5305 6.87483 24.2594 7.01619 25.9307 7.43562C28.4399 8.07496 30.7509 9.32819 32.6554 11.0826C34.56 12.8369 35.9985 15.0373 36.8413 17.4857C37.9679 20.7666 37.9679 24.3295 36.8413 27.6103C36.2848 29.2392 35.4589 30.7631 34.3981 32.1187C32.8109 34.1666 30.7363 35.7845 28.3634 36.8248C25.9905 37.8651 23.3948 38.2947 20.8133 38.0743C19.0977 37.9386 17.4171 37.5153 15.8419 36.8222C14.2664 36.1277 12.8157 35.179 11.5478 34.0141C10.2834 32.8445 9.21732 31.4772 8.39136 29.9657C7.57383 28.4521 7.01283 26.8135 6.73121 25.1164C6.29979 22.5612 6.51482 19.9386 7.35665 17.4877C8.19848 15.0369 9.64034 12.8358 11.5508 11.0849C12.8165 9.91792 14.267 8.96899 15.8433 8.27684C17.418 7.58089 19.0987 7.15507 20.8148 7.01723H20.8133Z" fill="#F4F4F4"/>
<path d="M22.1026 0.724609C10.0722 0.724609 0.28418 10.5127 0.28418 22.543C0.28418 34.5734 10.0722 44.3629 22.1026 44.3629C34.1329 44.3629 43.9225 34.5749 43.9225 22.543C43.9225 10.5112 34.1344 0.724609 22.1026 0.724609ZM38.4195 35.2523C36.6639 37.5105 34.4586 39.3796 31.9434 40.7416C29.4281 42.1036 26.6576 42.9287 23.807 43.1648C20.9565 43.4009 18.0879 43.0428 15.3829 42.1132C12.6779 41.1836 10.1952 39.7026 8.09199 37.7641C6.41509 36.2169 5.00189 34.4064 3.90815 32.4041C2.2753 29.3783 1.42042 25.994 1.42042 22.5557C1.42042 19.1174 2.2753 15.7331 3.90815 12.7073C5.00252 10.7049 6.41621 8.89448 8.09348 7.34726C11.4778 4.22616 15.8092 2.32725 20.3978 1.95296C22.6735 1.76451 24.9648 1.95162 27.1798 2.50683C30.5126 3.35032 33.5825 5.01144 36.1119 7.33988C38.6412 9.66833 40.5501 12.5906 41.666 15.8424C42.7818 19.0942 43.0692 22.5729 42.5024 25.9638C41.9356 29.3546 40.5323 32.5507 38.4195 35.2628V35.2523Z" fill="#F4F4F4"/>
<path d="M16.9959 31.3325L17.6049 30.3037L17.8669 30.463C18.4914 30.8305 19.1584 31.1205 19.8531 31.3266C20.5941 31.5602 21.3661 31.6802 22.143 31.6824C23.7808 31.6824 25.1641 31.1941 26.2629 30.2307C27.3617 29.2674 27.9007 28.0673 27.9007 26.5769C27.9119 26.0206 27.8267 25.4665 27.649 24.9392C27.4766 24.4691 27.2141 24.0371 26.8763 23.6676C26.5418 23.3132 26.1589 23.0079 25.7388 22.7609C25.2839 22.4904 24.8119 22.2496 24.3258 22.0403C23.7838 21.8005 23.2151 21.5742 22.6329 21.3643C22.0507 21.1544 21.4239 20.8893 20.809 20.596C20.1436 20.2999 19.565 19.8386 19.128 19.256C18.7334 18.7006 18.5324 17.9979 18.5324 17.1715C18.5289 16.7768 18.6111 16.386 18.7733 16.0261C18.9355 15.6662 19.1738 15.3458 19.472 15.0871C20.0803 14.5291 20.88 14.2268 21.7053 14.2429C22.4178 14.2227 23.1236 14.3852 23.7555 14.7148C24.3094 15.0231 24.7907 15.4465 25.167 15.9566C25.5586 16.4952 25.8738 17.0855 26.1035 17.7105C26.3105 18.2689 26.4996 18.854 26.6693 19.454H27.1443L27.0549 14.1625H26.5219L25.9368 15.1302L25.6762 14.9665C25.1309 14.6289 24.5546 14.3442 23.9551 14.1163C23.2881 13.8701 22.5814 13.7495 21.8706 13.7605C21.2012 13.7592 20.537 13.8782 19.9097 14.1118C19.3145 14.3271 18.7654 14.653 18.2913 15.0722C17.8279 15.4837 17.4518 15.9839 17.185 16.5432C16.9279 17.0935 16.7967 17.6942 16.8009 18.3016C16.8009 19.4064 17.0599 20.3072 17.5721 20.9816C18.1588 21.7186 18.9218 22.2957 19.7906 22.6596C20.2953 22.8904 20.8983 23.1376 21.5877 23.3952C22.277 23.6527 22.9158 23.8969 23.4607 24.1128C24.2484 24.4035 24.9252 24.9336 25.3963 25.6285C25.8209 26.2662 26.0473 27.0153 26.047 27.7815C26.0542 28.2516 25.9827 28.7196 25.8355 29.1662C25.6947 29.5889 25.4557 29.9723 25.1382 30.2849C24.8206 30.5976 24.4336 30.8305 24.0086 30.9648C23.4897 31.1361 22.9455 31.2186 22.3991 31.2089C21.6524 31.2233 20.9128 31.0616 20.2402 30.737C19.6274 30.4288 19.0799 30.0051 18.6278 29.4893C18.1593 28.9577 17.7696 28.3615 17.4709 27.7189C17.1963 27.1176 16.9674 26.4965 16.786 25.8608H16.3125L16.4703 31.34L16.9959 31.3325Z" fill="#F4F4F4"/>
<path d="M55.0972 38L53.4732 33.1H54.4182L55.8672 37.531H55.3982L56.9032 33.1H57.7432L59.2062 37.531H58.7512L60.2352 33.1H61.1032L59.4792 38H58.5132L57.1762 34.003H57.4282L56.0702 38H55.0972ZM65.3585 33.1H66.2685V38H65.3585V33.1ZM62.8245 38H61.9145V33.1H62.8245V38ZM65.4285 35.9H62.7475V35.123H65.4285V35.9ZM68.4915 35.137H70.9275V35.886H68.4915V35.137ZM68.5615 37.237H71.3265V38H67.6515V33.1H71.2285V33.863H68.5615V37.237ZM72.411 38V33.1H74.427C74.861 33.1 75.232 33.17 75.54 33.31C75.8526 33.45 76.093 33.6507 76.261 33.912C76.429 34.1733 76.513 34.4837 76.513 34.843C76.513 35.2023 76.429 35.5127 76.261 35.774C76.093 36.0307 75.8526 36.229 75.54 36.369C75.232 36.5043 74.861 36.572 74.427 36.572H72.915L73.321 36.159V38H72.411ZM75.617 38L74.378 36.222H75.351L76.597 38H75.617ZM73.321 36.257L72.915 35.823H74.385C74.7863 35.823 75.0873 35.7367 75.288 35.564C75.4933 35.3913 75.596 35.151 75.596 34.843C75.596 34.5303 75.4933 34.29 75.288 34.122C75.0873 33.954 74.7863 33.87 74.385 33.87H72.915L73.321 33.422V36.257ZM78.4411 35.137H80.8771V35.886H78.4411V35.137ZM78.5111 37.237H81.2761V38H77.6011V33.1H81.1781V33.863H78.5111V37.237ZM85.5691 38V36.061L85.7721 36.621L83.6441 33.1H84.6171L86.3251 35.935H85.7791L87.5011 33.1H88.3971L86.2691 36.621L86.4791 36.061V38H85.5691ZM91.1471 38.07C90.7645 38.07 90.4121 38.007 90.0901 37.881C89.7681 37.755 89.4881 37.58 89.2501 37.356C89.0121 37.1273 88.8278 36.8613 88.6971 36.558C88.5665 36.25 88.5011 35.914 88.5011 35.55C88.5011 35.186 88.5665 34.8523 88.6971 34.549C88.8278 34.241 89.0121 33.975 89.2501 33.751C89.4881 33.5223 89.7681 33.345 90.0901 33.219C90.4121 33.093 90.7621 33.03 91.1401 33.03C91.5228 33.03 91.8728 33.093 92.1901 33.219C92.5121 33.345 92.7921 33.5223 93.0301 33.751C93.2681 33.975 93.4525 34.241 93.5831 34.549C93.7138 34.8523 93.7791 35.186 93.7791 35.55C93.7791 35.914 93.7138 36.25 93.5831 36.558C93.4525 36.866 93.2681 37.132 93.0301 37.356C92.7921 37.58 92.5121 37.755 92.1901 37.881C91.8728 38.007 91.5251 38.07 91.1471 38.07ZM91.1401 37.272C91.3875 37.272 91.6161 37.23 91.8261 37.146C92.0361 37.062 92.2181 36.943 92.3721 36.789C92.5261 36.6303 92.6451 36.4483 92.7291 36.243C92.8178 36.033 92.8621 35.802 92.8621 35.55C92.8621 35.298 92.8178 35.0693 92.7291 34.864C92.6451 34.654 92.5261 34.472 92.3721 34.318C92.2181 34.1593 92.0361 34.038 91.8261 33.954C91.6161 33.87 91.3875 33.828 91.1401 33.828C90.8928 33.828 90.6641 33.87 90.4541 33.954C90.2488 34.038 90.0668 34.1593 89.9081 34.318C89.7541 34.472 89.6328 34.654 89.5441 34.864C89.4601 35.0693 89.4181 35.298 89.4181 35.55C89.4181 35.7973 89.4601 36.026 89.5441 36.236C89.6328 36.446 89.7541 36.6303 89.9081 36.789C90.0621 36.943 90.2441 37.062 90.4541 37.146C90.6641 37.23 90.8928 37.272 91.1401 37.272ZM96.9207 38.07C96.2487 38.07 95.7214 37.881 95.3387 37.503C94.9607 37.125 94.7717 36.579 94.7717 35.865V33.1H95.6817V35.83C95.6817 36.334 95.789 36.7003 96.0037 36.929C96.223 37.1577 96.531 37.272 96.9277 37.272C97.3244 37.272 97.63 37.1577 97.8447 36.929C98.0594 36.7003 98.1667 36.334 98.1667 35.83V33.1H99.0627V35.865C99.0627 36.579 98.8714 37.125 98.4887 37.503C98.1107 37.881 97.588 38.07 96.9207 38.07ZM102.412 38V33.1H103.161L105.303 36.677H104.911L107.018 33.1H107.767L107.774 38H106.913L106.906 34.451H107.088L105.296 37.44H104.89L103.07 34.451H103.28V38H102.412ZM108.474 38L110.679 33.1H111.575L113.787 38H112.835L110.938 33.583H111.302L109.412 38H108.474ZM109.489 36.866L109.734 36.152H112.38L112.625 36.866H109.489ZM115.292 36.845L115.243 35.767L117.812 33.1H118.834L116.699 35.368L116.195 35.921L115.292 36.845ZM114.48 38V33.1H115.39V38H114.48ZM117.896 38L116.02 35.767L116.622 35.102L118.96 38H117.896ZM120.49 35.137H122.926V35.886H120.49V35.137ZM120.56 37.237H123.325V38H119.65V33.1H123.227V33.863H120.56V37.237ZM126.414 38V33.1H127.163L129.305 36.677H128.913L131.02 33.1H131.769L131.776 38H130.915L130.908 34.451H131.09L129.298 37.44H128.892L127.072 34.451H127.282V38H126.414ZM134.01 35.137H136.446V35.886H134.01V35.137ZM134.08 37.237H136.845V38H133.17V33.1H136.747V33.863H134.08V37.237ZM137.929 38V33.1H138.678L140.82 36.677H140.428L142.535 33.1H143.284L143.291 38H142.43L142.423 34.451H142.605L140.813 37.44H140.407L138.587 34.451H138.797V38H137.929ZM146.981 38.07C146.598 38.07 146.246 38.007 145.924 37.881C145.602 37.755 145.322 37.58 145.084 37.356C144.846 37.1273 144.661 36.8613 144.531 36.558C144.4 36.25 144.335 35.914 144.335 35.55C144.335 35.186 144.4 34.8523 144.531 34.549C144.661 34.241 144.846 33.975 145.084 33.751C145.322 33.5223 145.602 33.345 145.924 33.219C146.246 33.093 146.596 33.03 146.974 33.03C147.356 33.03 147.706 33.093 148.024 33.219C148.346 33.345 148.626 33.5223 148.864 33.751C149.102 33.975 149.286 34.241 149.417 34.549C149.547 34.8523 149.613 35.186 149.613 35.55C149.613 35.914 149.547 36.25 149.417 36.558C149.286 36.866 149.102 37.132 148.864 37.356C148.626 37.58 148.346 37.755 148.024 37.881C147.706 38.007 147.359 38.07 146.981 38.07ZM146.974 37.272C147.221 37.272 147.45 37.23 147.66 37.146C147.87 37.062 148.052 36.943 148.206 36.789C148.36 36.6303 148.479 36.4483 148.563 36.243C148.651 36.033 148.696 35.802 148.696 35.55C148.696 35.298 148.651 35.0693 148.563 34.864C148.479 34.654 148.36 34.472 148.206 34.318C148.052 34.1593 147.87 34.038 147.66 33.954C147.45 33.87 147.221 33.828 146.974 33.828C146.726 33.828 146.498 33.87 146.288 33.954C146.082 34.038 145.9 34.1593 145.742 34.318C145.588 34.472 145.466 34.654 145.378 34.864C145.294 35.0693 145.252 35.298 145.252 35.55C145.252 35.7973 145.294 36.026 145.378 36.236C145.466 36.446 145.588 36.6303 145.742 36.789C145.896 36.943 146.078 37.062 146.288 37.146C146.498 37.23 146.726 37.272 146.974 37.272ZM150.647 38V33.1H152.663C153.097 33.1 153.468 33.17 153.776 33.31C154.089 33.45 154.329 33.6507 154.497 33.912C154.665 34.1733 154.749 34.4837 154.749 34.843C154.749 35.2023 154.665 35.5127 154.497 35.774C154.329 36.0307 154.089 36.229 153.776 36.369C153.468 36.5043 153.097 36.572 152.663 36.572H151.151L151.557 36.159V38H150.647ZM153.853 38L152.614 36.222H153.587L154.833 38H153.853ZM151.557 36.257L151.151 35.823H152.621C153.023 35.823 153.324 35.7367 153.524 35.564C153.73 35.3913 153.832 35.151 153.832 34.843C153.832 34.5303 153.73 34.29 153.524 34.122C153.324 33.954 153.023 33.87 152.621 33.87H151.151L151.557 33.422V36.257ZM155.837 38V33.1H156.747V38H155.837ZM158.983 35.137H161.419V35.886H158.983V35.137ZM159.053 37.237H161.818V38H158.143V33.1H161.72V33.863H159.053V37.237ZM164.421 38.07C164.038 38.07 163.672 38.0163 163.322 37.909C162.972 37.797 162.694 37.6547 162.489 37.482L162.804 36.775C163 36.929 163.243 37.0573 163.532 37.16C163.821 37.2627 164.118 37.314 164.421 37.314C164.678 37.314 164.885 37.286 165.044 37.23C165.203 37.174 165.319 37.0993 165.394 37.006C165.469 36.908 165.506 36.7983 165.506 36.677C165.506 36.5277 165.452 36.4087 165.345 36.32C165.238 36.2267 165.098 36.1543 164.925 36.103C164.757 36.047 164.568 35.9957 164.358 35.949C164.153 35.9023 163.945 35.8487 163.735 35.788C163.53 35.7227 163.341 35.641 163.168 35.543C163 35.4403 162.862 35.305 162.755 35.137C162.648 34.969 162.594 34.7543 162.594 34.493C162.594 34.227 162.664 33.9843 162.804 33.765C162.949 33.541 163.166 33.3637 163.455 33.233C163.749 33.0977 164.12 33.03 164.568 33.03C164.862 33.03 165.154 33.0673 165.443 33.142C165.732 33.2167 165.984 33.324 166.199 33.464L165.912 34.171C165.693 34.0403 165.466 33.9447 165.233 33.884C165 33.8187 164.776 33.786 164.561 33.786C164.309 33.786 164.104 33.8163 163.945 33.877C163.791 33.9377 163.677 34.017 163.602 34.115C163.532 34.213 163.497 34.325 163.497 34.451C163.497 34.6003 163.548 34.7217 163.651 34.815C163.758 34.9037 163.896 34.9737 164.064 35.025C164.237 35.0763 164.428 35.1277 164.638 35.179C164.848 35.2257 165.056 35.2793 165.261 35.34C165.471 35.4007 165.66 35.48 165.828 35.578C166.001 35.676 166.138 35.809 166.241 35.977C166.348 36.145 166.402 36.3573 166.402 36.614C166.402 36.8753 166.33 37.118 166.185 37.342C166.045 37.5613 165.828 37.7387 165.534 37.874C165.24 38.0047 164.869 38.07 164.421 38.07Z" fill="white"/>
</svg>
