<svg xmlns="http://www.w3.org/2000/svg" width="21" height="17" viewBox="0 0 21 17" fill="none">
  <path d="M16.6763 16.8311H4.59732C2.59946 16.8311 0.973633 15.2159 0.973633 13.2311V4.43105C0.973633 2.44625 2.59946 0.831055 4.59732 0.831055H16.6763C18.6741 0.831055 20.2999 2.44625 20.2999 4.43105V13.2311C20.2999 15.2159 18.6741 16.8311 16.6763 16.8311ZM4.59732 1.63105C3.04316 1.63105 1.7789 2.88705 1.7789 4.43105V13.2311C1.7789 14.7751 3.04316 16.0311 4.59732 16.0311H16.6763C18.2304 16.0311 19.4947 14.7751 19.4947 13.2311V4.43105C19.4947 2.88705 18.2304 1.63105 16.6763 1.63105H4.59732ZM15.871 9.63106H11.8447C11.1787 9.63106 10.6368 9.09266 10.6368 8.43106V6.03105C10.6368 5.36945 11.1787 4.83105 11.8447 4.83105H15.871C16.537 4.83105 17.0789 5.36945 17.0789 6.03105V8.43106C17.0789 9.09266 16.537 9.63106 15.871 9.63106ZM11.8447 5.63105C11.6224 5.63105 11.4421 5.81026 11.4421 6.03105V8.43106C11.4421 8.65185 11.6224 8.83105 11.8447 8.83105H15.871C16.0933 8.83105 16.2736 8.65185 16.2736 8.43106V6.03105C16.2736 5.81026 16.0933 5.63105 15.871 5.63105H11.8447ZM9.02626 9.23105C9.02626 9.01025 8.84589 8.83105 8.62363 8.83105H4.59732C4.37506 8.83105 4.19469 9.01025 4.19469 9.23105C4.19469 9.45185 4.37506 9.63106 4.59732 9.63106H8.62363C8.84589 9.63106 9.02626 9.45185 9.02626 9.23105ZM17.0789 12.4311C17.0789 12.2103 16.8985 12.0311 16.6763 12.0311H4.59732C4.37506 12.0311 4.19469 12.2103 4.19469 12.4311C4.19469 12.6519 4.37506 12.8311 4.59732 12.8311H16.6763C16.8985 12.8311 17.0789 12.6519 17.0789 12.4311Z" fill="#7F7F7F"/>
</svg>