<svg xmlns="http://www.w3.org/2000/svg" width="16" height="21" viewBox="0 0 16 21" fill="none">
  <path d="M8.47363 10.9028C9.46254 10.9028 10.4292 10.6096 11.2515 10.0602C12.0737 9.51077 12.7146 8.72988 13.093 7.81625C13.4715 6.90262 13.5705 5.89729 13.3776 4.92738C13.1846 3.95748 12.7084 3.06656 12.0092 2.3673C11.3099 1.66804 10.419 1.19183 9.44908 0.998908C8.47918 0.805982 7.47385 0.904998 6.56021 1.28344C5.64658 1.66187 4.86569 2.30274 4.31628 3.12498C3.76688 3.94723 3.47363 4.91393 3.47363 5.90283C3.47496 7.22851 4.00217 8.49951 4.93956 9.4369C5.87696 10.3743 7.14796 10.9015 8.47363 10.9028ZM8.47363 2.5695C9.1329 2.5695 9.77737 2.765 10.3255 3.13127C10.8737 3.49754 11.3009 4.01814 11.5532 4.62722C11.8055 5.23631 11.8715 5.90653 11.7429 6.55313C11.6143 7.19974 11.2968 7.79368 10.8307 8.25986C10.3645 8.72603 9.77054 9.0435 9.12393 9.17212C8.47733 9.30073 7.80711 9.23472 7.19802 8.98243C6.58893 8.73014 6.06834 8.3029 5.70207 7.75473C5.3358 7.20657 5.1403 6.5621 5.1403 5.90283C5.1403 5.01878 5.49149 4.17093 6.11661 3.54581C6.74173 2.92069 7.58958 2.5695 8.47363 2.5695Z" fill="#232631"/>
  <path d="M8.47363 12.5695C6.48519 12.5717 4.57881 13.3626 3.17277 14.7686C1.76672 16.1747 0.975839 18.0811 0.973633 20.0695C0.973633 20.2905 1.06143 20.5025 1.21771 20.6588C1.37399 20.815 1.58595 20.9028 1.80697 20.9028C2.02798 20.9028 2.23994 20.815 2.39622 20.6588C2.5525 20.5025 2.6403 20.2905 2.6403 20.0695C2.6403 18.5224 3.25488 17.0387 4.34884 15.9447C5.4428 14.8507 6.92654 14.2362 8.47363 14.2362C10.0207 14.2362 11.5045 14.8507 12.5984 15.9447C13.6924 17.0387 14.307 18.5224 14.307 20.0695C14.307 20.2905 14.3948 20.5025 14.551 20.6588C14.7073 20.815 14.9193 20.9028 15.1403 20.9028C15.3613 20.9028 15.5733 20.815 15.7296 20.6588C15.8858 20.5025 15.9736 20.2905 15.9736 20.0695C15.9714 18.0811 15.1805 16.1747 13.7745 14.7686C12.3685 13.3626 10.4621 12.5717 8.47363 12.5695Z" fill="#232631"/>
</svg>